<svg xmlns="http://www.w3.org/2000/svg" xmlns:xlink="http://www.w3.org/1999/xlink" viewBox="0 0 2278.3 1456.71"><defs><style>.cls-1{isolation:isolate;}.cls-13,.cls-2,.cls-9{opacity:0.49;mix-blend-mode:multiply;}.cls-2{fill:url(#linear-gradient);}.cls-3{fill:#ff9d4d;}.cls-4{fill:#fcb87a;}.cls-5{fill:#18335b;}.cls-6{fill:#bf4d00;}.cls-7{fill:#122644;}.cls-8{fill:#ff6700;}.cls-9{fill:url(#linear-gradient-2);}.cls-10{fill:#ffbf1f;}.cls-11{fill:#bf8f17;}.cls-12{fill:none;}.cls-13{fill:url(#linear-gradient-3);}</style><linearGradient id="linear-gradient" x1="1461.03" y1="956.29" x2="2171.47" y2="956.29" gradientUnits="userSpaceOnUse"><stop offset="0.44" stop-color="#b3b3b3"/><stop offset="1" stop-color="#fff" stop-opacity="0"/></linearGradient><linearGradient id="linear-gradient-2" x1="1051.26" y1="1522.67" x2="973.18" y2="1079.88" gradientUnits="userSpaceOnUse"><stop offset="0.24" stop-color="#fff" stop-opacity="0"/><stop offset="0.56" stop-color="#b3b3b3"/></linearGradient><linearGradient id="linear-gradient-3" x1="20.99" y1="617.57" x2="597.91" y2="783" gradientUnits="userSpaceOnUse"><stop offset="0" stop-color="#fff" stop-opacity="0"/><stop offset="0.56" stop-color="#b3b3b3"/></linearGradient></defs><g class="cls-1"><g id="Layer_1" data-name="Layer 1"><path class="cls-2" d="M1461,865.2l89.44,45.33s69.13,44.41,128.22,62.72c62.83,19.47,191.92,50,257.59,53.48,25,1.35,59.07,25.9,84.1,26.46,17.19.38,50.88,9.79,68.07,9.72,20.29-.08,68.72,4.55,80.23-12.15,8.11-11.78-3.14-44.81-12.16-55.91-10.49-12.91-44.84-22.32-60.77-27.12-30.68-9.25-78.91-54.64-110.85-57.29-32.7-2.71-98.6,3.1-131.27,0-43-4.09-127.94-21.54-169.72-32.53a572.48,572.48,0,0,1-82.81-28.76l-53.35,16.14L1664,910.44l-136-46.91Z"/><path class="cls-3" d="M1608.92,421c-.5,2.32-1.05,4.42-1.63,6.32l36.23,15.06-3-36.54-14.8-16.5-.93-13L1587.21,355C1590.64,364,1614.67,394.21,1608.92,421Z"/><path class="cls-3" d="M1586.81,353.74a11.36,11.36,0,0,0,.4,1.21c0,.16.11.35.17.56l4.33,1.15Z"/><path class="cls-4" d="M1603.48,359.79l-11.77-3.13,14.06,8.36A46.16,46.16,0,0,0,1603.48,359.79Z"/><path class="cls-4" d="M1589.53,392l2.5,23.36,5.14,1.49,1.64,6.93,8.48,3.52c.58-1.9,1.13-4,1.63-6.32,5.75-26.75-16.23-55.94-21.54-65.45l4.33,1.15-4.33-1.15C1588.86,360.8,1592.51,381.31,1589.53,392Z"/><path class="cls-3" d="M1616,376.85q-3-.45-5.74-1.11A28.42,28.42,0,0,0,1616,376.85Z"/><path class="cls-3" d="M1663.91,316.71c3-35.24-13.44-65.44-36.81-67.46-12.29-1.07-24,5.88-32.86,17.83-22.35,83,25.2,110.2,25.2,110.2,6.26.94,15.82,2.69,20.7.32,10.47-5.08,12.64-19.62,13-35,.15-6.48,12.71-.82,14.32-8C1668.39,330.46,1663.53,321.11,1663.91,316.71Z"/><path class="cls-4" d="M1616,376.85c1.11.17,2.25.31,3.41.43h0c-1.28-.19-2.43-.35-3.36-.43Z"/><path class="cls-4" d="M1613.2,263.67c-8,10.77-31.46,4.27-33.93,45.72-2.06,34.49,10.78,60.28,31,66.35q2.76.66,5.74,1.11h0c.93.08,10.56,1.74,13,1.74C1629.1,378.59,1619.44,356.66,1613.2,263.67Z"/><path class="cls-5" d="M1583.61,346.24s9.66-15.71,5-35.22c0,0,.13,5.14-2.76,4.88s-10.07-28.49,3.88-28.49c9.88,0,4.53,38.5,4.53,38.5l6.93,1.54s10.77-45.68,5.13-53.64c10,3.34,49.53,4.11,57-1.28,0,0-5.14-34.64-43.37-34.64s-59.79,32.07-59.79,58.51S1566.71,338,1583.61,346.24Z"/><path class="cls-4" d="M1659.94,318.74l-8-40.1s-17.42,3.67-33.8.69,28.91,7.34,28.91,7.34l4.12,40.37s-6.56-1.31-8.54.55a6,6,0,0,0,.11,8.61s6.84-14.89,9.86-3.11c0,0,5.62,2.09,8.6,2S1659.94,318.74,1659.94,318.74Z"/><path class="cls-4" d="M1654.53,278.48a9.46,9.46,0,0,0,9.47-2s-8.36,6.19-6.6,12.89Z"/><ellipse class="cls-5" cx="1639.41" cy="297.8" rx="5.95" ry="1.28" transform="translate(1234.28 1914.03) rotate(-86.22)"/><path class="cls-5" d="M1660.44,294.68c-.19,2.82-.77,5.15-1.37,5.72-.1.09-1.1-7-1-7.45.31-2.52.93-4.34,1.52-4.3S1660.65,291.39,1660.44,294.68Z"/><path class="cls-6" d="M1635,352.63s8.6,3.77,13.74.42,5.94,1.87,3.93,3c0,0,2.3,2-.44,3.48S1640.55,356.71,1635,352.63Z"/><path class="cls-5" d="M1587.76,850l8.49-2.9q-4.93-2.88-10.41-5.77s-21.1-16.9-29.71-10.46c0,0-16.27,18.16-8.38,34.4,6.91,14.21,65,32.06,85.69,32.33C1635.16,877.82,1587.76,850,1587.76,850Z"/><path class="cls-7" d="M1596.25,847.12l-8.49,2.9s47.4,27.8,45.68,47.6c2.93,0,5.11-.27,6.29-1C1648.45,891.22,1634.92,869.7,1596.25,847.12Z"/><path class="cls-5" d="M1487,847.75l11.57-2.64,10.12,1.12c-1.15-.8-2.31-1.61-3.51-2.41,0,0-20.83-20.83-30.93-14.88,0,0-19.8,17.73-13.2,36.26,5.83,16.34,67.45,42.87,89.44,45.33C1547.06,883.74,1487,847.75,1487,847.75Z"/><path class="cls-7" d="M1557,910.14c10.68-5.09-3.48-32.69-48.28-63.91l-10.12-1.12L1487,847.75s60.08,36,63.49,62.78C1553.41,910.86,1555.65,910.76,1557,910.14Z"/><path class="cls-8" d="M1677.29,395.65c-16.08-3.62-51.6-6.35-51.6-6.35a20.27,20.27,0,0,1,3.76,11C1647.51,396.09,1665.31,393.54,1677.29,395.65Z"/><path class="cls-8" d="M1712.9,418l-.93-.77q2.55,2.14,5.15,4.41C1715.58,420.29,1714.16,419.07,1712.9,418Z"/><path class="cls-8" d="M1684.17,397.69c1,.45,2,1,3,1.55C1686.13,398.64,1685.11,398.11,1684.17,397.69Z"/><path class="cls-8" d="M1866.58,507.35c8.82.53,14.37-3.13,17.82-7.36-2.49-5.23-6.66-10.62-9.88-12.63l-90.56-5.3c8.61.62,24.28,2.26,18.47,5.89-7.87,4.92-33.93,2.95-33.93,2.95L1678,429.29,1677,472s48,44.09,76.14,58.25C1785.28,522.3,1851.63,506.46,1866.58,507.35Z"/><path class="cls-8" d="M1517.66,515.59c-15.55,3.67,12.43-86,43.83-94.05,0,0,17.43-6.82,39.55-13.55-4.86-7-10.83-19.57-10.83-19.57s-15.92-1.4-21,0c-9.09,2.54-26.54,12.09-32.32,19.55-18.33,23.65-68,87.3-71.11,133,.9,1.18,12.75,16,32.12,11.78,11.26-2.43,28.3-9.85,41.16-15.93l13.77-21.21S1533.21,511.93,1517.66,515.59Z"/><polygon class="cls-8" points="1523.75 637.16 1529.6 637.16 1505.57 627.55 1523.75 637.16"/><path class="cls-8" d="M1526,557l2.1-3.24c-13.64,6.1-29.06,11.33-40.49,10.44-3.47,16.91-4.35,22.68-4.35,22.68v28.83l22.35,11.81-3.93-19.94Z"/><path class="cls-6" d="M1687.22,399.24c7.75,4.34,18.56,12.91,24.75,18C1702.77,409.52,1694.12,403,1687.22,399.24Z"/><path class="cls-6" d="M1677.29,395.65a40.58,40.58,0,0,1,6.88,2A28.25,28.25,0,0,0,1677.29,395.65Z"/><path class="cls-6" d="M1556.78,528s-7.54,4-17.69,8.76l-11,17A282.64,282.64,0,0,0,1559.61,537Z"/><path class="cls-6" d="M1778.75,481.76l5.21.3C1780.91,481.85,1778.75,481.76,1778.75,481.76Z"/><path class="cls-6" d="M1778.75,481.76s-32.45-34.75-61.63-60.1C1737.18,439.42,1778.75,481.76,1778.75,481.76Z"/><path class="cls-6" d="M1768.5,490.9s26.06,2,33.93-2.95c5.81-3.63-9.86-5.27-18.47-5.89l-5.21-.3s-41.57-42.34-61.63-60.1q-2.59-2.27-5.15-4.41c-6.19-5.1-17-13.67-24.75-18-1.06-.58-2.08-1.1-3-1.55a40.58,40.58,0,0,0-6.88-2c-12-2.11-29.78.44-47.84,4.64,0,9.58-.65,22-3.94,22.06-6,.19-17.14-6.68-21.55-10.79A23.13,23.13,0,0,1,1601,408c-22.12,6.73-39.55,13.55-39.55,13.55-31.4,8.1-59.38,97.72-43.83,94.05s35.2,0,35.2,0l-13.77,21.21c10.15-4.8,17.69-8.76,17.69-8.76l2.83,9a282.64,282.64,0,0,1-31.55,16.77L1526,557l-24.32,50.58,3.93,19.94,24,9.61h60.61l37.38-21.42L1677,472l1-42.71Z"/><path class="cls-6" d="M1870.93,524.1c5-2.33,14.82-10.11,15.56-15.57.31-2.27-.58-5.37-2.09-8.54-3.45,4.23-9,7.89-17.82,7.36-14.95-.89-81.3,14.95-113.45,22.9a49.41,49.41,0,0,0,8.86,3.6C1788.34,541.14,1846.16,535.68,1870.93,524.1Z"/><path class="cls-8" d="M1466.06,548.8v0Z"/><path class="cls-8" d="M1465.91,548.09a2.74,2.74,0,0,0-.05-.28C1465.88,547.91,1465.9,548,1465.91,548.09Z"/><path class="cls-4" d="M1466.05,548.76c0-.22-.09-.44-.14-.67C1466,548.31,1466,548.53,1466.05,548.76Z"/><path class="cls-4" d="M1465.81,541l-.06-.07a21.45,21.45,0,0,0,.11,6.93,15.82,15.82,0,0,1-.21-2.6C1465.65,543.81,1465.71,542.39,1465.81,541Z"/><path class="cls-9" d="M832.79,1104.63s64.9,193.9,78.23,284.86,68,137.93,133.72,133.26,99.36-38.26,77.67-73.53-13.05-31.58,13-76.7-13.11-267.89-13.11-267.89l-59.85,26.48s-13.76,143.59-30.86,144.84-116.34-137.81-116.34-137.81Z"/><path class="cls-10" d="M1109.51,1126.13c8.35-8,13.76-16.41,12.79-21.5-8.86-46.36-64.37,15.39-64.37,15.39s-.16.43-.39,1.18L1059,1120S1082.93,1145.88,1109.51,1126.13Z"/><path class="cls-11" d="M1062.45,1146c14.24,3.76,34.16-7.52,47.06-19.87-26.58,19.75-50.49-6.11-50.49-6.11l-1.48,1.18C1056.09,1125.9,1051.58,1143.12,1062.45,1146Z"/><path class="cls-10" d="M924.67,1120h0s-93.52-59.78-91.88-15.39c.56,14.94,9.3,26.1,20.92,34.21C853.71,1138.84,909.65,1158.39,924.67,1120Z"/><path class="cls-11" d="M915.25,1157c15.59-7.12,9.42-37,9.42-37-15,38.37-71,18.82-71,18.82C876.64,1154.86,910.76,1159,915.25,1157Z"/><polygon class="cls-12" points="918.63 450.93 918.63 450.93 918.63 450.93 918.63 450.93"/><polygon class="cls-5" points="861.41 683.82 846.53 649.13 859.36 604.16 846.53 649.13 861.41 683.82"/><rect class="cls-5" x="883.55" y="572.08" height="164.37" transform="translate(-32.48 46.31) rotate(-2.95)"/><path class="cls-5" d="M817.78,643.75c-3.69-29.76,10.05-34,35.91-114.44,21.93-68.25,53.38-77.11,62.42-78.23-17.76,1.55-39.21,13-50.21,23.49C831.06,507.79,777.52,604,783.09,651.78c5.42,46.44,103.15,129.05,103.15,129.05l1.25-36.23-.57,16S822,677.44,817.78,643.75Z"/><path class="cls-5" d="M1059.43,471.28c-4.77-4.29-9.66-8.87-14.69-12.66,11.89,9.53,26.08,29.42,36.81,70.69,21.27,81.77,57.29,81.32,53.6,111.08-4.18,33.69-67,116.22-67,116.22l-2.29-13.17,2.73,47.64s88-96,89.38-144.66C1159.29,598.12,1095.35,503.6,1059.43,471.28Z"/><path class="cls-5" d="M915.49,451.8l3.14-.87h0A20.82,20.82,0,0,0,915.49,451.8Z"/><polygon class="cls-5" points="1055.92 574.19 1055.92 574.19 1098.84 644.66 1098.79 644.8 1098.84 644.66 1055.92 574.19"/><path class="cls-5" d="M918.63,450.93l2.16,0C920.08,450.9,919.36,450.9,918.63,450.93Z"/><polygon class="cls-3" points="918.63 450.93 918.63 450.93 918.63 450.93 918.63 450.93"/><path class="cls-3" d="M1014.75,452.85c10.61-5.65,20.56-1.34,30,5.77-13-10.41-23.24-8.44-23.24-8.44l-100.71.73a29.33,29.33,0,0,1,10.43,1.94C949.71,460.32,996.87,462.38,1014.75,452.85Z"/><polygon class="cls-3" points="887.49 744.6 887.49 744.58 861.41 683.82 887.49 744.58 887.49 744.6"/><polygon class="cls-3" points="1098.79 644.8 1065.43 741.21 1065.82 743.44 1065.66 740.73 1098.79 644.8"/><polygon class="cls-3" points="1060.09 633.84 1055.92 574.19 1055.92 574.19 1060.09 633.84"/><polygon class="cls-3" points="859.36 604.16 879.32 572.19 879.32 572.19 859.36 604.16"/><path class="cls-3" d="M918.63,450.93a15.77,15.77,0,0,0-2.52.15c.85-.07,1.69-.13,2.52-.15Z"/><path class="cls-7" d="M1135.15,640.39c3.69-29.76-32.33-29.31-53.6-111.08-10.73-41.27-24.92-61.16-36.81-70.69-9.43-7.11-19.38-11.42-30-5.77-17.88,9.53-65,7.47-83.53,0a29.33,29.33,0,0,0-10.43-1.94l-2.16,0h0l-3.14.87a20.82,20.82,0,0,1,3.14-.87c-.83,0-1.67.08-2.52.15-9,1.12-40.49,10-62.42,78.23-25.86,80.44-39.6,84.68-35.91,114.44,4.17,33.69,69.14,116.86,69.14,116.86l.57-16v0l-26.08-60.76-14.88-34.68,12.83-45,20-32h0l8.46,164.15,43.1,24.27h104.53l28.85-27.12-4.17-99.65-4.17-59.65h0l42.92,70.47,0,.14-33.13,95.93.16,2.71,2.29,13.17S1131,674.08,1135.15,640.39Z"/><path class="cls-11" d="M957.59,353.13h0Z"/><path class="cls-4" d="M988.9,359.15a18.45,18.45,0,0,1-5.43-5.26l-.37-.51c-1.66-2.31-3.17-4.79-4.86-6.85a21.3,21.3,0,0,0-1.64-1.76,9,9,0,0,0-6.29-2.72,8,8,0,0,0-4.83,1.67,13.07,13.07,0,0,0-1,.82c-2.5,2.24-4.55,5.63-6.83,8.59h0a17.75,17.75,0,0,1-5.47,5.12c-20.91,11-40.39,26-40.39,55.64,0,39.68,26.21,71.84,58.55,71.84s58.55-32.16,58.55-71.84C1028.86,385,1008.93,370.56,988.9,359.15Z"/><path class="cls-13" d="M383.34,762.24s-142.9-19.16-188.75-33c-33.15-10-94-44.59-126.78-55.81-14.19-4.87-58.44.41-58.19-14.59.43-26,75.94-19.23,101.84-22,25.31-2.71,76.45-2,101.83,0,20.1,1.56,59.91,8.43,79.66,12.47,66.41,13.57,196.49,52.63,262.83,66.56,11.45,2.41,36,1.4,46.27,7,3.73,2,12,8.63,11.21,12.8-1,5.13-13.43,8.69-18.59,9.51-25.48,4.08-76.74-10.55-102-16-45.67-9.82-136.16-37.41-182.86-38.35-3.06-.06-11.43-1-12.07,2-5.6,26.39,90,59.6,90,59.6Z"/><path class="cls-12" d="M347.61,177.85s.27.35.81.92C347.91,178.17,347.61,177.85,347.61,177.85Z"/><path class="cls-4" d="M431,235.85l-16.25-31.47L397,198.17l-7.16-14.25s-5.83,5.81-17.59,5c0,0-3.11,12.33,16.26,31.69l-11.11,5.76,6.88,9.52Z"/><path class="cls-4" d="M389.82,183.92l-42.21-6.07s.3.32.81.92C351.66,182.21,364.81,193.54,389.82,183.92Z"/><path class="cls-3" d="M373.44,191.68c11.76.86,16.38-7.76,16.38-7.76-25,9.62-38.16-1.71-41.4-5.15,2.76,3.26,11.75,14.57,13.09,25.61l11,22.56,16-6.37C370.23,200.75,373.44,191.68,373.44,191.68Z"/><polygon class="cls-7" points="397.82 20.98 395.66 22.96 423.48 98.28 427.28 96.67 397.82 20.98"/><polygon class="cls-4" points="471.43 95.8 450.85 97.89 462.87 96.67 467.99 104.13 457.56 117.53 460.9 118.99 474.9 100.59 471.43 95.8"/><polygon class="cls-3" points="462.87 96.67 450.85 97.89 457.56 117.53 467.99 104.13 462.87 96.67"/><polygon class="cls-5" points="475.86 95.8 430.27 108.64 397.82 20.98 446.88 17.51 475.86 95.8"/><path class="cls-4" d="M410.82,77.56l-.25-7.8c-.82,2.14-3.44,4.95-3.63,6.81a15.53,15.53,0,0,0,1,6A4.85,4.85,0,0,0,410.82,77.56Z"/><path class="cls-4" d="M444.71,101.44s2.33-10.93,1.88-14.58c-.64-5.16-6.08-9.25-7.24-14.32-.62-2.69-1.08-2.81-.59-5.52.38-2.09,1.33-6.28,2.35-8.13.59-1.06,2.88-2.55,3.13-3.74a6.34,6.34,0,0,0-.38-2.83h0s-1.56-1.59-3.68,1.61-7.4,13.5-7.4,13.5S434.58,48,436.18,44c.48-1.21,2.95-3.07,2.85-4.37-.17-2.17-.82-3.29-1.69-3.79,0,0-2.23,1.28-4.34,6.77S424.56,64,424.56,64s-2-13.5-2.75-18.07a33.51,33.51,0,0,1-.63-7.05c.08-1.43,1.46-4.26,1-5.62a3.44,3.44,0,0,0-3-2.71,52.59,52.59,0,0,0-.73,15.18c1,7.19,1.94,13.65-.67,19.15a71,71,0,0,1-5.4-10c-.86-2.25-3.36-7.34-3.73-9.72-.26-1.65.32-5,0-6.67s-1.21-3.34-3-2.82c-3,3,.16,12.23,1.56,18.72s32.89,58.78,32.89,58.78l-7.35,1.71c.76,1.55,1.27,2.65,1.27,2.65h23.46Z"/><path class="cls-3" d="M407.29,54.39c-1.4-6.49-4.56-15.71-1.56-18.72A5.3,5.3,0,0,0,403.68,37c-1.56,1.47-.15,6.44,0,8.58A47.16,47.16,0,0,0,404.73,54c.73,3.31,6.17,13.17,6.09,14.7a3.45,3.45,0,0,1-.25,1l.25,7.8a4.85,4.85,0,0,1-2.86,5,49.74,49.74,0,0,0,6.42,12.36c2.46,3.26,10.2,7,12.84,10.06,1.55,1.82,4.09,6.79,5.61,9.9L444,112.19S408.69,60.88,407.29,54.39Z"/><path class="cls-3" d="M418.52,45.72a52.59,52.59,0,0,1,.73-15.18,4.45,4.45,0,0,0-3.07.8c-1.06.88-1,4-1,5.41a89.61,89.61,0,0,0-.3,9.26c.48,4.73,3,18.86,3,18.86C420.46,59.37,419.47,52.91,418.52,45.72Z"/><path class="cls-3" d="M437.34,35.88c-1.07-.6-2.48-.28-3.8.25s-2.61,3.47-3.2,4.79C429,44,427.5,50.69,427,54c-.35,2.42-2.45,10-2.45,10s6.32-15.84,8.44-21.34S437.34,35.88,437.34,35.88Z"/><path class="cls-3" d="M443.86,52.32h0c-.3-.87-.75-1.6-1.29-1.76-1-.29-3.18,1.2-3.81,2.09-2.32,3.24-6,14.78-6,14.78s5.29-10.3,7.4-13.5S443.86,52.32,443.86,52.32Z"/><polygon class="cls-12" points="487.29 221.56 495.46 221.57 460.9 125.51 487.29 221.56"/><path class="cls-10" d="M360.91,201.14c-9.82,1.94-17.94,7.91-24.18,11.7,10,7,41.55,8.88,41.55,8.88C366.68,214.75,360.91,201.14,360.91,201.14Z"/><path class="cls-10" d="M437.77,200.18c-8.6-.31-24.62-2.78-40.79-2,0,0,11.55,11.25,15,19l28.09-3.81Z"/><path class="cls-10" d="M481.45,101.58c-12.44-6.48-23.89,16-23.89,16A48.3,48.3,0,0,0,444,112.19c8.53,21.85,45.23,116.63,45.82,132,.68,17.41-120.18,36.08-120.18,36.08l6.28,148.2L342.52,424l33.42,13.58,116.12-41.61L480.54,273.71s66.57-10.14,73.63-28.57C568.56,207.57,481.45,101.58,481.45,101.58Zm5.84,120-26.39-96,34.56,96.06Z"/><path class="cls-11" d="M412,217.16l-33.71,4.56,34-3.83C412.21,217.65,412.1,217.4,412,217.16Z"/><path class="cls-11" d="M370,291.75s121.11,1.72,119.8-47.55c-.41-15.39-37.29-110.16-45.82-132-5.53-1.07-11.23-.43-13.82,5.34l8.35,82.68-.78,0,2.31,13.17L412,217.16c.11.24.22.49.31.73l-34,3.83s-31.59-1.85-41.55-8.88c-6.16,3.76-9.9,8.56-9.89,14.68L316.26,413.28,342.52,424l33.42,4.53s13.88-15.2,8.4-44.79c-2.14-11.57-9.21-50.52-9.71-62.27C374.28,313.37,370,291.75,370,291.75Z"/><path class="cls-10" d="M673.49,658.8c-9.43-6.57-50.61,5.39-78.82,30.68l18.59-3.05S623.14,703.86,673.49,658.8Z"/><path class="cls-11" d="M603.83,715c8.69,6.51,55.35-25,69.46-46.66,3-4.6,2.75-7.73.2-9.51-50.35,45.06-60.23,27.63-60.23,27.63l-18.59,3.05-.6.53S595.15,708.46,603.83,715Z"/><path class="cls-5" d="M613.26,686.43l-2.17,2A10.58,10.58,0,0,0,613.26,686.43Z"/><path class="cls-5" d="M615.77,672.65,492.06,395.92s-86,32.19-116.12,32.56c-5.86.07-15.91-2.12-26.11-4.85-.53,12.6-.7,28.07,1.15,35.23,8.55,33,66.2,119.38,66.2,119.38L346.69,710c5.12.47,11.67-.87,19.48-6.41,0,0,87.87-82.35,94.42-120C464.71,560,430.2,492.5,430.2,492.5L613.26,686.43C617.76,681,615.77,672.65,615.77,672.65Z"/><path class="cls-7" d="M351,458.86c-1.85-7.16-1.68-22.63-1.15-35.23-16.59-4.45-33.57-10.35-33.57-10.35s-3.23,38.64,0,51c8.69,33.21,67.32,119.68,67.32,119.68L333.71,703.61a20,20,0,0,0,13,6.41l70.49-131.78S359.53,491.9,351,458.86Z"/><polygon class="cls-10" points="613.26 686.43 613.26 686.43 613.26 686.43 613.26 686.43"/><path class="cls-7" d="M430.2,492.5,594.07,690c8.45,1.69,13.74.64,17-1.61l2.17-2h0Z"/><path class="cls-10" d="M383.34,762.24c16.6-3.36-17.17-58.63-17.17-58.63s-20.43-16.79-32.46,0h0S339.07,726.24,383.34,762.24Z"/><path class="cls-11" d="M373.77,760.55c4.23,1.67,7.35,2.14,9.57,1.69-44.27-36-49.62-58.59-49.63-58.63S338,746.45,373.77,760.55Z"/><path class="cls-11" d="M457.56,117.53l37.9,104h-8.17s3,8.54,2.55,22.64-11.66,18-11.66,18l2.36,11.47s38.67-6.38,52.43-13.38c0,0,26.65-9-63.58-154.16l-1.4-2A57.93,57.93,0,0,0,457.56,117.53Z"/><path class="cls-3" d="M410.82,68.74s2.65,14.89,4.63,17.64-4.63-8.82-4.63-8.82Z"/><path class="cls-4" d="M402.65,116.25c1.29,4.07,9.09,10.61,9.79,14.61,1.22,7-12.08,6.61-9.81,12.45C408,157.18,411.47,171,404,179.37c-4.18,4.72-16.64,6.62-21.73,8.24-21.6,6.86-47.48-14-57.83-46.52s-1.22-64.51,20.37-71.37S392.3,83.69,402.65,116.25Z"/><path class="cls-3" d="M401.6,122.68l-17.76-22.41s-9.67,7.84-20.81,11.2,20.32-4.64,20.32-4.64l15.43,23.81s-5.39.49-5.14,3.06-.25,4.28,2.82,5.32c0,0-.49-11.44,5.14-5.08,0,0,4.16-.49,6-1.47S401.6,122.68,401.6,122.68Z"/><path class="cls-3" d="M386.42,98.31a6.61,6.61,0,0,0,5.26-4.24s-3.23,6.51,0,10.12Z"/><ellipse class="cls-5" cx="380.64" cy="117.98" rx="1.14" ry="5.32" transform="translate(-15.6 160.42) rotate(-23.33)"/><path class="cls-5" d="M396.08,106.94c1,2.32,1.49,4.41,1.24,5.11-.05.11-3.7-5.08-3.86-5.5-.77-2.13-1-3.83-.54-4S394.91,104.25,396.08,106.94Z"/><path class="cls-6" d="M384.34,152.24s10.86,1.91,15.79-3.33,7.28.48,5.29,2.3c0,0,3.19,1.64.47,4.08S391.76,155.35,384.34,152.24Z"/><path class="cls-8" d="M911.76,391.5s50.5-57.45,119.75,0c0,0,4.92,94.24-61.2,94.24C900,485.74,911.76,391.5,911.76,391.5Z"/><ellipse class="cls-5" cx="991.51" cy="367.92" rx="1.73" ry="4.86" transform="translate(382.52 1232.55) rotate(-75.2)"/><ellipse class="cls-5" cx="948.62" cy="367.92" rx="4.86" ry="1.73" transform="translate(-60 234.04) rotate(-13.64)"/><path class="cls-8" d="M397.82,79.66s-19.95-30.48-55.32-27.4c-1,.36-56.09,20.25-26.24,130.38,31.41,6.53,38.63-14.09,38.63-14.09L347.22,109C389.15,99.83,397.82,79.66,397.82,79.66Z"/><path class="cls-6" d="M342.5,52.26a64.65,64.65,0,0,0-15.43,3.33c-44.94,15.36-42.23,120.52-10.81,127C286.41,72.51,341.48,52.62,342.5,52.26Z"/><path class="cls-3" d="M969.62,365.94l-2.38-18.54c-1-.43-7.65,7-8,8.08l9.67,10.5Z"/><path class="cls-3" d="M971.41,366l9.71-10.82c-.33-1.09-7-8.23-8-7.8L970.74,366C971,366,971.19,366,971.41,366Z"/><path class="cls-10" d="M1030.49,414.61a154.08,154.08,0,0,0,1-23.11c-69.25-57.45-119.75,0-119.75,0a144.69,144.69,0,0,0-.52,23.27C918.72,421.86,972.17,468.53,1030.49,414.61Z"/><path class="cls-11" d="M970.31,485.74c44.78,0,57-43.22,60.18-71.13-58.32,53.92-111.77,7.25-119.25.16C912.75,442.68,922.77,485.74,970.31,485.74Z"/><path class="cls-8" d="M893.41,920.37c-2.84-39.19,2.84-64.08,5.33-92.7s-11-91.33-11-91.33l-12.59,358.18C880.87,999.56,896.25,959.57,893.41,920.37Z"/><path class="cls-8" d="M924.67,1120l50.77-250s-28.17,60.67-30,105.47S921.14,1083.08,924.67,1120Z"/><path class="cls-8" d="M1065.43,823.62c20.48,44.8,18.1,119.46,19.35,150.57s8.09,94.58,12.19,115.35c11.61-101.82-32.71-356-32.71-356S1045,778.83,1065.43,823.62Z"/><path class="cls-8" d="M1027.54,975.44c-.63-16.18-41.34-105.65-41.34-105.65L1059,1120C1060.63,1077.94,1028.16,991.62,1027.54,975.44Z"/><path class="cls-7" d="M1064.26,733.49l-176.48,2.85S1009,771.74,1064.26,733.49Z"/><path class="cls-6" d="M1095.49,1099.94c.57-3.25,1.06-6.73,1.48-10.4-4.1-20.77-11-84.24-12.19-115.35s1.13-105.77-19.35-150.57-1.17-90.13-1.17-90.13c-55.23,38.25-176.48,2.85-176.48,2.85s13.45,62.71,11,91.33-8.17,53.51-5.33,92.7-12.54,79.19-18.22,174.15c0,31.78,49.48,50.88,49.48,25.5-3.53-36.94,18.87-99.78,20.74-144.58s30-105.47,30-105.47l10.76-.18s40.71,89.47,41.34,105.65,33.09,102.5,31.48,144.58C1080.05,1133.5,1093.7,1110.2,1095.49,1099.94Z"/><path class="cls-10" d="M1505.56,658h0c-15.94-11.28-12.08-32-3.93-50.35-9.69-10.08-18.42-20.7-18.42-20.7s-36.67,28.83-27.81,69.67c12.13,55.87,117.87,89.36,117.87,89.36-37,19.28-97.27,86.15-97.27,86.15s.07,11.59,11,15.66c24.58-21.49,117.78-101.63,153.17-112.52C1597.43,725.84,1505.56,658,1505.56,658Z"/><path class="cls-10" d="M1703.1,753.22c2.08-3.52,2.45-12.11,2.25-16.19-.19-3.82-2.35-11.23-3.6-14.84-.88-2.57-2.71-7.85-4.5-9.89C1679,691.35,1627.59,670,1603.16,653c-4.14,1.85-8.47,3.58-13,5.16,17.4,7.78,92.7,42.71,99.85,67.69,8.09,28.27-79.69,61.16-79.69,61.16l-48.88,47s2.5,10.82,21.07,15.17a42.72,42.72,0,0,0,5.2.87c18.53-16.6,64.76-57.87,83.41-73C1678.92,770.78,1698,761.79,1703.1,753.22Z"/><path class="cls-10" d="M1619.94,650.32l24.15,12.27C1633.94,657.15,1625.26,652.87,1619.94,650.32Z"/><path class="cls-11" d="M1505.57,658c5.22,3.69,12.56,6.37,22.58,7.61,22.55,2.78,43.66-1,62.06-7.42-2.28-1-3.57-1.57-3.57-1.57Z"/><path class="cls-11" d="M1619.94,650.32l-5.53-2.81-.07.17S1616.4,648.62,1619.94,650.32Z"/><path class="cls-11" d="M1528.15,665.57c-10-1.24-17.36-3.92-22.58-7.61h0s91.87,67.88,134.59,77.27c-35.39,10.89-128.59,91-153.17,112.52,1.33.49,2.72,1,4.19,1.4,11.2,3.28,17.69,0,17.69,0L1610.37,787s87.78-32.89,79.69-61.16c-7.15-25-82.45-59.91-99.85-67.69C1571.81,664.62,1550.7,668.35,1528.15,665.57Z"/><path class="cls-11" d="M1724.27,731.27c-1.28-22.58-48.07-51.45-80.18-68.68l-24.15-12.27c-3.54-1.7-5.6-2.64-5.6-2.64l.07-.17,13.18-31.77s-58.64,31.94-106.24,8.77c-5.08-2.47-12.65-9.54-19.71-16.9-8.15,18.32-12,39.07,3.93,50.35l81.07-1.38s1.29.55,3.57,1.57c4.48-1.58-4.14,1.85,0,0,29.73,3.39,88.76,33.2,107,54.15,1.79,2,3.62,7.32,4.5,9.89,1.25,3.61,3.41,11,3.6,14.84.2,4.08-.17,12.67-2.25,16.19-5.07,8.57-24.18,17.56-31.93,23.83-18.65,15.1-64.88,56.37-83.41,73a35.85,35.85,0,0,0,13.34-.87S1726.68,773.83,1724.27,731.27Z"/><path class="cls-4" d="M1603.8,459.25a2.28,2.28,0,0,0-1.31-.37c-1.46,0-3.48,2.75-4.3,4-4.67,7-10.56,25.14-10.56,25.14l-.19,6.66S1605.79,461.39,1603.8,459.25Z"/><path class="cls-4" d="M1585.32,458.8l.58.08A3.85,3.85,0,0,0,1585.32,458.8Z"/><path class="cls-4" d="M1568.91,504.79c1.16-16.56,7.27-12.11,7.27-12.11s2.83-3.27,5.22-1.74a5.64,5.64,0,0,1,2.62,3.92s5.23-35.93,1.3-36.06a4.14,4.14,0,0,0-1.16.08c-1.24.3-1.76,3.41-2.15,4.63-2.07,6.57-5.4,24.32-5.4,24.32a21.64,21.64,0,0,0-3.42-.74,4.63,4.63,0,0,0-3.12,1.14s-3.71-1-5.81.3c-1.48.93-1.5,3.51-2,5.2-1.17,4.34-.62,14-2.8,17.94-.82,1.48-6.65,3.92-6.65,3.92l6.75,21.43-2.83-9S1567.74,521.34,1568.91,504.79Z"/><polygon class="cls-3" points="1585.32 458.8 1585.32 458.8 1585.32 458.8 1585.32 458.8"/><path class="cls-3" d="M1592.34,523.31c3.15-5.89,3.44-26.33,3.44-26.33s6.08-25.11,9-33.14c0,0,.67-3.45-1-4.59,2,2.14-16.36,35.4-16.36,35.4l.19-6.66s0-14.58.66-25.8a2.85,2.85,0,0,0-2.39-3.31l-.58-.08h0c3.93.13-1.3,36.06-1.3,36.06a5.64,5.64,0,0,0-2.62-3.92c-2.39-1.53-5.22,1.74-5.22,1.74s-6.11-4.45-7.27,12.11S1556.78,528,1556.78,528l2.83,9s19.83-4.37,25.8-7.11A20.09,20.09,0,0,0,1592.34,523.31Z"/><polygon class="cls-5" points="1897.03 482.71 1858.44 482 1875.84 392 1914.43 392.71 1897.03 482.71"/><polygon class="cls-7" points="1900.34 482.71 1861.74 482 1879.14 392 1917.74 392.71 1900.34 482.71"/><path class="cls-4" d="M1903.5,471.2l.26-8.24c.87,2.26,3.63,5.23,3.83,7.2a16.23,16.23,0,0,1-1.07,6.32A5.12,5.12,0,0,1,1903.5,471.2Z"/><path class="cls-4" d="M1865.78,487.56a23.4,23.4,0,0,1,0-6.54c.67-5.45,4.37-7.24,5.6-12.59.66-2.84,3-6.31,2.45-9.18-.39-2.19-1.4-6.62-2.48-8.57-.62-1.13-2-2.56-2.25-3.82-.14-.68-1-2.06-.65-3.12h0s2-1.77,4.23,1.61,7.46,14.34,7.46,14.34-.45-17.24-2.14-21.44c-.51-1.28-3.12-3.25-3-4.62.18-2.29.86-3.47,1.79-4,0,0,2.35,1.35,4.58,7.15s8.35,16.79,8.35,16.79,1.43-10.95,2.23-15.78a35.09,35.09,0,0,0,.66-7.44c-.08-1.5-1.53-4.49-1.1-5.93a3.64,3.64,0,0,1,3.14-2.86,55.4,55.4,0,0,1,.77,16c-1,7.58-1.52,10.93,1.23,16.73a18.58,18.58,0,0,0,5.18-7.07c.9-2.37,3.55-7.75,3.94-10.26.28-1.73-.34-5.31,0-7s1.27-3.53,3.15-3c3.17,3.17-.17,12.91-1.64,19.76s-32.43,55-32.43,55l7.76,1.81c-.8,1.64-1.34,2.79-1.34,2.79s-11.82,3.8-14.85,1.62c-2.29-1.65-2.2-11.65-2.2-11.65Z"/><path class="cls-3" d="M1907.23,446.74c1.47-6.85,4.81-16.59,1.64-19.76a5.53,5.53,0,0,1,2.17,1.4c1.65,1.55.16,6.79,0,9.05a49.67,49.67,0,0,1-1.11,8.94c-.77,3.5-6.51,13.9-6.43,15.52a3.87,3.87,0,0,0,.26,1.07l-.26,8.24a5.12,5.12,0,0,0,3,5.28,52.51,52.51,0,0,1-6.78,13c-2.59,3.43-10.77,7.33-13.55,10.61-1.63,1.92-3.15,2.32-4.76,5.6,0,0-12.92,4.81-14.85,1.61C1856.18,490.05,1905.75,453.58,1907.23,446.74Z"/><path class="cls-3" d="M1895.37,437.59c1.15-7.31-.66-15.48-.77-16a4.66,4.66,0,0,1,3.24.85c1.12.92,1,4.26,1.1,5.71.09,2.43.56,7.35.32,9.77-.51,5-3.93,24.2-3.93,24.2C1896.33,453,1892.43,456.35,1895.37,437.59Z"/><path class="cls-3" d="M1876.74,429.63c1.12-.64,2.61-.29,4,.26s2.75,3.67,3.37,5.06a128.85,128.85,0,0,1,5.55,18.62,19.19,19.19,0,0,1-.67,6.33s-1.17-6.67-7.68-23.12C1879,431,1876.74,429.63,1876.74,429.63Z"/><path class="cls-3" d="M1868.41,443.74h0c.32-.91.79-1.69,1.36-1.85a3.49,3.49,0,0,1,3.33,1.35c2.45,3.42,9.48,23,9.48,23s-5.32-9.33-10.29-20.77C1871.24,443,1868.41,443.74,1868.41,443.74Z"/><path class="cls-6" d="M1559.61,537l-2.83-9s-38.69,20.34-58.85,24.69c-19.37,4.18-31.22-10.6-32.12-11.78-.1,1.44-.16,2.86-.16,4.26a15.82,15.82,0,0,0,.21,2.6,2.74,2.74,0,0,1,.05.28c0,.23.09.45.14.67v0c1.89,8,10.22,13.81,21.51,15.43C1513.39,566.24,1559.61,537,1559.61,537Z"/></g></g></svg>