<?xml version="1.0" encoding="UTF-8"?>
<svg width="70px" height="67px" viewBox="0 0 70 67" version="1.1" xmlns="http://www.w3.org/2000/svg" xmlns:xlink="http://www.w3.org/1999/xlink">
    <title>award1</title>
    <g id="award1" stroke="none" stroke-width="1" fill="none" fill-rule="evenodd">
        <g id="logo_dall" transform="translate(3.000000, 2.000000)" fill-rule="nonzero">
            <g id="Form_8">
                <path d="M56.3333333,43.0223684 C58.8333333,35.3131579 56.5,27.0236842 54.0833333,19.3144737 C55.1666667,18.9828947 56.0833333,20.1434211 56.5833333,21.1381579 C61.1666667,30.3394737 61.6666667,42.1934211 55.5,50.4 C53,53.55 49.9166667,56.1197368 46.3333333,57.9434211 C36.8333333,62.9171053 25.6666667,63.5802632 15.75,59.6842105 C11.4166667,57.9434211 7.33333333,55.3736842 4.58333333,51.5605263 C1.66666667,47.3328947 0.583333333,42.0276316 0.833333333,36.8881579 C1.25,29.6763158 4,22.7131579 8.75,17.2421053 C13.5,11.6881579 20,7.95789474 27.1666667,6.63157895 C31.3333333,5.88552632 35.9166667,5.96842105 39.6666667,8.04078947 C43.4166667,10.1131579 46.0833333,14.4236842 45.25,18.5684211 C45.0833333,19.6460526 43.3333333,19.5631579 42.6666667,18.7342105 C42,17.9052632 41.9166667,16.7447368 41.75,15.6671053 C41.0833333,12.6828947 38.5833333,10.3618421 35.6666667,9.36710526 C32.6666667,8.53815789 29.5833333,8.45526316 26.5833333,9.28421053 C11.5,13.0144737 2,27.9355263 5.33333333,43.0223684 C5.91666667,46.0894737 7.25,49.0736842 9.16666667,51.5605263 C13,56.4513158 19.4166667,58.5236842 25.5833333,59.1868421 C31.75,59.85 38.3333333,59.1039474 43.9166667,56.4513158 C49.5,53.7986842 54.4166667,48.9078947 56.3333333,43.0223684 L56.3333333,43.0223684 Z" id="Path" fill="#D8D8D8"></path>
                <path d="M50.3333333,3.15 C50.8333333,2.48684211 51.5,1.98947368 52.1666667,1.575 C54.6666667,-1.12132525e-14 57.8333333,-0.414473684 60.5833333,0.663157895 C63.3333333,1.82368421 65.25,4.80789474 64.6666667,7.70921053 C64.1666667,9.69868421 62.8333333,11.2736842 60.9166667,12.1026316 C59,12.8486842 56.9166667,12.9315789 55,12.2684211 C54.1666667,12.0197368 53.25,12.5171053 52.3333333,12.4342105 C51.3333333,12.1855263 50.5,11.4394737 50.1666667,10.4447368 C49.1666667,8.12368421 48.75,5.13947368 50.3333333,3.15 M61.6666667,8.95263158 C63.3333333,7.04605263 62.5,3.64736842 60.3333333,2.32105263 C58.1666667,0.994736842 55.1666667,1.32631579 53.0833333,2.81842105 C52.5,3.23289474 52.0833333,3.73026316 51.6666667,4.31052632 C51.4166667,4.89078947 51.1666667,5.47105263 51.0833333,6.13421053 C50.9166667,7.29473684 50.9166667,8.62105263 51.75,9.36710526 C52.25,9.69868421 52.75,9.94736842 53.3333333,10.0302632 C54.75,10.4447368 56.1666667,10.6105263 57.6666667,10.6105263 C59.25,10.6105263 60.6666667,10.0302632 61.6666667,8.95263158 L61.6666667,8.95263158 Z" id="Shape" fill="#B2B2B2"></path>
            </g>
            <path d="M22.5,43 C22.75,43 23,43.3373494 23,43.6746988 C23,44.0120482 22.75,44.3493976 22.5,44.3493976 C22.25,44.3493976 22,44.0120482 22,43.6746988 C22,43.5060241 22.0625,43.3373494 22.125,43.253012 C22.25,43.0843373 22.375,43 22.5,43 Z M22.125,45.6987952 C22.125,45.5301205 22.1875,45.4457831 22.25,45.2771084 C22.375,45.1927711 22.4375,45.1084337 22.5625,45.1927711 C22.625,45.1927711 22.75,45.1927711 22.8125,45.1927711 L22.9375,45.2771084 L22.9375,50 L22.125,50 L22.125,45.6987952 Z" id="Shape" fill="#FFFFFF"></path>
            <path d="M24,47.0491803 C24,46.8032787 24.0892857,46.4754098 24.1785714,46.2295082 C24.2678571,45.9836066 24.4464286,45.7377049 24.7142857,45.5737705 C24.9821429,45.4098361 25.25,45.2459016 25.5178571,45.1639344 C25.875,45.0819672 26.1428571,45 26.5,45 C26.8571429,45 27.2142857,45.0819672 27.4821429,45.1639344 C27.75,45.2459016 28.0178571,45.4098361 28.2857143,45.5737705 C28.4642857,45.7377049 28.6428571,45.9836066 28.8214286,46.2295082 C28.9107143,46.4754098 29,46.8032787 29,47.0491803 L29,49.9180328 L27.8392857,49.9180328 L27.8392857,47.3770492 C27.8392857,47.0491803 27.75,46.6393443 27.4821429,46.3934426 C26.9464286,45.9836066 26.0535714,45.9836066 25.5178571,46.3934426 C25.25,46.6393443 25.1607143,47.0491803 25.1607143,47.3770492 L25.1607143,50 L24,50 L24,47.0491803 L24,47.0491803 Z" id="Path" fill="#FFFFFF"></path>
            <path d="M30.0769231,44.5725938 C30.0769231,44.3940548 30.1538462,44.3047852 30.2307692,44.1262462 C30.3076923,44.0369767 30.4615385,43.9477071 30.6153846,44.0369767 C30.6923077,44.0369767 30.8461538,44.0369767 30.9230769,44.0369767 L31.0769231,44.1262462 L31.0769231,45.4652891 L32.3846154,45.4652891 C32.5384615,45.4652891 32.6923077,45.4652891 32.7692308,45.6438282 C32.8461538,45.7330977 32.9230769,45.9116368 32.9230769,46.0901758 C32.9230769,46.1794454 32.9230769,46.2687149 32.8461538,46.447254 C32.8461538,46.5365235 32.7692308,46.625793 32.7692308,46.625793 L31.0769231,46.625793 L31.0769231,48.9468008 C31.0769231,49.1253399 31.0769231,49.2146094 31.1538462,49.3931485 C31.1538462,49.482418 31.2307692,49.5716875 31.3076923,49.660957 C31.3846154,49.7502266 31.4615385,49.7502266 31.5384615,49.8394961 C31.6153846,49.8394961 31.7692308,49.8394961 31.8461538,49.8394961 C32,49.8394961 32.1538462,49.8394961 32.3076923,49.7502266 C32.3846154,49.7502266 32.5384615,49.660957 32.6153846,49.5716875 L33,50.3751133 L32.7692308,50.5536523 C32.6923077,50.6429219 32.5384615,50.6429219 32.4615385,50.7321914 C32.3076923,50.8214609 32.1538462,50.8214609 32.0769231,50.9107305 C31.9230769,50.9107305 31.7692308,51 31.5384615,51 C31.0769231,51 30.6923077,50.9107305 30.3846154,50.5536523 C30.0769231,50.1965742 30,49.7502266 30,49.3038789 L30.0769231,44.5725938 Z" id="Path" fill="#FFFFFF"></path>
            <path d="M34,49.5 C34,49.4444444 34,49.3888889 34.0555556,49.3333333 C34.0555556,49.2777778 34.1111111,49.2222222 34.1666667,49.1666667 C34.2222222,49.1111111 34.2777778,49.1111111 34.3333333,49.0555556 C34.3888889,49.0555556 34.4444444,49 34.5,49 C34.7777778,49 35,49.2222222 35,49.5 C35,49.5 35,49.5 35,49.5 C35,49.5555556 35,49.6111111 34.9444444,49.6666667 C34.9444444,49.7222222 34.8888889,49.7777778 34.8333333,49.8333333 C34.7777778,49.8888889 34.7222222,49.9444444 34.6666667,49.9444444 C34.6111111,49.9444444 34.5555556,50 34.5,50 C34.3888889,50 34.2222222,49.9444444 34.1666667,49.8333333 C34.0555556,49.7777778 34,49.6111111 34,49.5 Z" id="Path" fill="#FFFFFF"></path>
            <path d="M21.6428571,27.9710983 C21.6428571,27.7283237 21.7301587,27.4046243 21.9920635,27.2427746 C22.2539683,27.0809249 22.515873,27 22.8650794,27 C23.1269841,27 23.3015873,27 23.5634921,27.0809249 L24,27.2427746 L24,35.6589595 C24,36.4682081 23.9126984,37.2774566 23.5634921,38.0057803 C23.3015873,38.6531792 22.952381,39.2196532 22.4285714,39.7052023 C21.9047619,40.1907514 21.3809524,40.5144509 20.6825397,40.6763006 C19.984127,40.9190751 19.2857143,41 18.5,41 C17.7142857,41 17.015873,40.9190751 16.3174603,40.5953757 C15.7063492,40.3526012 15.0952381,40.0289017 14.5714286,39.5433526 C14.047619,39.0578035 13.6984127,38.5722543 13.4365079,37.9248555 C13.1746032,37.2774566 13,36.6300578 13,35.9017341 C13,35.2543353 13.1746032,34.5260116 13.4365079,33.9595376 C13.6984127,33.3930636 14.047619,32.8265896 14.484127,32.3410405 C14.9206349,31.9364162 15.531746,31.5317919 16.1428571,31.2890173 C16.7539683,31.0462428 17.452381,30.8843931 18.2380952,30.8843931 C18.9365079,30.8843931 19.6349206,31.0462428 20.3333333,31.2890173 C20.8571429,31.5317919 21.3809524,31.8554913 21.7301587,32.3410405 L21.7301587,27.9710983 L21.6428571,27.9710983 Z M21.6428571,36.0635838 C21.6428571,35.6589595 21.5555556,35.2543353 21.3809524,34.849711 C21.2063492,34.5260116 21.031746,34.2023121 20.7698413,33.8786127 C20.5079365,33.6358382 20.1587302,33.3930636 19.8095238,33.2312139 C19.0238095,32.9075145 18.0634921,32.9075145 17.2777778,33.2312139 C16.9285714,33.3930636 16.5793651,33.6358382 16.3174603,33.8786127 C16.0555556,34.1213873 15.7936508,34.4450867 15.7063492,34.849711 C15.531746,35.2543353 15.4444444,35.6589595 15.531746,36.0635838 C15.531746,36.4682081 15.6190476,36.8728324 15.7063492,37.2774566 C15.7936508,37.6011561 16.0555556,38.0057803 16.3174603,38.2485549 C16.9285714,38.8150289 17.7142857,39.1387283 18.5873016,39.1387283 C19.0238095,39.1387283 19.4603175,39.0578035 19.8968254,38.8959538 C20.2460317,38.734104 20.5952381,38.5722543 20.8571429,38.2485549 C21.1190476,38.0057803 21.3809524,37.6820809 21.5555556,37.3583815 C21.5555556,36.9537572 21.6428571,36.5491329 21.6428571,36.0635838 L21.6428571,36.0635838 Z" id="Shape" fill="#FFFFFF"></path>
            <path d="M34.6491228,40.75 L34.0350877,40.8333333 L32.9824561,40.9166667 L31.6666667,41 C31.1403509,41 30.7017544,41 30.1754386,41 C29.2982456,41 28.4210526,40.9166667 27.5438596,40.75 C26.9298246,40.5833333 26.4035088,40.4166667 25.9649123,40.0833333 C25.6140351,39.8333333 25.3508772,39.5 25.1754386,39.0833333 C25,38.75 25,38.3333333 25,37.9166667 C25,37.4166667 25.0877193,37 25.2631579,36.5 C25.4385965,36.0833333 25.7017544,35.75 26.1403509,35.5 C26.5789474,35.1666667 27.1052632,35 27.6315789,34.9166667 C28.4210526,34.75 29.2105263,34.75 29.9122807,34.75 C30.4385965,34.75 30.877193,34.75 31.4035088,34.8333333 L32.4561404,34.9166667 C32.4561404,34.5 32.3684211,34.1666667 32.1929825,33.8333333 C32.0175439,33.5833333 31.8421053,33.3333333 31.5789474,33.1666667 C31.3157895,33 30.9649123,32.8333333 30.6140351,32.8333333 C30.1754386,32.75 29.7368421,32.75 29.3859649,32.75 C28.7719298,32.75 28.1578947,32.8333333 27.5438596,33 C27.1929825,33.0833333 26.9298246,33.25 26.6666667,33.4166667 C26.5789474,33.3333333 26.4035088,33.1666667 26.3157895,33.0833333 C26.1403509,32.9166667 26.0526316,32.6666667 26.1403509,32.4166667 C26.1403509,32.25 26.2280702,32.0833333 26.3157895,31.9166667 C26.4035088,31.75 26.6666667,31.5833333 26.8421053,31.4166667 C27.1929825,31.25 27.5438596,31.1666667 27.8947368,31.0833333 C28.4210526,31 29.0350877,31 29.5614035,31 C30.2631579,31 31.0526316,31.0833333 31.754386,31.25 C32.3684211,31.4166667 32.8947368,31.5833333 33.4210526,32 C33.8596491,32.3333333 34.2982456,32.75 34.5614035,33.25 C34.8245614,33.8333333 35,34.5 35,35.1666667 L35,40.75 L34.6491228,40.75 Z M32.3684211,36.5 L31.5789474,36.4166667 C31.0526316,36.3333333 30.4385965,36.3333333 29.9122807,36.3333333 C29.2105263,36.25 28.5087719,36.4166667 27.8947368,36.75 C27.4561404,37 27.1929825,37.5 27.2807018,38 C27.2807018,38.25 27.2807018,38.4166667 27.4561404,38.6666667 C27.5438596,38.8333333 27.7192982,39 27.8947368,39.1666667 C28.1578947,39.3333333 28.4210526,39.4166667 28.7719298,39.5 C29.2105263,39.5833333 29.7368421,39.5833333 30.1754386,39.5833333 C30.7017544,39.5833333 31.1403509,39.5833333 31.6666667,39.5 L32.3684211,39.4166667 L32.3684211,36.5 Z" id="Shape" fill="#FFFFFF"></path>
            <path d="M37,27.9824561 C37,27.6549708 37.0740741,27.4093567 37.2962963,27.245614 C37.5185185,27.0818713 37.7407407,27 38.037037,27 C38.2592593,27 38.4074074,27 38.6296296,27.0818713 L39,27.245614 L39,41 L37.0740741,41 L37.0740741,27.9824561 L37,27.9824561 Z" id="Path" fill="#FFFFFF"></path>
            <path d="M42,27.9824561 C42,27.6549708 42.0740741,27.4093567 42.2962963,27.245614 C42.5185185,27.0818713 42.7407407,27 43.037037,27 C43.2592593,27 43.4074074,27 43.6296296,27.0818713 L44,27.245614 L44,41 L42.0740741,41 L42.0740741,27.9824561 L42,27.9824561 Z" id="Path" fill="#FFFFFF"></path>
        </g>
    </g>
</svg>