<?xml version="1.0" encoding="UTF-8"?>
<svg width="31px" height="30px" viewBox="0 0 31 30" version="1.1" xmlns="http://www.w3.org/2000/svg" xmlns:xlink="http://www.w3.org/1999/xlink">
    <title>bluf</title>
    <g id="Page-1" stroke="none" stroke-width="1" fill="none" fill-rule="evenodd">
        <g id="HOME" transform="translate(-26.000000, -6793.000000)" fill="#18335B" fill-rule="nonzero">
            <path d="M43.921875,6823 C51.3318481,6821.86693 57,6815.62355 57,6808.09128 C57,6799.75456 50.0625,6793 41.5,6793 C32.9375,6793 26,6799.75456 26,6808.09128 C26,6815.62355 31.6681519,6821.86693 39.078125,6823 L39.078125,6812.45378 L35.140625,6812.45378 L35.140625,6808.09128 L39.078125,6808.09128 L39.078125,6804.76635 C39.078125,6800.98438 41.390625,6798.89533 44.9324951,6798.89533 C46.6287231,6798.89533 48.4025269,6799.18984 48.4025269,6799.18984 L48.4025269,6802.90181 L46.4475098,6802.90181 C44.522522,6802.90181 43.921875,6804.0653 43.921875,6805.25863 L43.921875,6808.09128 L48.2206421,6808.09128 L47.5331421,6812.45378 L43.921875,6812.45378 L43.921875,6823 Z" id="bluf"></path>
        </g>
    </g>
</svg>