<?xml version="1.0" encoding="UTF-8"?>
<svg width="28px" height="27px" viewBox="0 0 28 27" version="1.1" xmlns="http://www.w3.org/2000/svg" xmlns:xlink="http://www.w3.org/1999/xlink">
    <title>blui</title>
    <g id="Page-1" stroke="none" stroke-width="1" fill="none" fill-rule="evenodd">
        <g id="HOME" transform="translate(-121.000000, -6794.000000)" fill="#18335B" fill-rule="nonzero">
            <path d="M140.774895,6820.90513 C143.017419,6820.80269 145.0038,6820.30865 146.640399,6818.72415 C148.276938,6817.14565 148.789165,6815.22979 148.90159,6813.06687 C149.032803,6810.83771 149.032803,6804.16228 148.90159,6801.93311 C148.795448,6799.7702 148.283221,6797.85434 146.640399,6796.27583 C145.0038,6794.69739 143.017419,6794.20335 140.774895,6794.09492 C138.463683,6793.96836 131.536271,6793.96836 129.225059,6794.09492 C126.988818,6794.19729 125.002438,6794.69133 123.359616,6796.26983 C121.716794,6797.84833 121.210789,6799.7642 121.098364,6801.92711 C120.967212,6804.15628 120.967212,6810.83771 121.098364,6813.06687 C121.204567,6815.22979 121.716794,6817.14565 123.359616,6818.72415 C125.002438,6820.30265 126.982596,6820.79663 129.225059,6820.90513 C131.536271,6821.03162 138.463683,6821.03162 140.774895,6820.90513 Z M135.309369,6818.56847 L135.003088,6818.56747 C132.966748,6818.56747 128.587963,6818.72415 126.751463,6818.02524 C125.52717,6817.55532 124.583909,6816.64561 124.090471,6815.45872 C123.359616,6813.68141 123.528284,6809.46407 123.528284,6807.50002 C123.528284,6805.53591 123.365838,6801.31258 124.090471,6799.54127 C124.577687,6798.36044 125.520887,6797.45066 126.751463,6796.97474 C128.594186,6796.26983 132.966748,6796.43251 135.003088,6796.43251 C137.03949,6796.43251 141.418274,6796.27583 143.254775,6796.97474 C144.479068,6797.44466 145.422328,6798.35438 145.915767,6799.54127 C146.611819,6801.23394 146.491977,6805.13979 146.478985,6807.20461 L146.477953,6807.50002 C146.477953,6809.46407 146.646621,6813.68741 145.915767,6815.45872 C145.42855,6816.63955 144.485351,6817.54932 143.254775,6818.02524 C141.499801,6818.69658 137.450187,6818.581 135.309369,6818.56847 L135.309369,6818.56847 Z M142.47396,6801.90899 C143.398432,6801.90899 144.148014,6801.19208 144.148014,6800.29437 C144.148014,6799.40271 143.398432,6798.67974 142.47396,6798.67974 C141.549487,6798.67974 140.799905,6799.40271 140.799905,6800.29437 C140.799905,6801.18602 141.543204,6801.90899 142.47396,6801.90899 Z M135.003088,6814.42244 C138.97591,6814.42244 142.180361,6811.33175 142.180361,6807.50002 C142.180361,6803.66824 138.97591,6800.57754 135.003088,6800.57754 C131.030327,6800.57754 127.825876,6803.66824 127.825876,6807.50002 C127.825876,6811.33175 131.030327,6814.42244 135.003088,6814.42244 Z M135.003088,6812.00048 C132.435794,6812.00048 130.336988,6809.98218 130.336988,6807.50002 C130.336988,6805.01781 132.429572,6802.99951 135.003088,6802.99951 C137.576666,6802.99951 139.669249,6805.01781 139.669249,6807.50002 C139.669249,6809.98218 137.570444,6812.00048 135.003088,6812.00048 Z" id="blui"></path>
        </g>
    </g>
</svg>