<?xml version="1.0" encoding="UTF-8"?>
<svg width="28px" height="27px" viewBox="0 0 28 27" version="1.1" xmlns="http://www.w3.org/2000/svg" xmlns:xlink="http://www.w3.org/1999/xlink">
    <title>blul</title>
    <g id="Page-1" stroke="none" stroke-width="1" fill="none" fill-rule="evenodd">
        <g id="HOME" transform="translate(-75.000000, -6794.000000)" fill="#18335B" fill-rule="nonzero">
            <path d="M101,6821 C102.099976,6821 103,6820.12612 103,6819.05336 L103,6795.94664 C103,6794.87388 102.099976,6794 101,6794 L76.9937744,6794 C75.8937378,6794 75,6794.87388 75,6795.94664 L75,6819.05336 C75,6820.12612 75.8937378,6821 76.9937744,6821 L101,6821 Z M81.3875122,6802.49777 C80.0562744,6802.49777 78.9812622,6801.45515 78.9812622,6800.17746 C78.9812622,6798.89977 80.0562744,6797.85714 81.3875122,6797.85714 C82.7125244,6797.85714 83.7937622,6798.89977 83.7937622,6800.17746 C83.7937622,6801.46115 82.71875,6802.49777 81.3875122,6802.49777 Z M90.21875,6817.14286 L86.0687256,6817.14286 L86.0687256,6804.2576 L90.0499878,6804.2576 L90.0499878,6806.01743 L90.1062622,6806.01743 C90.6624756,6805.00489 92.0187378,6803.93819 94.0374756,6803.93819 C98.2374878,6803.93819 99.0187378,6806.60805 99.0187378,6810.07945 L99.0187378,6817.14286 L94.8687744,6817.14286 L94.8687744,6810.875 C94.8687744,6809.38037 94.8375244,6807.4578 92.7125244,6807.4578 C90.5499878,6807.4578 90.21875,6809.08503 90.21875,6810.76653 L90.21875,6817.14286 Z M83.46875,6817.14286 L79.3125,6817.14286 L79.3125,6804.2576 L83.46875,6804.2576 L83.46875,6817.14286 Z" id="blul"></path>
        </g>
    </g>
</svg>