<?xml version="1.0" encoding="UTF-8"?>
<svg width="28px" height="27px" viewBox="0 0 28 27" version="1.1" xmlns="http://www.w3.org/2000/svg" xmlns:xlink="http://www.w3.org/1999/xlink">
    <title>blus</title>
    <g id="Page-1" stroke="none" stroke-width="1" fill="none" fill-rule="evenodd">
        <g id="HOME" transform="translate(-216.000000, -6794.000000)" fill="#18335B" fill-rule="nonzero">
            <path d="M236.998365,6821 C240.861697,6821 243.999948,6817.97387 243.999948,6814.2485 C244.006122,6812.70526 243.462241,6811.28265 242.549566,6810.14331 C242.730819,6809.29937 242.843392,6808.40122 242.843392,6807.503 C242.843392,6800.66108 237.098362,6795.12727 230.009288,6795.12727 C229.077871,6795.12727 228.152681,6795.22976 227.271202,6795.41061 C226.083442,6794.52446 224.608144,6794 223.001531,6794 C219.138198,6794 216,6797.02613 216,6800.7515 C216,6802.30074 216.543881,6803.72336 217.456556,6804.86269 C217.275303,6805.70663 217.16273,6806.60479 217.16273,6807.503 C217.16273,6814.34493 222.90776,6819.87873 229.996834,6819.87873 C230.928251,6819.87873 231.853441,6819.77624 232.73492,6819.5954 C233.92268,6820.47554 235.397978,6821 236.998365,6821 Z M230.38437,6815.65905 C226.283498,6815.65905 222.851473,6813.89882 222.851473,6811.74076 C222.851473,6810.77626 223.414096,6809.89618 224.695626,6809.89618 C226.646065,6809.89618 226.827379,6812.60277 230.203117,6812.60277 C231.80973,6812.60277 232.847433,6811.9156 232.847433,6811.01739 C232.847433,6809.89012 231.847214,6809.71534 230.221859,6809.32951 C226.314755,6808.40122 222.857761,6808.00332 222.857761,6804.07298 C222.857761,6800.50437 226.521038,6799.18419 229.677978,6799.18419 C233.122517,6799.18419 236.60448,6800.50437 236.60448,6802.52379 C236.60448,6803.54251 235.89186,6804.44073 234.710328,6804.44073 C232.941203,6804.44073 232.884917,6802.4213 230.021803,6802.4213 C228.41519,6802.4213 227.396229,6802.84327 227.396229,6803.77763 C227.396229,6804.97119 228.696501,6805.09175 231.71596,6805.76691 C234.303989,6806.32752 237.3859,6807.38244 237.3859,6810.44472 C237.3859,6814.00737 233.816395,6815.65905 230.38437,6815.65905 Z" id="blus"></path>
        </g>
    </g>
</svg>