<?xml version="1.0" encoding="UTF-8"?>
<svg width="31px" height="26px" viewBox="0 0 31 26" version="1.1" xmlns="http://www.w3.org/2000/svg" xmlns:xlink="http://www.w3.org/1999/xlink">
    <title>blut</title>
    <g id="Page-1" stroke="none" stroke-width="1" fill="none" fill-rule="evenodd">
        <g id="HOME" transform="translate(-167.000000, -6795.000000)" fill="#18335B" fill-rule="nonzero">
            <path d="M176.756362,6821 C188.440475,6821 194.833221,6811.00621 194.833221,6802.33283 C194.833221,6802.04848 194.833221,6801.764 194.813531,6801.47965 C196.052736,6800.54526 197.134661,6799.38746 198,6798.08751 C196.859184,6798.59528 195.619978,6798.96096 194.341394,6799.10311 C195.659239,6798.29066 196.662406,6797.01098 197.134543,6795.4875 C195.914909,6796.23907 194.538054,6796.7875 193.102189,6797.07186 C191.941564,6795.79218 190.28935,6795 188.459987,6795 C184.93909,6795 182.106562,6797.94531 182.106562,6801.56092 C182.106562,6802.06875 182.165572,6802.57652 182.263902,6803.06401 C176.992401,6802.7796 172.29119,6800.17964 169.163672,6796.19841 C168.612835,6797.1734 168.298215,6798.2906 168.298215,6799.50934 C168.298215,6801.78434 169.419342,6803.79526 171.130625,6804.97339 C170.088198,6804.93285 169.104603,6804.62816 168.258836,6804.14067 L168.258836,6804.22188 C168.258836,6807.41093 170.442257,6810.05149 173.353425,6810.66092 C172.822397,6810.80307 172.251929,6810.88434 171.681521,6810.88434 C171.268394,6810.88434 170.875015,6810.84374 170.481577,6810.7828 C171.288083,6813.38282 173.628844,6815.27186 176.421993,6815.33286 C174.238572,6817.10003 171.504374,6818.13596 168.534254,6818.13596 C168.003166,6818.13596 167.511457,6818.11563 167,6818.05475 C169.812839,6819.92341 173.156706,6821 176.756362,6821 Z" id="blut"></path>
        </g>
    </g>
</svg>