<?xml version="1.0" encoding="UTF-8"?>
<svg width="28px" height="27px" viewBox="0 0 28 27" version="1.1" xmlns="http://www.w3.org/2000/svg" xmlns:xlink="http://www.w3.org/1999/xlink">
    <title>bluw</title>
    <g id="Page-1" stroke="none" stroke-width="1" fill="none" fill-rule="evenodd">
        <g id="HOME" transform="translate(-262.000000, -6794.000000)" fill="#18335B" fill-rule="nonzero">
            <path d="M262,6821 L269.356262,6819.1377 C271.381226,6820.20445 273.662476,6820.76493 275.987488,6820.76493 L275.993774,6820.76493 C283.637512,6820.76493 290,6814.76228 290,6807.38547 C290,6803.8116 288.424988,6800.45466 285.806274,6797.92341 C283.1875,6795.39216 279.700012,6794 275.993774,6794 C268.34375,6794 262.118774,6800.00266 262.118774,6807.37946 C262.118774,6809.73591 262.756226,6812.03816 263.96875,6814.0692 L262,6821 Z M275.993774,6818.51095 C273.918762,6818.51095 271.887512,6817.97454 270.118774,6816.96205 L269.700012,6816.72098 L265.337524,6817.82387 L266.5,6813.71965 L266.224976,6813.29778 C265.068726,6811.52588 264.462524,6809.48284 264.462524,6807.37946 C264.462524,6801.25021 269.637512,6796.26004 276,6796.26004 C279.081238,6796.26004 281.974976,6797.4172 284.150024,6799.52051 C286.325012,6801.62388 287.662476,6804.41427 287.656272,6807.38547 C287.656272,6813.52078 282.349976,6818.51095 275.993774,6818.51095 Z M280.4375,6813.76185 C281.106262,6813.66539 282.487488,6812.95424 282.775024,6812.17076 C283.0625,6811.38728 283.0625,6810.71833 282.974976,6810.57966 C282.893738,6810.42899 282.662476,6810.34465 282.318726,6810.18192 C281.974976,6810.01318 280.268738,6809.20557 279.950012,6809.0971 C279.631226,6808.98257 279.400024,6808.92836 279.168762,6809.26584 C278.9375,6809.60337 278.275024,6810.35066 278.068726,6810.57966 C277.868774,6810.80267 277.662476,6810.8328 277.318726,6810.66406 C275.28125,6809.68171 273.943726,6808.91029 272.599976,6806.68638 C272.243774,6806.09577 272.956238,6806.13797 273.618774,6804.86028 C273.731262,6804.63728 273.674988,6804.44441 273.587524,6804.27567 C273.5,6804.10693 272.806274,6802.46163 272.518738,6801.79262 C272.237488,6801.14174 271.950012,6801.23214 271.737488,6801.22008 C271.537476,6801.20801 271.306274,6801.20801 271.075012,6801.20801 C270.84375,6801.20801 270.46875,6801.29241 270.150024,6801.62388 C269.831238,6801.96136 268.9375,6802.76897 268.9375,6804.41427 C268.9375,6806.05957 270.181274,6807.65067 270.349976,6807.87367 C270.525024,6808.09668 272.793762,6811.47168 276.275024,6812.92411 C278.474976,6813.84019 279.337524,6813.91853 280.4375,6813.76185 Z" id="bluw"></path>
        </g>
    </g>
</svg>