<?xml version="1.0" encoding="UTF-8"?>
<svg width="31px" height="30px" viewBox="0 0 31 30" version="1.1" xmlns="http://www.w3.org/2000/svg" xmlns:xlink="http://www.w3.org/1999/xlink">
    <title>f</title>
    <g id="Page-1" stroke="none" stroke-width="1" fill="none" fill-rule="evenodd">
        <g id="HOME" transform="translate(-73.000000, -6543.000000)" fill="#FFFFFF" fill-rule="nonzero">
            <path d="M90.921875,6573 C98.3318481,6571.86693 104,6565.62355 104,6558.09128 C104,6549.75456 97.0625,6543 88.5,6543 C79.9375,6543 73,6549.75456 73,6558.09128 C73,6565.62355 78.6681519,6571.86693 86.078125,6573 L86.078125,6562.45378 L82.140625,6562.45378 L82.140625,6558.09128 L86.078125,6558.09128 L86.078125,6554.76635 C86.078125,6550.98438 88.390625,6548.89533 91.9324951,6548.89533 C93.6287231,6548.89533 95.4025269,6549.18984 95.4025269,6549.18984 L95.4025269,6552.90181 L93.4475098,6552.90181 C91.522522,6552.90181 90.921875,6554.0653 90.921875,6555.25863 L90.921875,6558.09128 L95.2206421,6558.09128 L94.5331421,6562.45378 L90.921875,6562.45378 L90.921875,6573 Z" id="f"></path>
        </g>
    </g>
</svg>