<?xml version="1.0" encoding="UTF-8"?>
<svg width="59px" height="94px" viewBox="0 0 59 94" version="1.1" xmlns="http://www.w3.org/2000/svg" xmlns:xlink="http://www.w3.org/1999/xlink">
    <title>flash</title>
    <defs>
        <path d="M22.0148828,94 C23.5569627,94 25.0257127,93.1921158 25.833597,91.796875 L58.146097,35.984375 C59.853483,33.0651627 57.7421548,29.375 54.3456705,29.375 L33.15888,29.375 L40.9800813,5.54456711 C41.7144563,2.75390625 39.6031282,0 36.7206705,0 L10.2831705,0 C8.08004547,0 6.20735336,1.63405609 5.91367508,3.81871414 L0.0386750808,47.8812141 C-0.31022476,50.5250359 1.7460611,52.875 4.40817047,52.875 L26.2007845,52.875 L17.737005,88.5839844 C17.0761392,91.3746452 19.205755,94 22.0148828,94 Z" id="path-1"></path>
    </defs>
    <g id="flash" stroke="none" stroke-width="1" fill="none" fill-rule="evenodd">
        <g id="Fill-20-+-Fill-23-+-Fill-26-Mask">
            <mask id="mask-2" fill="white">
                <use xlink:href="#path-1"></use>
            </mask>
            <use id="Mask" fill="#000000" fill-rule="nonzero" xlink:href="#path-1"></use>
            <path d="M-23.0994112,-4.37211277 C-16.5815383,-4.89327882 -9.99285394,-5.4113427 -3.51682416,-4.50550646 C2.96242433,-3.60277241 9.4094858,-1.13964236 13.8577329,3.48570637 C19.0044385,8.8307606 20.9131292,16.8809148 18.6857869,23.8484086 C17.3114009,28.1511307 14.5079108,32.8261143 16.7030661,36.8000055 C18.2512621,39.5950687 21.759648,40.7894076 25.0201938,41.1740777 C29.4298164,41.6952438 33.9005945,41.1864865 38.3424042,41.3260845 C42.7842139,41.4656826 47.4448953,42.3684166 50.7601591,45.2224212 C56.206204,49.9067113 56.2416098,57.9599677 55.8618028,64.9833007 C55.6010879,69.8009846 55.308186,74.7551643 53.2031544,79.1292365 C50.5831304,84.5704583 45.446081,88.4978168 40.0611914,91.5038281 C27.8011529,98.3441326 12.6281885,101.356348 -0.761614664,96.8892107 C-14.1481991,92.4251752 -24.7506057,79.3774108 -23.3858758,65.7867651 C-22.8226028,60.2121496 -20.427888,54.981876 -19.0020027,49.5530629 C-17.5761175,44.1242499 -17.2445911,37.9695269 -20.4665125,33.3069521 C-22.7517914,30.0031315 -26.4983613,27.9246717 -29.2439147,24.9620908 C-33.1417636,20.7586384 -34.8187077,14.7311049 -33.6181316,9.2123286 C-32.4207742,3.69665453 -28.3780836,-1.17686851 -23.0543494,-3.52211575" id="Fill-20" fill="#FF6700" mask="url(#mask-2)"></path>
            <path d="M92.3050649,21.5547192 C79.1678378,11.7985291 60.1393209,10.2233591 45.4919947,17.6738209 C37.9383271,21.5146464 31.1841236,28.4287489 31.0223273,36.7114923 C30.9049456,42.7347453 34.1345272,49.3529254 30.7653566,54.4082657 C28.033854,58.5018582 22.1806339,59.3403049 17.2093625,58.6683146 C12.2412636,57.9932417 7.3493041,56.2238726 2.3494804,56.6523435 C-7.97058719,57.5370281 -15.3370787,68.1748202 -14.9881063,78.2361803 C-14.6423063,88.2944578 -8.31004223,97.3447498 -0.619958049,104.086231 C6.48639037,110.316013 16.4765203,115.263465 25.407043,111.925091 C31.7012373,109.576207 35.7461455,103.765648 40.079749,98.7472985 C44.416525,93.7320311 50.409334,88.9017151 57.0905705,89.7709871 C67.1060803,91.0748949 72.5468783,104.326668 82.65439,104.379071 C90.7600686,104.419144 95.7694098,96.0500895 99.037061,88.8400646 C102.292022,81.6577825 105.575536,74.4046023 107.120532,66.7013735 C108.668701,58.9981447 108.360971,50.6999887 104.674553,43.7149881 C100.8422,36.4525603 93.5708832,30.8886035 91.5880851,22.9541854" id="Fill-23" fill="#18335B" mask="url(#mask-2)"></path>
            <path d="M72.8494321,-16.5566652 C63.5739214,-14.6816534 53.9929016,-15.9295814 44.5504632,-16.5629049 C35.1048753,-17.1993481 25.1994488,-17.1244725 16.7428287,-12.9158353 C8.27990944,-8.70407823 1.80752424,0.755216065 3.96813555,9.88692926 C5.07048826,14.5697791 8.25471281,19.4491776 6.14134518,23.7794878 C5.16497564,25.7824122 3.21853571,27.139534 1.8894133,28.9365503 C-1.61606832,33.6599578 0.0311615844,40.9104195 4.56970517,44.6698026 C9.11139834,48.4260659 15.6971684,49.0375507 21.3916075,47.4558019 C27.0891963,45.8709333 32.0403347,42.3736151 36.5473825,38.5767941 C39.0292509,36.4865147 41.4701748,34.2527236 44.4591254,32.9767172 C47.4543752,31.7007108 51.1834769,31.5727982 53.7440848,33.5632434 C56.3739834,35.6067255 57.0668908,39.1789194 58.3960132,42.2145043 C60.8306379,47.7740236 66.0053965,52.0731355 71.951802,53.4832942 C77.9013571,54.890333 84.4776784,53.3772203 89.1862992,49.5117633 C94.5122376,45.1377756 97.151585,38.3584067 98.8334603,31.7131901 C101.475957,21.2992309 102.235006,9.9711644 98.0334671,0.0750953016 C93.8350781,-9.82409361 83.7154802,-17.7702752 72.9092741,-16.9404031" id="Fill-26" fill="#FFBF1F" mask="url(#mask-2)"></path>
        </g>
    </g>
</svg>