<?xml version="1.0" encoding="UTF-8"?>
<svg width="13px" height="19px" viewBox="0 0 13 19" version="1.1" xmlns="http://www.w3.org/2000/svg" xmlns:xlink="http://www.w3.org/1999/xlink">
    <!-- Generator: Sketch 64 (93537) - https://sketch.com -->
    <title>freccia-sx</title>
    <desc>Created with Sketch.</desc>
    <defs>
        <polygon id="path-1" points="7.43874938 0 0 9.5173213 7.50473923 19 13 19 5.64534387 9.65060725 12.9637932 0"></polygon>
    </defs>
    <g id="freccia-sx" stroke="none" stroke-width="1" fill="none" fill-rule="evenodd">
        <g id="Group-5-Copy-4">
            <mask id="mask-2" fill="white">
                <use xlink:href="#path-1"></use>
            </mask>
            <use id="Clip-24" fill="#FFFFFF" xlink:href="#path-1"></use>
            <g id="Group-4-Copy-3" mask="url(#mask-2)">
                <g transform="translate(5.000000, 8.000000) rotate(100.000000) translate(-5.000000, -8.000000) translate(-12.000000, -9.000000)">
                    <path d="M2.54347071,3.15093443 C4.06430772,3.02565413 5.60166741,2.90111954 7.11274103,3.11886864 C8.62456568,3.33587202 10.12888,3.92797059 11.1668043,5.03983326 C12.3677023,6.32470207 12.8130635,8.2598353 12.2933503,9.93471361 C11.9726602,10.9690218 11.3185125,12.0928159 11.8307154,13.0480782 C12.1919611,13.7199684 13.0105845,14.0070691 13.7713785,14.0995379 C14.8002905,14.2248182 15.843472,14.1025208 16.8798943,14.136078 C17.9163166,14.1696352 19.0038089,14.3866386 19.7773705,15.0726974 C21.0481143,16.1987287 21.0563756,18.1346076 20.967754,19.8229088 C20.9069205,20.9810059 20.8385767,22.1719145 20.3474027,23.2233742 C19.7360638,24.5313602 18.5374189,25.4754367 17.2809447,26.1980356 C14.420269,27.8423396 10.8799106,28.5664299 7.75562325,27.4925987 C4.63208688,26.4195133 2.158192,23.2830314 2.47662898,20.0160493 C2.60805934,18.6759975 3.16682613,17.4187202 3.49953269,16.1137171 C3.83223926,14.8087139 3.90959542,13.3292132 3.15781376,12.2084019 C2.62458202,11.4142143 1.75038237,10.9145845 1.10975325,10.2024257 C0.20025516,9.1919804 -0.191031795,7.74305405 0.0891026279,6.41642515 C0.36848602,5.09054195 1.31178048,3.91902199 2.55398514,3.35526064" id="Fill-20" fill="#FF6700"></path>
                    <path d="M30.2995681,11.1386798 C27.2021731,8.69963228 22.7157748,8.30583977 19.2623402,10.1684552 C17.4813942,11.1286616 15.8889397,12.8571872 15.8507926,14.9278731 C15.8231173,16.4336863 16.5845633,18.0882314 15.790206,19.3520664 C15.1461932,20.3754646 13.7661657,20.5850762 12.5940773,20.4170786 C11.4227369,20.2483104 10.2693481,19.8059682 9.0905279,19.9130859 C6.65734123,20.134257 4.92052616,22.7937051 5.00280422,25.3090451 C5.0843343,27.8236145 6.57730712,30.0861875 8.39041639,31.7715577 C10.0658969,33.3290033 12.4212934,34.5658662 14.5268638,33.7312727 C16.0108608,33.1440518 16.9645384,31.6914121 17.9862823,30.4368246 C19.0087742,29.1830078 20.4217129,27.9754288 21.9969638,28.1927468 C24.3583441,28.5187237 25.6411339,31.831667 28.0242058,31.8447677 C29.9353007,31.8547859 31.1163649,29.7625224 31.8867867,27.9600162 C32.6542167,26.1644456 33.4283784,24.3511506 33.7926458,22.4253434 C34.1576612,20.4995362 34.0851069,18.4249972 33.2159514,16.678747 C32.3123887,14.8631401 30.5980131,13.4721509 30.1305241,11.4885463" id="Fill-23" fill="#18335B"></path>
                    <path d="M26.3107561,0.106150583 C24.1066744,0.555097078 21.8299964,0.256297414 19.5862487,0.104656585 C17.3417525,-0.0477312438 14.9879878,-0.029803264 12.9784939,0.977898602 C10.9675032,1.98634747 9.42951071,4.25124892 9.9429233,6.43771546 C10.2048685,7.55896119 10.9615159,8.72726788 10.4593295,9.76410271 C10.2273209,10.2436762 9.76480056,10.5686208 9.4489695,10.9988923 C8.61598376,12.129849 9.00740473,13.8658751 10.0858705,14.7660091 C11.1650848,15.6653961 12.7300202,15.8118079 14.0831543,15.4330793 C15.4370367,15.0536038 16.6135449,14.2162177 17.6845265,13.3071197 C18.2742774,12.8066303 18.854299,12.2717789 19.5645447,11.9662562 C20.2762872,11.6607336 21.1624104,11.6301066 21.7708716,12.1066921 C22.395798,12.5959765 22.5604493,13.4512906 22.8762804,14.1781207 C23.4548051,15.5092732 24.6844507,16.5386381 26.0974579,16.8762817 C27.5112136,17.2131783 29.0739038,16.8508837 30.192784,15.9253518 C31.4583535,14.878059 32.0855251,13.2548298 32.4851787,11.6637216 C33.1130987,9.17023838 33.2934667,6.45788443 32.2950813,4.0884031 C31.2974443,1.71817477 28.8927874,-0.18443209 26.324976,0.0142696864" id="Fill-26" fill="#FFBF1F"></path>
                </g>
            </g>
        </g>
    </g>
</svg>