<?xml version="1.0" encoding="UTF-8"?>
<svg width="93px" height="95px" viewBox="0 0 93 95" version="1.1" xmlns="http://www.w3.org/2000/svg" xmlns:xlink="http://www.w3.org/1999/xlink">
    <title>gogol</title>
    <defs>
        <path d="M47,94.7969303 C74.119684,94.7969303 92.483871,75.7126191 92.483871,48.8960869 C92.483871,45.7690707 92.1807192,43.4569369 91.744684,41.0502302 L47,41.0502302 L47,57.2159189 L73.683834,57.2159189 C72.5846774,64.1332577 65.6105209,77.4750821 47,77.4750821 C30.9670095,77.4750821 17.871334,64.1900755 17.871334,47.7969303 C17.871334,21.3783079 48.9899194,9.24927565 65.7241565,25.3960869 L78.5164952,13.0966011 C70.3104839,5.44007548 59.6596404,0.796930321 47,0.796930321 C20.9983501,0.796930321 0,21.7952804 0,47.7969303 C0,73.7985802 20.9983501,94.7969303 47,94.7969303 Z" id="path-1"></path>
    </defs>
    <g id="gogol" stroke="none" stroke-width="1" fill="none" fill-rule="evenodd">
        <g id="Fill-20-+-Fill-23-+-Fill-26-Mask">
            <mask id="mask-2" fill="white">
                <use xlink:href="#path-1"></use>
            </mask>
            <use id="Mask" fill="#000000" fill-rule="nonzero" xlink:href="#path-1"></use>
            <path d="M-21.0994112,-4.37211277 C-14.5815383,-4.89327882 -7.99285394,-5.4113427 -1.51682416,-4.50550646 C4.96242433,-3.60277241 11.4094858,-1.13964236 15.8577329,3.48570637 C21.0044385,8.8307606 22.9131292,16.8809148 20.6857869,23.8484086 C19.3114009,28.1511307 16.5079108,32.8261143 18.7030661,36.8000055 C20.2512621,39.5950687 23.759648,40.7894076 27.0201938,41.1740777 C31.4298164,41.6952438 35.9005945,41.1864865 40.3424042,41.3260845 C44.7842139,41.4656826 49.4448953,42.3684166 52.7601591,45.2224212 C58.206204,49.9067113 58.2416098,57.9599677 57.8618028,64.9833007 C57.6010879,69.8009846 57.308186,74.7551643 55.2031544,79.1292365 C52.5831304,84.5704583 47.446081,88.4978168 42.0611914,91.5038281 C29.8011529,98.3441326 14.6281885,101.356348 1.23838534,96.8892107 C-12.1481991,92.4251752 -22.7506057,79.3774108 -21.3858758,65.7867651 C-20.8226028,60.2121496 -18.427888,54.981876 -17.0020027,49.5530629 C-15.5761175,44.1242499 -15.2445911,37.9695269 -18.4665125,33.3069521 C-20.7517914,30.0031315 -24.4983613,27.9246717 -27.2439147,24.9620908 C-31.1417636,20.7586384 -32.8187077,14.7311049 -31.6181316,9.2123286 C-30.4207742,3.69665453 -26.3780836,-1.17686851 -21.0543494,-3.52211575" id="Fill-20" fill="#FF6700" mask="url(#mask-2)"></path>
            <path d="M94.3050649,21.5547192 C81.1678378,11.7985291 62.1393209,10.2233591 47.4919947,17.6738209 C39.9383271,21.5146464 33.1841236,28.4287489 33.0223273,36.7114923 C32.9049456,42.7347453 36.1345272,49.3529254 32.7653566,54.4082657 C30.033854,58.5018582 24.1806339,59.3403049 19.2093625,58.6683146 C14.2412636,57.9932417 9.3493041,56.2238726 4.3494804,56.6523435 C-5.97058719,57.5370281 -13.3370787,68.1748202 -12.9881063,78.2361803 C-12.6423063,88.2944578 -6.31004223,97.3447498 1.38004195,104.086231 C8.48639037,110.316013 18.4765203,115.263465 27.407043,111.925091 C33.7012373,109.576207 37.7461455,103.765648 42.079749,98.7472985 C46.416525,93.7320311 52.409334,88.9017151 59.0905705,89.7709871 C69.1060803,91.0748949 74.5468783,104.326668 84.65439,104.379071 C92.7600686,104.419144 97.7694098,96.0500895 101.037061,88.8400646 C104.292022,81.6577825 107.575536,74.4046023 109.120532,66.7013735 C110.668701,58.9981447 110.360971,50.6999887 106.674553,43.7149881 C102.8422,36.4525603 95.5708832,30.8886035 93.5880851,22.9541854" id="Fill-23" fill="#18335B" mask="url(#mask-2)"></path>
            <path d="M85.8494321,-19.5566652 C76.5739214,-17.6816534 66.9929016,-18.9295814 57.5504632,-19.5629049 C48.1048753,-20.1993481 38.1994488,-20.1244725 29.7428287,-15.9158353 C21.2799094,-11.7040782 14.8075242,-2.24478393 16.9681356,6.88692926 C18.0704883,11.5697791 21.2547128,16.4491776 19.1413452,20.7794878 C18.1649756,22.7824122 16.2185357,24.139534 14.8894133,25.9365503 C11.3839317,30.6599578 13.0311616,37.9104195 17.5697052,41.6698026 C22.1113983,45.4260659 28.6971684,46.0375507 34.3916075,44.4558019 C40.0891963,42.8709333 45.0403347,39.3736151 49.5473825,35.5767941 C52.0292509,33.4865147 54.4701748,31.2527236 57.4591254,29.9767172 C60.4543752,28.7007108 64.1834769,28.5727982 66.7440848,30.5632434 C69.3739834,32.6067255 70.0668908,36.1789194 71.3960132,39.2145043 C73.8306379,44.7740236 79.0053965,49.0731355 84.951802,50.4832942 C90.9013571,51.890333 97.4776784,50.3772203 102.186299,46.5117633 C107.512238,42.1377756 110.151585,35.3584067 111.83346,28.7131901 C114.475957,18.2992309 115.235006,6.9711644 111.033467,-2.9249047 C106.835078,-12.8240936 96.7154802,-20.7702752 85.9092741,-19.9404031" id="Fill-26" fill="#FFBF1F" mask="url(#mask-2)"></path>
        </g>
    </g>
</svg>