<?xml version="1.0" encoding="UTF-8"?>
<svg width="28px" height="27px" viewBox="0 0 28 27" version="1.1" xmlns="http://www.w3.org/2000/svg" xmlns:xlink="http://www.w3.org/1999/xlink">
    <title>i</title>
    <g id="Page-1" stroke="none" stroke-width="1" fill="none" fill-rule="evenodd">
        <g id="HOME" transform="translate(-219.000000, -6544.000000)" fill="#FFFFFF" fill-rule="nonzero">
            <path d="M238.774895,6570.90513 C241.017419,6570.80269 243.0038,6570.30865 244.640399,6568.72415 C246.276938,6567.14565 246.789165,6565.22979 246.90159,6563.06687 C247.032803,6560.83771 247.032803,6554.16228 246.90159,6551.93311 C246.795448,6549.7702 246.283221,6547.85434 244.640399,6546.27583 C243.0038,6544.69739 241.017419,6544.20335 238.774895,6544.09492 C236.463683,6543.96836 229.536271,6543.96836 227.225059,6544.09492 C224.988818,6544.19729 223.002438,6544.69133 221.359616,6546.26983 C219.716794,6547.84833 219.210789,6549.7642 219.098364,6551.92711 C218.967212,6554.15628 218.967212,6560.83771 219.098364,6563.06687 C219.204567,6565.22979 219.716794,6567.14565 221.359616,6568.72415 C223.002438,6570.30265 224.982596,6570.79663 227.225059,6570.90513 C229.536271,6571.03162 236.463683,6571.03162 238.774895,6570.90513 Z M233.309369,6568.56847 L233.003088,6568.56747 C230.966748,6568.56747 226.587963,6568.72415 224.751463,6568.02524 C223.52717,6567.55532 222.583909,6566.64561 222.090471,6565.45872 C221.359616,6563.68141 221.528284,6559.46407 221.528284,6557.50002 C221.528284,6555.53591 221.365838,6551.31258 222.090471,6549.54127 C222.577687,6548.36044 223.520887,6547.45066 224.751463,6546.97474 C226.594186,6546.26983 230.966748,6546.43251 233.003088,6546.43251 C235.03949,6546.43251 239.418274,6546.27583 241.254775,6546.97474 C242.479068,6547.44466 243.422328,6548.35438 243.915767,6549.54127 C244.611819,6551.23394 244.491977,6555.13979 244.478985,6557.20461 L244.477953,6557.50002 C244.477953,6559.46407 244.646621,6563.68741 243.915767,6565.45872 C243.42855,6566.63955 242.485351,6567.54932 241.254775,6568.02524 C239.499801,6568.69658 235.450187,6568.581 233.309369,6568.56847 L233.309369,6568.56847 Z M240.47396,6551.90899 C241.398432,6551.90899 242.148014,6551.19208 242.148014,6550.29437 C242.148014,6549.40271 241.398432,6548.67974 240.47396,6548.67974 C239.549487,6548.67974 238.799905,6549.40271 238.799905,6550.29437 C238.799905,6551.18602 239.543204,6551.90899 240.47396,6551.90899 Z M233.003088,6564.42244 C236.97591,6564.42244 240.180361,6561.33175 240.180361,6557.50002 C240.180361,6553.66824 236.97591,6550.57754 233.003088,6550.57754 C229.030327,6550.57754 225.825876,6553.66824 225.825876,6557.50002 C225.825876,6561.33175 229.030327,6564.42244 233.003088,6564.42244 Z M233.003088,6562.00048 C230.435794,6562.00048 228.336988,6559.98218 228.336988,6557.50002 C228.336988,6555.01781 230.429572,6552.99951 233.003088,6552.99951 C235.576666,6552.99951 237.669249,6555.01781 237.669249,6557.50002 C237.669249,6559.98218 235.570444,6562.00048 233.003088,6562.00048 Z" id="i"></path>
        </g>
    </g>
</svg>