<?xml version="1.0" encoding="UTF-8"?>
<svg width="135px" height="119px" viewBox="0 0 135 119" version="1.1" xmlns="http://www.w3.org/2000/svg" xmlns:xlink="http://www.w3.org/1999/xlink">
    <title>ico-hammer</title>
    <defs>
        <path d="M99.3618832,63.0377146 L118.036541,44.4569853 C119.321857,43.1761433 119.321857,41.0966044 118.03231,39.8135572 L113.363142,35.1677233 C112.073595,33.8846761 109.983521,33.8846761 108.693974,35.1677233 L106.360498,37.4896379 L100.397551,31.5567473 C101.559151,27.1821576 100.471901,22.3394562 97.024176,18.9091091 L87.6878543,9.61984714 C74.7964123,-3.20661571 53.8934569,-3.20661571 41,9.61984714 L59.6746582,18.9091091 L59.6746582,22.7582508 C59.6746582,26.2419246 61.0653542,29.5840621 63.5432997,32.0475128 L73.6823645,42.1352713 C77.1300897,45.5656183 81.9973244,46.647588 86.3940758,45.4916427 L92.3570226,51.4245333 L90.0233452,53.7462473 C88.733798,55.0292946 88.733798,57.109034 90.0233452,58.3920812 L94.6927149,63.0377146 C95.9822621,64.3207618 98.072336,64.3207618 99.3618832,63.0377146 Z M22.3273058,101.016747 L72,49.2954702 C71.1739721,48.7053701 70.3520183,48.1051711 69.6137877,47.3873481 L59.3633008,37.4231725 C58.5914587,36.6728742 57.9365439,35.8435658 57.3087219,35 L4.0960245,83.2943406 C-1.2376102,88.1365272 -1.38163036,96.3104027 3.77702087,101.326847 C8.93546839,106.343489 17.3460825,106.203687 22.3273058,101.016747 Z" id="path-1"></path>
    </defs>
    <g id="ico-hammer" stroke="none" stroke-width="1" fill="none" fill-rule="evenodd">
        <g id="Group" transform="translate(8.000000, 7.000000)">
            <mask id="mask-2" fill="white">
                <use xlink:href="#path-1"></use>
            </mask>
            <path stroke="#FFFFFF" stroke-width="3" d="M3.08793953,82.183591 C0.0980602129,84.8979789 -1.43289843,88.5471668 -1.49784508,92.2184442 C-1.56281003,95.8907564 -0.161090736,99.5895818 2.73128659,102.402226 C5.60621272,105.198121 9.38660443,106.560737 13.144088,106.497924 C16.9018512,106.435107 20.6328375,104.946761 23.4092032,102.055736 L74.2656525,49.101884 C73.078162,48.1652987 71.7637464,47.3856685 70.6594793,46.3119276 L60.4088334,36.3475975 C59.2893193,35.2593315 58.4432582,33.9850947 57.5271919,32.7760638 L3.08793953,82.183591 Z M58.1746582,19.8382979 L58.1746582,22.7582508 C58.1746582,26.64071 59.724046,30.3657251 62.4857554,33.1112797 L72.6243981,43.1986184 C76.2407771,46.7967691 81.2597348,48.0812455 85.924076,47.1399927 L90.230276,51.4244874 L88.9654142,52.682865 C88.0254436,53.6180977 87.5561848,54.8438114 87.5561848,56.0691643 C87.5561848,57.2945172 88.0254436,58.5202309 88.9653683,59.4554178 L93.634761,64.1010741 C94.5717074,65.0332978 95.7993554,65.5 97.0272991,65.5 C98.2552428,65.5 99.4828908,65.0332978 100.41986,64.1010512 L119.094524,45.5203163 C120.032825,44.5852822 120.501115,43.3596202 120.499998,42.1338036 C120.498882,40.9096346 120.029652,39.6848505 119.090287,38.7502205 L114.421142,34.1044095 C113.484149,33.1721401 112.256501,32.7054379 111.028558,32.7054379 C109.800614,32.7054379 108.572966,33.1721401 107.635997,34.1043867 L106.360452,35.3736116 L102.048272,31.0831668 C102.500214,28.857311 102.438344,26.5500304 101.852812,24.3547236 C101.217205,21.9716705 99.9656087,19.7197348 98.0821529,17.8457725 L88.7458313,8.55651048 C82.0079724,1.85261372 73.1766291,-1.5 64.3446828,-1.5 C54.8755113,-1.5 45.406416,2.35385366 38.5168084,10.0599708 L58.1746582,19.8382979 Z"></path>
            <g id="Group-4" mask="url(#mask-2)">
                <g transform="translate(52.000000, 52.500000) scale(-1, 1) translate(-52.000000, -52.500000) translate(-43.000000, -35.000000)">
                    <path d="M14.5341183,15.8452328 C23.2246156,15.1436631 32.0095281,14.4462694 40.6442345,15.6656644 C49.2832324,16.8808833 57.8793144,20.1966353 63.8103105,26.4230663 C70.6725846,33.6183316 73.2175056,44.4550777 70.2477159,53.8343962 C68.4152012,59.6265222 64.6772145,65.9197693 67.6040881,71.2692382 C69.6683494,75.0318232 74.3461973,76.6395871 78.6935917,77.1574123 C84.5730886,77.858982 90.534126,77.1741164 96.4565389,77.3620368 C102.378952,77.5499573 108.593194,78.7651762 113.013545,82.6071055 C120.274939,88.9128806 120.322146,99.7538027 119.815737,109.208289 C119.468117,115.693633 119.077581,122.362721 116.270873,128.250895 C112.777507,135.575617 105.928108,140.862446 98.7482552,144.908999 C82.4015372,154.117102 62.170918,158.172007 44.3178471,152.158553 C26.4690679,146.149274 12.3325257,128.584976 14.1521656,110.289876 C14.9031962,102.785586 18.0961493,95.7448331 19.9973297,88.4368155 C21.8985101,81.1287979 22.3405452,72.843594 18.0446501,66.5670509 C14.9976115,62.1196002 10.002185,59.3216734 6.34144713,55.3335838 C1.1443152,49.6750902 -1.09161026,41.5611027 0.509157874,34.1319808 C2.1056344,26.7070349 7.49588849,20.1465232 14.5942008,16.9894596" id="Fill-20" fill="#FF6700"></path>
                    <path d="M168.945819,51.548871 C151.322709,38.3780143 125.79665,36.2515348 106.147798,46.3096582 C96.014829,51.4947727 86.9543121,60.8288111 86.7372683,72.0105147 C86.5798051,80.1419061 90.9121706,89.0764493 86.3925516,95.9011586 C82.7283407,101.427509 74.8764602,102.559412 68.2076814,101.652225 C61.5431585,100.740876 54.9807738,98.352228 48.2736932,98.9306638 C34.4297001,100.124988 24.5478212,114.486007 25.015955,128.068843 C25.4798331,141.647518 33.9743336,153.865412 44.2903002,162.966412 C53.8232066,171.376618 67.2246005,178.055678 79.2045699,173.548873 C87.6480013,170.37788 93.0740976,162.533625 98.8874682,155.758853 C104.705095,148.988242 112.744229,142.467315 121.706863,143.640833 C135.142303,145.401108 142.440934,163.291002 155.999791,163.361746 C166.873263,163.415844 173.593111,152.117621 177.976545,142.384087 C182.342957,132.688006 186.74767,122.896213 188.820226,112.496854 C190.897038,102.097495 190.484229,90.8949847 185.539034,81.4652339 C180.398074,71.6609564 170.643868,64.1496147 167.984017,53.4381503" id="Fill-23" fill="#18335B"></path>
                    <path d="M142.373003,0.593194434 C129.975043,3.10201308 117.16873,1.43225025 104.547649,0.58484562 C91.922358,-0.266733421 78.6824315,-0.166547652 67.3790284,5.46472748 C56.0672057,11.100177 47.4159977,23.7569792 50.3039436,35.9754687 C51.7773853,42.2412537 56.033527,48.7700264 53.2087287,54.5641034 C51.9036803,57.2440727 49.3020032,59.0599398 47.5254534,61.4643983 C42.8399087,67.7844506 45.0416516,77.4857726 51.1080218,82.5159331 C57.1786017,87.5419192 65.9813637,88.360103 73.5927427,86.2436786 C81.2083316,84.1230798 87.82619,79.4435695 93.8504618,74.3633161 C97.1678106,71.5664634 100.430432,68.5775879 104.425564,66.8702554 C108.429115,65.1629229 113.413558,64.9917722 116.836153,67.6550439 C120.351364,70.3892806 121.277527,75.1689767 123.054077,79.2306747 C126.308278,86.6694681 133.225035,92.4218011 141.173201,94.3086331 C149.125576,96.1912906 157.915709,94.1667032 164.20941,88.9946129 C171.328238,83.1420942 174.856079,74.0711076 177.10413,65.1796206 C180.63618,51.2454498 181.65075,36.0881777 176.034832,22.8469585 C170.423124,9.60156488 156.896929,-1.03064991 142.45299,0.079742365" id="Fill-26" fill="#FFBF1F"></path>
                </g>
            </g>
        </g>
    </g>
</svg>