<?xml version="1.0" encoding="UTF-8"?>
<svg width="92px" height="106px" viewBox="0 0 92 106" version="1.1" xmlns="http://www.w3.org/2000/svg" xmlns:xlink="http://www.w3.org/1999/xlink">
    <title>ico-business</title>
    <defs>
        <path d="M41,47 C53.9406607,47 64.4285714,36.480114 64.4285714,23.5 C64.4285714,10.519886 53.9406607,0 41,0 C28.0593393,0 17.5714286,10.519886 17.5714286,23.5 C17.5714286,36.480114 28.0593393,47 41,47 Z M73.2142857,94 C78.0647321,94 82,90.0527344 82,85.1875 L82,77.5500717 C82,64.3128548 71.5851964,53.609375 58.5347857,52.9850845 L49.7857143,88.125 L43.9285714,63.15625 L49.7857143,52.875 L32.2142857,52.875 L38.0714286,63.15625 L32.2142857,88.125 L23.4652143,52.9850845 C10.4148036,53.609375 0,64.3128548 0,77.5500717 L0,85.1875 C0,90.0527344 3.93526786,94 8.78571429,94 L73.2142857,94 Z" id="path-1"></path>
    </defs>
    <g id="ico-business" stroke="none" stroke-width="1" fill="none" fill-rule="evenodd">
        <g id="Group" transform="translate(5.000000, 6.000000)">
            <mask id="mask-2" fill="white">
                <use xlink:href="#path-1"></use>
            </mask>
            <path stroke="#FFFFFF" stroke-width="3" d="M52.3665874,51.375 L29.6334126,51.375 L36.4765723,63.3870401 L32.170869,81.7420694 L24.6303752,51.4563049 C17.1883361,51.4679933 10.4672771,54.5673494 5.70589307,59.551891 C1.24236044,64.2246215 -1.5,70.5536823 -1.5,77.5500717 L-1.5,85.1875 C-1.5,88.0336565 -0.348732165,90.6111869 1.51166639,92.4772574 C3.37371548,94.3449835 5.94590792,95.5 8.78571429,95.5 L73.2142857,95.5 C76.0540921,95.5 78.6262845,94.3449835 80.4883336,92.4772574 C82.3487322,90.6111869 83.5,88.0336565 83.5,85.1875 L83.5,77.5500717 C83.5,70.5536823 80.7576396,64.2246215 76.2941069,59.551891 C71.5327229,54.5673494 64.8116639,51.4679933 57.3696248,51.4563049 L49.829131,81.7420694 L45.5234277,63.3870401 L52.3665874,51.375 Z M41,-1.5 C34.1148895,-1.5 27.8820928,1.29825882 23.3706932,5.82341271 C18.8609435,10.3469116 16.0714286,16.5962077 16.0714286,23.5 C16.0714286,30.4037923 18.8609435,36.6530884 23.3706932,41.1765873 C27.8820928,45.7017412 34.1148895,48.5 41,48.5 C47.8851105,48.5 54.1179072,45.7017412 58.6293068,41.1765873 C63.1390565,36.6530884 65.9285714,30.4037923 65.9285714,23.5 C65.9285714,16.5962077 63.1390565,10.3469116 58.6293068,5.82341271 C54.1179072,1.29825882 47.8851105,-1.5 41,-1.5 Z"></path>
            <g id="Group-4" mask="url(#mask-2)">
                <g transform="translate(-34.000000, -9.000000)">
                    <path d="M10.9005888,13.1278872 C17.4184617,12.6067212 24.0071461,12.0886573 30.4831758,12.9944935 C36.9624243,13.8972276 43.4094858,16.3603576 47.8577329,20.9857064 C53.0044385,26.3307606 54.9131292,34.3809148 52.6857869,41.3484086 C51.3114009,45.6511307 48.5079108,50.3261143 50.7030661,54.3000055 C52.2512621,57.0950687 55.759648,58.2894076 59.0201938,58.6740777 C63.4298164,59.1952438 67.9005945,58.6864865 72.3424042,58.8260845 C76.7842139,58.9656826 81.4448953,59.8684166 84.7601591,62.7224212 C90.206204,67.4067113 90.2416098,75.4599677 89.8618028,82.4833007 C89.6010879,87.3009846 89.308186,92.2551643 87.2031544,96.6292365 C84.5831304,102.070458 79.446081,105.997817 74.0611914,109.003828 C61.8011529,115.844133 46.6281885,118.856348 33.2383853,114.389211 C19.8518009,109.925175 9.24939428,96.8774108 10.6141242,83.2867651 C11.1773972,77.7121496 13.572112,72.481876 14.9979973,67.0530629 C16.4238825,61.6242499 16.7554089,55.4695269 13.5334875,50.8069521 C11.2482086,47.5031315 7.50163873,45.4246717 4.75608534,42.4620908 C0.858236402,38.2586384 -0.818707693,32.2311049 0.381868405,26.7123286 C1.5792258,21.1966545 5.62191636,16.3231315 10.9456506,13.9778842" id="Fill-20" fill="#FF6700"></path>
                    <path d="M126.305065,39.0547192 C113.167838,29.2985291 94.1393209,27.7233591 79.4919947,35.1738209 C71.9383271,39.0146464 65.1841236,45.9287489 65.0223273,54.2114923 C64.9049456,60.2347453 68.1345272,66.8529254 64.7653566,71.9082657 C62.033854,76.0018582 56.1806339,76.8403049 51.2093625,76.1683146 C46.2412636,75.4932417 41.3493041,73.7238726 36.3494804,74.1523435 C26.0294128,75.0370281 18.6629213,85.6748202 19.0118937,95.7361803 C19.3576937,105.794458 25.6899578,114.84475 33.380042,121.586231 C40.4863904,127.816013 50.4765203,132.763465 59.407043,129.425091 C65.7012373,127.076207 69.7461455,121.265648 74.079749,116.247298 C78.416525,111.232031 84.409334,106.401715 91.0905705,107.270987 C101.10608,108.574895 106.546878,121.826668 116.65439,121.879071 C124.760069,121.919144 129.76941,113.55009 133.037061,106.340065 C136.292022,99.1577825 139.575536,91.9046023 141.120532,84.2013735 C142.668701,76.4981447 142.360971,68.1999887 138.674553,61.2149881 C134.8422,53.9525603 127.570883,48.3886035 125.588085,40.4541854" id="Fill-23" fill="#18335B"></path>
                    <path d="M106.849432,0.943334788 C97.5739214,2.81834662 87.9929016,1.57041861 78.5504632,0.937095148 C69.1048753,0.300651864 59.1994488,0.375527544 50.7428287,4.58416475 C42.2799094,8.79592177 35.8075242,18.2552161 37.9681356,27.3869293 C39.0704883,32.0697791 42.2547128,36.9491776 40.1413452,41.2794878 C39.1649756,43.2824122 37.2185357,44.639534 35.8894133,46.4365503 C32.3839317,51.1599578 34.0311616,58.4104195 38.5697052,62.1698026 C43.1113983,65.9260659 49.6971684,66.5375507 55.3916075,64.9558019 C61.0891963,63.3709333 66.0403347,59.8736151 70.5473825,56.0767941 C73.0292509,53.9865147 75.4701748,51.7527236 78.4591254,50.4767172 C81.4543752,49.2007108 85.1834769,49.0727982 87.7440848,51.0632434 C90.3739834,53.1067255 91.0668908,56.6789194 92.3960132,59.7145043 C94.8306379,65.2740236 100.005397,69.5731355 105.951802,70.9832942 C111.901357,72.390333 118.477678,70.8772203 123.186299,67.0117633 C128.512238,62.6377756 131.151585,55.8584067 132.83346,49.2131901 C135.475957,38.7992309 136.235006,27.4711644 132.033467,17.5750953 C127.835078,7.67590639 117.71548,-0.270275199 106.909274,0.559596925" id="Fill-26" fill="#FFBF1F"></path>
                </g>
            </g>
        </g>
    </g>
</svg>