<?xml version="1.0" encoding="UTF-8"?>
<svg width="158px" height="119px" viewBox="0 0 158 119" version="1.1" xmlns="http://www.w3.org/2000/svg" xmlns:xlink="http://www.w3.org/1999/xlink">
    <title>ico-ad</title>
    <defs>
        <path d="M126.875,105 C134.121094,105 140,99.1210938 140,91.875 L140,13.125 C140,5.87890625 134.121094,0 126.875,0 L13.125,0 C5.87890625,0 0,5.87890625 0,13.125 L0,91.875 C0,99.1210938 5.87890625,105 13.125,105 L126.875,105 Z M32.0951998,79 L27.4203472,79 C24.3821106,79 22.2517878,76.0050557 23.2478249,73.1341146 L38.0668411,30.449824 C38.8489476,28.1981795 41.2687182,26.3354617 43.6688635,26.0406451 L44.3227948,26 L51.6809649,26 C54.2815488,26 57.0837116,27.9948324 57.9358407,30.4525197 L72.752162,73.1341146 C73.7481991,76.0050557 71.6178762,79 68.5823346,79 L63.907482,79 C62.0283243,79 60.353171,77.8074137 59.7349597,76.0325521 L57.7013839,70.1666667 L38.3042622,70.1666667 L36.2677221,76.0325521 C35.762038,77.4884802 34.2293887,78.7007419 32.6776466,78.9521589 L32.0951998,79 Z M111.666667,79 L107.333333,79 C106.019897,79 104.884989,78.3735148 104.088623,77.4321696 C101.754272,78.4425252 99.1892904,79 96.5,79 C85.7478638,79 77,70.0839081 77,59.125 C77,48.1660919 85.7478638,39.25 96.5,39.25 C98.7912394,39.25 100.957906,39.7276815 103,40.4700826 L103,30.4166667 C103,27.9765015 104.939209,26 107.333333,26 L111.666667,26 C114.060791,26 116,27.9765015 116,30.4166667 L116,74.5833333 C116,77.0234985 114.060791,79 111.666667,79 Z M53,57 L48,42 L43,57 L53,57 Z M96.5,65 C100.083252,65 103,62.083252 103,58.5 C103,54.916748 100.083252,52 96.5,52 C92.916748,52 90,54.916748 90,58.5 C90,62.083252 92.916748,65 96.5,65 Z" id="path-1"></path>
    </defs>
    <g id="ico-ad" stroke="none" stroke-width="1" fill="none" fill-rule="evenodd">
        <g id="Group-20" transform="translate(9.000000, 7.000000)">
            <mask id="mask-2" fill="white">
                <use xlink:href="#path-1"></use>
            </mask>
            <path stroke="#FFFFFF" stroke-width="3" d="M126.875,-1.5 C130.912109,-1.5 134.568444,0.137553013 137.215445,2.78455467 C139.862447,5.43155633 141.5,9.08789062 141.5,13.125 L141.5,13.125 L141.5,91.875 C141.5,95.9121094 139.862447,99.5684437 137.215445,102.215445 C134.568444,104.862447 130.912109,106.5 126.875,106.5 L126.875,106.5 L13.125,106.5 C9.08789062,106.5 5.43155633,104.862447 2.78455467,102.215445 C0.137553013,99.5684437 -1.5,95.9121094 -1.5,91.875 L-1.5,91.875 L-1.5,13.125 C-1.5,9.08789063 0.137553013,5.43155633 2.78455467,2.78455467 C5.43155633,0.137553013 9.08789062,-1.5 13.125,-1.5 L13.125,-1.5 Z M44.3693662,27.5 L43.8103302,27.5347469 C42.8762261,27.6587249 41.9461403,28.0940011 41.1693682,28.7053744 C40.4070814,29.3053468 39.7829407,30.0807791 39.4837959,30.9420019 L24.6648551,73.6260753 C24.336015,74.5739121 24.5231332,75.5425898 25.0435538,76.2742162 C25.5638419,77.0056563 26.4171852,77.5 27.4203472,77.5 L32.4891883,77.462587 C33.0050917,77.368076 33.5109626,77.1118177 33.9344783,76.7673961 C34.345321,76.4332809 34.6869998,76.0118815 34.8507579,75.5404013 L37.2372069,68.6666667 L58.7689489,68.6666667 L61.1522088,75.5412224 C61.3558316,76.125811 61.7349725,76.6161406 62.2182219,76.9598218 C62.7007569,77.3029949 63.2872374,77.5 63.907482,77.5 L68.5823346,77.5 C69.5843976,77.5 70.4369367,77.0054891 70.9567724,76.2742127 C71.4768824,75.5425503 71.663967,74.5738983 71.3350265,73.625772 L56.5187924,30.9444283 C56.1890455,29.9933818 55.4661037,29.1473047 54.5941353,28.5265959 C53.7223385,27.9060092 52.6865682,27.5 51.6809649,27.5 L44.3693662,27.5 Z M111.666667,27.5 L107.333333,27.5 C106.553859,27.5 105.8497,27.8238553 105.339583,28.3437824 C104.819226,28.8741466 104.5,29.6076326 104.5,30.4166667 L104.5,42.7127864 C102.046069,41.5804933 99.3812097,40.75 96.5,40.75 C91.540683,40.75 87.0453266,42.8091277 83.7886621,46.1284205 C80.5217435,49.4581644 78.5,54.0557835 78.5,59.125 C78.5,64.1942165 80.5217435,68.7918356 83.7886621,72.1215795 C87.0453266,75.4408723 91.540683,77.5 96.5,77.5 C98.9780981,77.5 101.341736,76.9866069 103.492806,76.0555789 C103.891142,75.8831705 104.284027,75.6956455 104.67059,75.4930417 C104.794644,75.8476826 104.990299,76.1755414 105.233796,76.4633672 C105.749097,77.0724783 106.476711,77.5 107.333333,77.5 L111.666667,77.5 C112.446141,77.5 113.1503,77.1761447 113.660417,76.6562176 C114.180774,76.1258534 114.5,75.3923674 114.5,74.5833333 L114.5,30.4166667 C114.5,29.6076326 114.180774,28.8741466 113.660417,28.3437824 C113.1503,27.8238553 112.446141,27.5 111.666667,27.5 Z M96.5,50.5 C98.7050781,50.5 100.705503,51.3967435 102.15438,52.8456203 C103.603256,54.2944971 104.5,56.2949219 104.5,58.5 C104.5,60.7050781 103.603256,62.7055029 102.15438,64.1543797 C100.705503,65.6032565 98.7050781,66.5 96.5,66.5 C94.2949219,66.5 92.2944971,65.6032565 90.8456203,64.1543797 C89.3967435,62.7055029 88.5,60.7050781 88.5,58.5 C88.5,56.2949219 89.3967435,54.2944971 90.8456203,52.8456203 C92.2944971,51.3967435 94.2949219,50.5 96.5,50.5 Z M48,37.2565835 L55.0811388,58.5 L40.9188612,58.5 L48,37.2565835 Z"></path>
            <g id="Group-4" mask="url(#mask-2)">
                <g transform="translate(65.000000, 58.500000) scale(-1, 1) translate(-65.000000, -58.500000) translate(-30.000000, -29.000000)">
                    <path d="M14.5341183,15.8452328 C23.2246156,15.1436631 32.0095281,14.4462694 40.6442345,15.6656644 C49.2832324,16.8808833 57.8793144,20.1966353 63.8103105,26.4230663 C70.6725846,33.6183316 73.2175056,44.4550777 70.2477159,53.8343962 C68.4152012,59.6265222 64.6772145,65.9197693 67.6040881,71.2692382 C69.6683494,75.0318232 74.3461973,76.6395871 78.6935917,77.1574123 C84.5730886,77.858982 90.534126,77.1741164 96.4565389,77.3620368 C102.378952,77.5499573 108.593194,78.7651762 113.013545,82.6071055 C120.274939,88.9128806 120.322146,99.7538027 119.815737,109.208289 C119.468117,115.693633 119.077581,122.362721 116.270873,128.250895 C112.777507,135.575617 105.928108,140.862446 98.7482552,144.908999 C82.4015372,154.117102 62.170918,158.172007 44.3178471,152.158553 C26.4690679,146.149274 12.3325257,128.584976 14.1521656,110.289876 C14.9031962,102.785586 18.0961493,95.7448331 19.9973297,88.4368155 C21.8985101,81.1287979 22.3405452,72.843594 18.0446501,66.5670509 C14.9976115,62.1196002 10.002185,59.3216734 6.34144713,55.3335838 C1.1443152,49.6750902 -1.09161026,41.5611027 0.509157874,34.1319808 C2.1056344,26.7070349 7.49588849,20.1465232 14.5942008,16.9894596" id="Fill-20" fill="#FF6700"></path>
                    <path d="M168.945819,51.548871 C151.322709,38.3780143 125.79665,36.2515348 106.147798,46.3096582 C96.014829,51.4947727 86.9543121,60.8288111 86.7372683,72.0105147 C86.5798051,80.1419061 90.9121706,89.0764493 86.3925516,95.9011586 C82.7283407,101.427509 74.8764602,102.559412 68.2076814,101.652225 C61.5431585,100.740876 54.9807738,98.352228 48.2736932,98.9306638 C34.4297001,100.124988 24.5478212,114.486007 25.015955,128.068843 C25.4798331,141.647518 33.9743336,153.865412 44.2903002,162.966412 C53.8232066,171.376618 67.2246005,178.055678 79.2045699,173.548873 C87.6480013,170.37788 93.0740976,162.533625 98.8874682,155.758853 C104.705095,148.988242 112.744229,142.467315 121.706863,143.640833 C135.142303,145.401108 142.440934,163.291002 155.999791,163.361746 C166.873263,163.415844 173.593111,152.117621 177.976545,142.384087 C182.342957,132.688006 186.74767,122.896213 188.820226,112.496854 C190.897038,102.097495 190.484229,90.8949847 185.539034,81.4652339 C180.398074,71.6609564 170.643868,64.1496147 167.984017,53.4381503" id="Fill-23" fill="#18335B"></path>
                    <path d="M142.373003,0.593194434 C129.975043,3.10201308 117.16873,1.43225025 104.547649,0.58484562 C91.922358,-0.266733421 78.6824315,-0.166547652 67.3790284,5.46472748 C56.0672057,11.100177 47.4159977,23.7569792 50.3039436,35.9754687 C51.7773853,42.2412537 56.033527,48.7700264 53.2087287,54.5641034 C51.9036803,57.2440727 49.3020032,59.0599398 47.5254534,61.4643983 C42.8399087,67.7844506 45.0416516,77.4857726 51.1080218,82.5159331 C57.1786017,87.5419192 65.9813637,88.360103 73.5927427,86.2436786 C81.2083316,84.1230798 87.82619,79.4435695 93.8504618,74.3633161 C97.1678106,71.5664634 100.430432,68.5775879 104.425564,66.8702554 C108.429115,65.1629229 113.413558,64.9917722 116.836153,67.6550439 C120.351364,70.3892806 121.277527,75.1689767 123.054077,79.2306747 C126.308278,86.6694681 133.225035,92.4218011 141.173201,94.3086331 C149.125576,96.1912906 157.915709,94.1667032 164.20941,88.9946129 C171.328238,83.1420942 174.856079,74.0711076 177.10413,65.1796206 C180.63618,51.2454498 181.65075,36.0881777 176.034832,22.8469585 C170.423124,9.60156488 156.896929,-1.03064991 142.45299,0.079742365" id="Fill-26" fill="#FFBF1F"></path>
                </g>
            </g>
        </g>
    </g>
</svg>