<?xml version="1.0" encoding="UTF-8"?>
<svg width="140px" height="140px" viewBox="0 0 140 140" version="1.1" xmlns="http://www.w3.org/2000/svg" xmlns:xlink="http://www.w3.org/1999/xlink">
    <title>ico-video</title>
    <defs>
        <path d="M63,126 C97.8024194,126 126,97.8024194 126,63 C126,28.1975806 97.8024194,0 63,0 C28.1975806,0 0,28.1975806 0,63 C0,97.8024194 28.1975806,126 63,126 Z M63,114 C34.8225,114 12,91.1775 12,63 C12,34.8225 34.8225,12 63,12 C91.1775,12 114,34.8225 114,63 C114,91.1775 91.1775,114 63,114 Z M48.0844346,94.2312059 L92.8701977,68.5936999 C97.0432674,66.2838852 97.0432674,60.267906 92.8701977,57.9325588 L48.0844346,30.7720327 C44.0639442,28.5383194 39,31.4066244 39,36.1026032 L39,88.9006353 C39,93.5713296 44.0383486,96.4649192 48.0844346,94.2312059 Z" id="path-1"></path>
    </defs>
    <g id="ico-video" stroke="none" stroke-width="1" fill="none" fill-rule="evenodd">
        <g id="Group" transform="translate(7.000000, 7.000000)">
            <mask id="mask-2" fill="white">
                <use xlink:href="#path-1"></use>
            </mask>
            <path stroke="#FFFFFF" stroke-width="3" d="M63,-1.5 C80.8155242,-1.5 96.9404679,5.71733299 108.611567,17.3884326 C120.282667,29.0595321 127.5,45.1844758 127.5,63 C127.5,80.8155242 120.282667,96.9404679 108.611567,108.611567 C96.9404679,120.282667 80.8155242,127.5 63,127.5 C45.1844758,127.5 29.0595321,120.282667 17.3884326,108.611567 C5.71733299,96.9404679 -1.5,80.8155242 -1.5,63 C-1.5,45.1844758 5.71733299,29.0595321 17.3884326,17.3884326 C29.0595321,5.71733299 45.1844758,-1.5 63,-1.5 Z M63,13.5 C49.325625,13.5 36.9505349,19.0376604 27.9940977,27.9940977 C19.0376604,36.9505349 13.5,49.325625 13.5,63 C13.5,76.674375 19.0376604,89.0494651 27.9940977,98.0059023 C36.9505349,106.96234 49.325625,112.5 63,112.5 C76.674375,112.5 89.0494651,106.96234 98.0059023,98.0059023 C106.96234,89.0494651 112.5,76.674375 112.5,63 C112.5,49.325625 106.96234,36.9505349 98.0059023,27.9940977 C89.0494651,19.0376604 76.674375,13.5 63,13.5 Z M41.2460009,29.562105 C43.4606824,28.2625727 46.3172367,28.0618615 48.8391347,29.4754376 L48.8391347,29.4754376 L93.6267547,56.6370898 C94.8702944,57.3385875 95.8123237,58.3050946 96.4571432,59.4053014 C97.1512499,60.5896032 97.5,61.9313866 97.5,63.272704 C97.5,64.6152156 97.1506479,65.9559578 96.455952,67.1370146 C95.8075739,68.2393261 94.8592334,69.2048823 93.606527,69.9005755 L93.606527,69.9005755 L48.8200842,95.5384706 C46.2921447,96.9390831 43.4508654,96.7309884 41.2478943,95.4383276 C39.0587376,94.1537728 37.5,91.8018965 37.5,88.9006353 L37.5,88.9006353 L37.5,36.1026032 C37.5,33.1919505 39.0605551,30.8444823 41.2460009,29.562105 Z"></path>
            <g id="Group-4" mask="url(#mask-2)">
                <g transform="translate(68.000000, 71.500000) scale(-1, 1) rotate(90.000000) translate(-68.000000, -71.500000) translate(-27.000000, -16.000000)">
                    <path d="M14.5341183,15.8452328 C23.2246156,15.1436631 32.0095281,14.4462694 40.6442345,15.6656644 C49.2832324,16.8808833 57.8793144,20.1966353 63.8103105,26.4230663 C70.6725846,33.6183316 73.2175056,44.4550777 70.2477159,53.8343962 C68.4152012,59.6265222 64.6772145,65.9197693 67.6040881,71.2692382 C69.6683494,75.0318232 74.3461973,76.6395871 78.6935917,77.1574123 C84.5730886,77.858982 90.534126,77.1741164 96.4565389,77.3620368 C102.378952,77.5499573 108.593194,78.7651762 113.013545,82.6071055 C120.274939,88.9128806 120.322146,99.7538027 119.815737,109.208289 C119.468117,115.693633 119.077581,122.362721 116.270873,128.250895 C112.777507,135.575617 105.928108,140.862446 98.7482552,144.908999 C82.4015372,154.117102 62.170918,158.172007 44.3178471,152.158553 C26.4690679,146.149274 12.3325257,128.584976 14.1521656,110.289876 C14.9031962,102.785586 18.0961493,95.7448331 19.9973297,88.4368155 C21.8985101,81.1287979 22.3405452,72.843594 18.0446501,66.5670509 C14.9976115,62.1196002 10.002185,59.3216734 6.34144713,55.3335838 C1.1443152,49.6750902 -1.09161026,41.5611027 0.509157874,34.1319808 C2.1056344,26.7070349 7.49588849,20.1465232 14.5942008,16.9894596" id="Fill-20" fill="#FF6700"></path>
                    <path d="M168.945819,51.548871 C151.322709,38.3780143 125.79665,36.2515348 106.147798,46.3096582 C96.014829,51.4947727 86.9543121,60.8288111 86.7372683,72.0105147 C86.5798051,80.1419061 90.9121706,89.0764493 86.3925516,95.9011586 C82.7283407,101.427509 74.8764602,102.559412 68.2076814,101.652225 C61.5431585,100.740876 54.9807738,98.352228 48.2736932,98.9306638 C34.4297001,100.124988 24.5478212,114.486007 25.015955,128.068843 C25.4798331,141.647518 33.9743336,153.865412 44.2903002,162.966412 C53.8232066,171.376618 67.2246005,178.055678 79.2045699,173.548873 C87.6480013,170.37788 93.0740976,162.533625 98.8874682,155.758853 C104.705095,148.988242 112.744229,142.467315 121.706863,143.640833 C135.142303,145.401108 142.440934,163.291002 155.999791,163.361746 C166.873263,163.415844 173.593111,152.117621 177.976545,142.384087 C182.342957,132.688006 186.74767,122.896213 188.820226,112.496854 C190.897038,102.097495 190.484229,90.8949847 185.539034,81.4652339 C180.398074,71.6609564 170.643868,64.1496147 167.984017,53.4381503" id="Fill-23" fill="#18335B"></path>
                    <path d="M142.373003,0.593194434 C129.975043,3.10201308 117.16873,1.43225025 104.547649,0.58484562 C91.922358,-0.266733421 78.6824315,-0.166547652 67.3790284,5.46472748 C56.0672057,11.100177 47.4159977,23.7569792 50.3039436,35.9754687 C51.7773853,42.2412537 56.033527,48.7700264 53.2087287,54.5641034 C51.9036803,57.2440727 49.3020032,59.0599398 47.5254534,61.4643983 C42.8399087,67.7844506 45.0416516,77.4857726 51.1080218,82.5159331 C57.1786017,87.5419192 65.9813637,88.360103 73.5927427,86.2436786 C81.2083316,84.1230798 87.82619,79.4435695 93.8504618,74.3633161 C97.1678106,71.5664634 100.430432,68.5775879 104.425564,66.8702554 C108.429115,65.1629229 113.413558,64.9917722 116.836153,67.6550439 C120.351364,70.3892806 121.277527,75.1689767 123.054077,79.2306747 C126.308278,86.6694681 133.225035,92.4218011 141.173201,94.3086331 C149.125576,96.1912906 157.915709,94.1667032 164.20941,88.9946129 C171.328238,83.1420942 174.856079,74.0711076 177.10413,65.1796206 C180.63618,51.2454498 181.65075,36.0881777 176.034832,22.8469585 C170.423124,9.60156488 156.896929,-1.03064991 142.45299,0.079742365" id="Fill-26" fill="#FFBF1F"></path>
                </g>
            </g>
        </g>
    </g>
</svg>