<?xml version="1.0" encoding="UTF-8"?>
<svg width="150px" height="134px" viewBox="0 0 150 134" version="1.1" xmlns="http://www.w3.org/2000/svg" xmlns:xlink="http://www.w3.org/1999/xlink">
    <title>ico-cart</title>
    <defs>
        <path d="M106.666767,114 C113.539604,114 119.111224,108.417503 119.111224,101.53125 C119.111224,96.5945435 116.247289,92.3284149 112.093639,90.3082008 L113.319768,84.9031334 C114.078016,81.5591583 111.541338,78.375 108.119026,78.375 L48.4705319,78.375 L47.0161034,71.25 L112.159394,71.25 C114.649631,71.25 116.80827,69.5235443 117.360137,67.0906334 L127.865138,20.7781334 C128.623602,17.4341583 126.086925,14.25 122.664612,14.25 L35.3795907,14.25 L33.3426964,4.27286911 C32.8351004,1.78603363 30.6510706,0 28.1176481,0 L5.33333837,0 C2.38780607,0 0,2.3924675 0,5.34375 L0,8.90625 C0,11.8575325 2.38780607,14.25 5.33333837,14.25 L20.8628669,14.25 L36.4735587,90.7178535 C32.7389632,92.8698349 30.2222507,96.9048271 30.2222507,101.53125 C30.2222507,108.417503 35.7938706,114 42.6667069,114 C49.5395433,114 55.1111631,108.417503 55.1111631,101.53125 C55.1111631,98.0413742 53.6784361,94.8883095 51.3724443,92.625 L97.9608129,92.625 C95.6550382,94.8883095 94.2223111,98.0413742 94.2223111,101.53125 C94.2223111,108.417503 99.793931,114 106.666767,114 Z" id="path-1"></path>
    </defs>
    <g id="ico-cart" stroke="none" stroke-width="1" fill="none" fill-rule="evenodd">
        <g id="Group-8" transform="translate(11.000000, 10.000000)">
            <mask id="mask-2" fill="white">
                <use xlink:href="#path-1"></use>
            </mask>
            <path stroke="#FFFFFF" stroke-width="3" d="M5.33333837,-1.5 C3.44602303,-1.5 1.73725417,-0.733749434 0.500400616,0.505518684 C-0.735395185,1.74372698 -1.5,3.4542288 -1.5,5.34375 L-1.5,8.90625 C-1.5,10.7957712 -0.735395185,12.506273 0.500400616,13.7444813 C1.73725417,14.9837494 3.44602303,15.75 5.33333837,15.75 L19.6381496,15.75 L34.7966224,90.002691 C33.0788746,91.1812323 31.6375373,92.7345698 30.5907375,94.5453048 C29.4029759,96.5998728 28.7222507,98.9855326 28.7222507,101.53125 C28.7222507,105.388252 30.2828071,108.880007 32.8054712,111.407595 C35.3291932,113.936244 38.8157439,115.5 42.6667069,115.5 C46.5176699,115.5 50.0042207,113.936244 52.5279426,111.407595 C55.0506068,108.880007 56.6111631,105.388252 56.6111631,101.53125 C56.6111631,98.8100783 55.8335919,96.271686 54.4897467,94.125 L94.8436554,94.125 C93.4998857,96.2716834 92.7223111,98.8100769 92.7223111,101.53125 C92.7223111,105.388252 94.2828675,108.880007 96.8055316,111.407595 C99.3292536,113.936244 102.815804,115.5 106.666767,115.5 C110.51773,115.5 114.004281,113.936244 116.528003,111.407595 C119.050667,108.880007 120.611224,105.388252 120.611224,101.53125 C120.611224,98.8111701 119.834542,96.2730509 118.492293,94.1264243 C117.317701,92.2479294 115.709248,90.6696035 113.807862,89.5318542 L114.782602,85.2349745 C115.268033,83.0941546 114.69857,81.0047157 113.460309,79.4504115 C112.220894,77.8946605 110.311683,76.875 108.119026,76.875 L49.6952693,76.875 L48.8532318,72.75 L112.159394,72.75 C113.755068,72.75 115.244562,72.1969913 116.423509,71.2541113 C117.601604,70.3119137 118.469593,68.9803436 118.822975,67.4224547 L129.327978,21.1099473 C129.813524,18.9692332 129.244132,16.8797837 128.005909,15.3254635 C126.766526,13.7696863 124.857297,12.75 122.664612,12.75 L36.6042969,12.75 L34.812381,3.97282372 C34.4873652,2.38049298 33.6254515,1.01259168 32.4394225,0.0426969274 C31.2525012,-0.927927467 29.7410073,-1.5 28.1176481,-1.5 L5.33333837,-1.5 Z"></path>
            <g id="Group-4" mask="url(#mask-2)">
                <g transform="translate(-24.000000, -18.000000)">
                    <path d="M12.3157529,13.4005397 C19.6798058,12.8072122 27.1238633,12.2174164 34.4406408,13.2486762 C41.7610549,14.2764042 49.0451033,17.080583 54.0708421,22.3463646 C59.8857165,28.4315033 62.0422021,37.5962942 59.5256961,45.5285179 C57.972881,50.4270016 54.8054291,55.7492906 57.2855694,60.2734129 C59.0347592,63.4554848 62.9986198,64.8151937 66.6824646,65.2531259 C71.6645646,65.8464534 76.7157594,65.2672527 81.7342251,65.4261797 C86.7526907,65.5851067 92.0184432,66.6128347 95.7641096,69.8620092 C101.917185,75.1948933 101.957187,84.363216 101.528072,92.3590105 C101.23351,97.8437583 100.902582,103.483901 98.5242657,108.463614 C95.5640983,114.658236 89.7601336,119.129383 83.6761531,122.551611 C69.8244605,130.339034 52.6816726,133.768326 37.5535441,128.682662 C22.4290522,123.600529 10.4501928,108.746151 11.9920982,93.2737238 C12.6284979,86.9272385 15.3341055,80.9727731 16.9451057,74.7922782 C18.5561059,68.6117834 18.9306725,61.604868 15.2904666,56.2967059 C12.7085024,52.5354333 8.47553569,50.1691867 5.37354204,46.7964023 C0.969656566,42.0109334 -0.92499606,35.1488183 0.431444304,28.8659038 C1.7842481,22.586521 6.35177919,17.0382024 12.3666649,14.3682287" id="Fill-20" fill="#FF6700"></path>
                    <path d="M143.159352,43.5956166 C128.226085,32.456835 106.596109,30.6584408 89.9462918,39.1647395 C81.359934,43.5498649 73.6823382,51.4437945 73.4984221,60.900321 C73.3649927,67.7771549 77.0361024,75.3332257 73.20632,81.1049799 C70.1013834,85.778693 63.4479478,86.7359596 57.7970353,85.9687386 C52.149729,85.1979982 46.5889715,83.1778843 40.9056032,83.6670756 C29.1746406,84.6771326 20.8010485,96.8224519 21.1977303,108.30965 C21.5908059,119.79333 28.7887774,130.126177 37.5302017,137.823023 C45.6080856,144.935654 56.9640036,150.58423 67.1154513,146.772761 C74.2701485,144.091007 78.8680511,137.457009 83.7941178,131.727487 C88.7237906,126.001485 95.5358989,120.486644 103.130552,121.479104 C114.51532,122.967794 120.69995,138.097533 132.189297,138.157362 C141.403133,138.203114 147.09732,128.648045 150.811704,120.416257 C154.511663,112.216143 158.244079,103.935083 160.000297,95.1401967 C161.760122,86.3453103 161.410321,76.8711871 157.219918,68.8963121 C152.863631,60.6046945 144.598225,54.2522456 142.344351,45.1934071" id="Fill-23" fill="#18335B"></path>
                    <path d="M120.642387,0.501673007 C110.136747,2.62341678 99.2850816,1.2112745 88.5903761,0.494612296 C77.8921034,-0.225580265 66.6730078,-0.140851728 57.0948609,4.6215981 C47.5095796,9.38757828 40.1788191,20.0916167 42.6259732,30.4249678 C43.8745212,35.7240317 47.4810413,41.245508 45.0873964,46.1456417 C43.9815396,48.4121301 41.7769606,49.9478348 40.2715684,51.9813197 C36.3011858,57.3262782 38.1668732,65.5308248 43.3073237,69.7849034 C48.4513415,74.0354517 55.910524,74.7274014 62.3601662,72.9375111 C68.8133758,71.1440904 74.4211399,67.1865616 79.5259176,62.8901188 C82.3369343,60.5247804 85.1015763,57.9970458 88.486925,56.5531303 C91.8794083,55.1092148 96.1030678,54.9644702 99.0032665,57.2168372 C101.981945,59.5292201 102.766747,63.5714774 104.272139,67.0065135 C107.029646,73.2976073 112.890688,78.1624375 119.625712,79.7581582 C126.364304,81.3503487 133.812785,79.6381262 139.145868,75.2640155 C145.178139,70.3144568 148.16752,62.6429939 150.072447,55.1233362 C153.065395,43.3390089 153.925109,30.5202874 149.166358,19.3219992 C144.411174,8.12018059 132.949503,-0.871635356 120.710165,0.0674392572" id="Fill-26" fill="#FFBF1F"></path>
                </g>
            </g>
        </g>
    </g>
</svg>