<?xml version="1.0" encoding="UTF-8"?>
<svg width="150px" height="150px" viewBox="0 0 150 150" version="1.1" xmlns="http://www.w3.org/2000/svg" xmlns:xlink="http://www.w3.org/1999/xlink">
    <title>ico-seo</title>
    <defs>
        <path d="M124.744926,132.154997 L132.151735,124.748404 C134.611726,122.288144 134.611726,118.312522 132.177805,115.852518 L106.081965,89.7616509 C104.904237,88.583916 103.307862,87.9296188 101.632768,87.9296188 L97.3668244,87.9296188 C104.590125,78.6909936 108.882393,67.0733848 108.882393,54.4324143 C108.882393,24.3633692 84.5137871,0 54.4423468,0 C24.3711621,0 0,24.3633692 0,54.4324143 C0,84.5012038 24.3686063,108.864573 54.4423468,108.864573 C67.0835054,108.864573 78.7064194,104.572281 87.9449952,97.3489424 L87.9449952,101.614909 C87.9449952,103.290012 88.5992889,104.886395 89.7770176,106.06413 L115.872857,132.154997 C118.332848,134.615001 122.311005,134.615001 124.744926,132.154997 Z M54.4423468,92.114565 C33.6255841,92.114565 16.7550302,75.2756134 16.7550302,54.4324143 C16.7550302,33.6178406 33.5967031,16.750008 54.4423468,16.750008 C75.2593651,16.750008 92.1296634,33.5889595 92.1296634,54.4324143 C92.1296634,75.2467324 75.288246,92.114565 54.4423468,92.114565 Z M56.5414539,81.6562889 C57.6982247,81.6562889 58.6351937,80.7193149 58.6351937,79.5625379 L58.6351937,75.343599 C64.819547,75.1787468 69.8052138,69.9678831 69.8052138,63.5478475 C69.8052138,58.3213932 66.405698,53.6523693 61.5375996,52.1919576 L49.7577573,48.6587528 C48.4072542,48.2531396 47.4623621,46.8842272 47.4623621,45.3272044 C47.4623621,43.4243753 48.8496692,41.87502 50.5508328,41.87502 L57.9075475,41.87502 C59.1011224,41.87502 60.2525259,42.2126475 61.2628474,42.8485426 C62.1108733,43.3799035 63.18918,43.3484666 63.9140147,42.6576207 L66.9891951,39.7237624 C67.9131293,38.8417391 67.8607347,37.3133418 66.8399343,36.5463317 C64.4584075,34.7587713 61.584627,33.7277421 58.6298264,33.5759247 L58.6298264,29.312514 C58.6298264,28.155737 57.693113,27.218763 56.5360866,27.218763 L52.348607,27.218763 C51.1918362,27.218763 50.2548672,28.155737 50.2548672,29.312514 L50.2548672,33.5314529 C44.0705139,33.6963051 39.0848471,38.9097247 39.0848471,45.3272044 C39.0848471,50.5536587 42.4846184,55.2226826 47.3499054,56.6830944 L59.1297477,60.2162992 C60.4802508,60.6219123 61.4251429,61.9908247 61.4251429,63.5478475 C61.4251429,65.4506767 60.0380914,67.0000319 58.3369278,67.0000319 L50.9825133,67.0000319 C49.7891941,67.0000319 48.637535,66.6624044 47.6274691,66.0265093 C46.7794431,65.4951484 45.7011364,65.5265854 44.9760461,66.2174312 L41.9008658,69.1512895 C40.9771871,70.0333128 41.0293261,71.5617101 42.0501265,72.3287202 C44.4316533,74.1162806 47.3054339,75.1473099 50.2602344,75.2991272 L50.2602344,79.5625379 C50.2602344,80.7193149 51.1972034,81.6562889 52.3539742,81.6562889 L56.5414539,81.6562889 Z" id="path-1"></path>
    </defs>
    <g id="ico-seo" stroke="none" stroke-width="1" fill="none" fill-rule="evenodd">
        <g id="SEO" transform="translate(8.000000, 8.000000)">
            <mask id="mask-2" fill="white">
                <use xlink:href="#path-1"></use>
            </mask>
            <path stroke="#FFFFFF" stroke-width="4" d="M54.4423468,-2 C70.0306459,-2 84.1407454,4.31490505 94.353722,14.5264498 C104.566493,24.7377889 110.882393,38.8456828 110.882393,54.4324143 C110.882393,66.1040077 107.352371,76.933808 101.290395,85.9296188 C103.841229,85.9296188 105.944102,86.7953526 107.496044,88.3473026 L107.496044,88.3473026 L133.599535,114.445862 C135.204379,116.067904 136.006182,118.190129 135.999964,120.311972 C135.993762,122.428389 135.18402,124.544369 133.565928,126.162638 L133.565928,126.162638 L126.166657,133.561653 C124.558804,135.186737 122.441075,136 120.318668,136 C118.201713,136 116.079898,135.190474 114.458778,133.569345 L114.458778,133.569345 L88.3628002,107.47834 C86.8107239,105.926255 85.9449952,103.823377 85.9449952,101.614909 C76.948288,107.334459 66.1141252,110.864573 54.4423468,110.864573 C38.8530363,110.864573 24.7425001,104.549785 14.5292732,94.3384693 C4.31602499,84.1271324 -2,70.0191735 -2,54.4324143 C-2,38.8458691 4.31638934,24.7381144 14.5295722,14.5267949 C24.7431877,4.31504272 38.8540172,-2 54.4423468,-2 L54.4423468,-2 Z M54.4423468,18.750008 C44.5760231,18.750008 35.656629,22.7399562 29.2026535,29.1930908 C22.7443333,35.6505696 18.7550302,44.5741237 18.7550302,54.4324143 C18.7550302,64.2973314 22.7455168,73.2152641 29.1993274,79.6681901 C35.6578228,86.1258001 44.5827739,90.114565 54.4423468,90.114565 C64.3087485,90.114565 73.2281102,86.1246552 79.68205,79.6716 C86.1403875,73.2141478 90.1296634,64.2906228 90.1296634,54.4324143 C90.1296634,44.5673539 86.1392269,35.6493389 79.6854224,29.1963753 C73.2269604,22.7387547 64.3020222,18.750008 54.4423468,18.750008 Z M56.5360866,25.218763 C57.6671587,25.218763 58.6903986,25.6769732 59.430996,26.4175746 C60.171664,27.1582466 60.6298264,28.1815819 60.6298264,29.312514 L60.6298264,29.312514 L60.6298264,31.7838914 C63.3010859,32.226319 65.8539419,33.3055382 68.0413472,34.9473923 C69.046732,35.7028194 69.5867018,36.8282323 69.641243,37.9892931 C69.6951046,39.1358886 69.2703787,40.3110772 68.3697671,41.1708356 L68.3697671,41.1708356 L65.293877,44.1053708 C64.5874009,44.7787189 63.7126172,45.1391205 62.8044918,45.2045185 C61.9232322,45.2679817 61.0056532,45.047566 60.1975007,44.5411845 C59.507968,44.1071935 58.7224792,43.87502 57.9075475,43.87502 L57.9075475,43.87502 L50.5508328,43.87502 C50.2738766,43.87502 50.036299,44.023123 49.8589208,44.2213902 C49.6053744,44.5047955 49.4623621,44.8996848 49.4623621,45.3272044 C49.4623621,45.6829434 49.56436,46.0197846 49.7500706,46.2893259 C49.8939254,46.4981175 50.0896602,46.6701791 50.3323415,46.7430667 L50.3323415,46.7430667 L62.112289,50.2763031 C64.9699293,51.1335848 67.4009057,52.92772 69.1138924,55.2805739 C70.8143671,57.6162421 71.8052138,60.5008225 71.8052138,63.5478475 C71.8052138,67.2874413 70.3524459,70.6734517 68.0043481,73.1530871 C66.0584875,75.2079526 63.498719,76.6407758 60.6351937,77.1465212 L60.6351937,77.1465212 L60.6351937,79.5625379 C60.6351937,80.6934154 60.1770039,81.7167369 59.4363302,82.4574146 C58.6956526,83.1980961 57.6723307,83.6562889 56.5414539,83.6562889 L56.5414539,83.6562889 L52.3539742,83.6562889 C51.2230974,83.6562889 50.1997755,83.1980961 49.4590979,82.4574146 C48.7184242,81.7167369 48.2602344,80.6934154 48.2602344,79.5625379 L48.2602344,79.5625379 L48.2602344,77.0911605 C45.5889749,76.6487329 43.0361189,75.5695137 40.8487137,73.9276597 C39.8433573,73.1722539 39.3034587,72.0469106 39.2489187,70.8858756 C39.1950586,69.739313 39.6197572,68.5641408 40.5202938,67.7042163 L40.5202938,67.7042163 L43.5964388,64.7694382 C44.3030336,64.0962144 45.1777943,63.7359159 46.0858085,63.6705322 C46.9671173,63.6070715 47.8846779,63.8274951 48.6930088,64.333989 C49.3822845,64.767928 50.1678616,65.0000319 50.9825133,65.0000319 L50.9825133,65.0000319 L58.3369278,65.0000319 C58.6138113,65.0000319 58.8513079,64.8519743 59.0286225,64.6537618 C59.2821681,64.370334 59.4251429,63.9754014 59.4251429,63.5478475 C59.4251429,63.1921086 59.323145,62.8552673 59.1374344,62.585726 C58.9935796,62.3769344 58.7978448,62.2048728 58.5551635,62.1319852 L58.5551635,62.1319852 L46.7749114,58.5986574 C43.9186174,57.7412845 41.4881148,55.9469375 39.775396,53.593724 C38.0755557,51.2582052 37.0848471,48.3739064 37.0848471,45.3272044 C37.0848471,41.5887382 38.5377901,38.2023757 40.8863149,35.7222894 C42.8321123,33.6674907 45.3916608,32.2344451 48.2548672,31.7285893 L48.2548672,31.7285893 L48.2548672,29.312514 C48.2548672,28.1816365 48.713057,27.158315 49.4537307,26.4176373 C50.1944083,25.6769558 51.2177301,25.218763 52.348607,25.218763 L52.348607,25.218763 Z"></path>
            <g id="Group-4" mask="url(#mask-2)">
                <g transform="translate(-34.000000, -21.000000)">
                    <path d="M14.457623,15.7546886 C23.1023808,15.0571279 31.8410569,14.3637193 40.4303174,15.5761463 C49.023847,16.7844211 57.5746864,20.0812259 63.4744668,26.2720773 C70.3006237,33.4262268 72.8321503,44.2010486 69.8779911,53.5267711 C68.0551212,59.2857992 64.3368081,65.5430849 67.2482771,70.8619854 C69.3016739,74.60307 73.9549015,76.2016466 78.2794149,76.7165128 C84.1279671,77.4140736 90.0576306,76.7331214 95.9488729,76.9199681 C101.840115,77.1068147 108.021651,78.3150895 112.418737,82.1350649 C119.641913,88.404807 119.688872,99.183781 119.185128,108.584242 C118.839338,115.032527 118.450857,121.663506 115.658921,127.518033 C112.183941,134.800899 105.370592,140.057517 98.2285275,144.080948 C81.9678449,153.236432 61.8437026,157.268167 44.0845953,151.289075 C26.329757,145.314136 12.2676177,127.850205 14.0776805,109.659648 C14.8247584,102.19824 18.0009064,95.1977197 19.8920806,87.9314623 C21.7832547,80.6652048 22.2229634,72.4273449 17.9496782,66.1866677 C14.9186767,61.764631 9.94954189,58.9826924 6.30807109,55.0173919 C1.13829249,49.3912326 -1.08586494,41.3236107 0.506478096,33.9369409 C2.09455212,26.5544233 7.45643644,20.0314002 14.5173892,16.8923769" id="Fill-20" fill="#FF6700"></path>
                    <path d="M168.05663,51.254306 C150.526274,38.1587114 125.134562,36.0443831 105.589125,46.0450315 C95.5094878,51.2005168 86.4966578,60.4812179 86.2807563,71.599026 C86.1241219,79.6839524 90.4336855,88.5674411 85.9378539,95.353152 C82.2929283,100.847923 74.4823735,101.973358 67.8486936,101.071355 C61.2192471,100.165214 54.6914013,97.7902153 48.0196211,98.3653457 C34.2484912,99.5528451 24.4186222,113.831802 24.8842921,127.337021 C25.3457287,140.838104 33.7955213,152.986181 44.0571933,162.035175 C53.5399266,170.397323 66.8707868,177.038217 78.7877037,172.557165 C87.186696,169.404292 92.5842339,161.604862 98.3670078,154.868802 C104.154015,148.136881 112.150838,141.653216 121.0663,142.820028 C134.431028,144.570245 141.691245,162.35791 155.17874,162.42825 C165.994982,162.482039 172.679463,151.248377 177.039827,141.570464 C181.383257,131.929789 185.764788,122.193949 187.826436,111.854015 C189.892317,101.514081 189.481681,90.3755848 184.562513,80.9997183 C179.44861,71.2514652 169.745742,63.7830455 167.09989,53.1327894" id="Fill-23" fill="#FFBF1F"></path>
                    <path d="M141.623672,0.589804752 C129.290964,3.08428729 116.552052,1.42406597 103.997398,0.581503645 C91.4385561,-0.265209231 78.2683134,-0.165595951 67.024402,5.43350047 C55.7721151,11.0367474 47.1664399,23.6212251 50.039186,35.7698946 C51.5048727,41.9998751 55.7386137,48.4913405 52.9286828,54.2523085 C51.630503,56.9169637 49.0425189,58.7224544 47.2753195,61.1131731 C42.6144355,67.3971108 44.8045903,77.0429967 50.8390322,82.0444135 C56.8776617,87.0416797 65.6340934,87.8551881 73.2054125,85.7508576 C80.7809194,83.6423765 87.3639469,78.9896062 93.356512,73.9383829 C96.6564011,71.1575121 99.9018504,68.185716 103.875955,66.4881397 C107.858436,64.7905634 112.816645,64.6203907 116.221226,67.2684437 C119.717936,69.9870561 120.639225,74.7394397 122.406424,78.777928 C125.643498,86.174214 132.523851,91.8936765 140.430184,93.7697266 C148.340705,95.6416261 157.084573,93.6286078 163.34515,88.4860722 C170.426511,82.6669965 173.935784,73.6478441 176.172003,64.8071656 C179.685464,50.9526186 180.694694,35.8819596 175.108333,22.7164045 C169.52616,9.5466988 156.071156,-1.02476049 141.703238,0.0792866943" id="Fill-26" fill="#18335B"></path>
                </g>
            </g>
        </g>
    </g>
</svg>