<?xml version="1.0" encoding="UTF-8"?>
<svg width="129px" height="99px" viewBox="0 0 129 99" version="1.1" xmlns="http://www.w3.org/2000/svg" xmlns:xlink="http://www.w3.org/1999/xlink">
    <title>ico-glasses</title>
    <defs>
        <path d="M29.8114261,87 C41.5324005,87 51.2722822,78.0786803 52.1491811,66.5378383 L52.7188425,59.0361772 L59.6702314,59.0361772 L60.2398929,66.5378383 C61.1148929,78.0786803 70.8547746,87 82.575749,87 L89.7935496,87 C102.164128,87 112.193588,77.0980425 112.193588,64.8852996 L112.193588,51.2432263 C112.193588,50.2275048 112.069211,49.2178518 111.824067,48.2332315 L103.006088,12.9463902 C101.856891,8.34397308 98.8080624,4.39221703 94.6449764,2.10836071 C90.476004,-0.169427073 85.5119741,-0.631584165 80.9968373,0.879102496 L78.0315596,1.86561919 C76.400239,2.40742585 75.5193525,4.16881898 76.0639489,5.79613536 L77.0477542,8.74392766 C77.5902618,10.3714337 79.3518449,11.2509924 80.9814565,10.7091857 L83.5441735,9.8567458 C85.6578074,9.15374361 88.0163957,9.16341534 89.9919816,10.1927911 C91.9928226,11.2354418 93.4082414,13.0201608 93.9528378,15.2067309 L101.431164,45.0775918 C97.1163577,43.7550298 91.749767,42.6579519 85.6422366,42.6579519 C78.8813046,42.6579519 71.2571455,44.0210972 63.3101783,47.8507239 L49.0807946,47.8507239 C41.1338274,44.0173044 33.5096683,42.6560555 26.7468373,42.6560555 C20.6374081,42.6560555 15.2708174,43.7531333 10.9560116,45.0756953 L18.4343373,15.2029381 C18.9768449,13.0182644 20.3964413,11.2316489 22.3972822,10.190705 C24.3726783,9.16151892 26.7293677,9.15184719 28.8430016,9.85484938 L31.4038198,10.7072893 C33.0332414,11.249096 34.7950144,10.3693476 35.337522,8.74203124 L36.3213274,5.79423894 C36.8657338,4.16692256 35.9850372,2.40552943 34.3535268,1.86372278 L31.388249,0.877206078 C26.8733022,-0.633480583 21.9090823,-0.173409551 17.7402998,2.10646429 C13.5772139,4.39221703 10.5283857,8.34207666 9.37918868,12.9424077 L0.56310795,48.2332315 C0.359359035,49.050967 0.193587551,50.3985617 0.193587551,51.2413299 L0.193587551,64.8834031 C0.193587551,77.0980425 10.2230472,87 22.5936255,87 L29.8114261,87 Z M29.8114261,74.5716343 L22.5936255,74.5716343 C17.1043677,74.5716343 12.638032,70.2256129 12.638032,64.8834031 L12.638032,57.5933823 C16.1613881,56.3330228 21.0807946,55.0844212 26.750825,55.0844212 C31.3903378,55.0844212 35.9402238,55.9252929 40.3482642,57.5933823 L39.7396759,65.5979735 C39.3566735,70.62955 34.9953454,74.5716343 29.8114261,74.5716343 Z M89.7935496,74.5716343 L82.575749,74.5716343 C77.3899309,74.5716343 73.0286027,70.62955 72.6474992,65.5979735 L72.0389109,57.5933823 C76.4469513,55.9252929 80.9989261,55.0844212 85.6403378,55.0844212 C91.3023929,55.0844212 96.2238881,56.3349193 99.7472448,57.5952787 L99.7472448,64.8852996 C99.7491431,70.2275094 95.2828074,74.5716343 89.7935496,74.5716343 Z" id="path-1"></path>
    </defs>
    <g id="ico-glasses" stroke="none" stroke-width="1" fill="none" fill-rule="evenodd">
        <g id="Group-7" transform="translate(8.000000, 6.000000)">
            <mask id="mask-2" fill="white">
                <use xlink:href="#path-1"></use>
            </mask>
            <path stroke="#FFFFFF" stroke-width="3" d="M17.0205641,0.790417005 C21.5547055,-1.68926869 26.9539241,-2.1882439 31.8617658,-0.546093552 L31.8617658,-0.546093552 L34.8262739,0.440167306 C36.0355561,0.841756634 36.9664899,1.69536593 37.4944657,2.74995319 C38.0229941,3.80564433 38.1477473,5.0627723 37.7441773,6.26910529 L37.7441773,6.26910529 L36.7605289,9.21642704 C36.3583368,10.4228503 35.5044612,11.3524611 34.4488165,11.879856 C33.3939417,12.4068662 32.1377163,12.5320717 30.9300614,12.1305086 L30.9300614,12.1305086 L28.3695949,11.2781856 C26.6438351,10.7041917 24.7116164,10.6763059 23.0895765,11.5213923 C21.4753925,12.3611767 20.3279608,13.8012771 19.8894348,15.5672062 L19.8894348,15.5672062 L13.0397408,42.9288449 C16.9816288,41.9100372 21.6087439,41.1560555 26.7468373,41.1560555 C33.6183436,41.1560555 41.3546239,42.5191498 49.4212879,46.3507239 L49.4212879,46.3507239 L62.9699839,46.3507239 C71.0365623,42.5228596 78.7727489,41.1579519 85.6422366,41.1579519 C90.7787288,41.1579519 95.4055529,41.9119247 99.3473911,42.9307277 L99.3473911,42.9307277 L92.4973041,15.5692523 C92.0576414,13.803994 90.9136439,12.3645215 89.2988551,11.523045 C87.6773427,10.6781587 85.7434482,10.7060522 84.0176158,11.2800702 L84.0176158,11.2800702 L81.4546996,12.1325764 C80.2473753,12.5339827 78.9911667,12.4087854 77.9363512,11.8818049 C76.8807526,11.3544331 76.0269248,10.4248434 75.6249043,9.21879401 L75.6249043,9.21879401 L74.6414907,6.27217403 C74.237442,5.06483009 74.3621515,3.80771383 74.8906357,2.75200933 C75.418596,1.69735128 76.3495664,0.843687764 77.5580428,0.442319564 L77.5580428,0.442319564 L80.5208965,-0.543388385 C85.4311591,-2.18627734 90.8299804,-1.6853132 95.3664375,0.793258478 C99.8950671,3.27765093 103.211323,7.57655164 104.461337,12.5827315 L104.461337,12.5827315 L113.279632,47.8708345 C113.554291,48.974001 113.693588,50.1052185 113.693588,51.2432263 L113.693588,51.2432263 L113.693588,64.8852996 C113.693588,71.4080654 111.016754,77.3146478 106.686312,81.5899283 C102.362918,85.8582489 96.3907761,88.5 89.7935496,88.5 L89.7935496,88.5 L82.575749,88.5 C76.3249385,88.5 70.6030722,86.1198362 66.3269038,82.202384 C62.0443469,78.2790792 59.2114635,72.8144166 58.7441992,66.6514184 L58.7441992,66.6514184 L58.2798198,60.5361772 L54.1092542,60.5361772 L53.6448698,66.6514841 C53.1765759,72.8146864 50.3431274,78.279356 46.0602494,82.2026214 C41.7838651,86.1199384 36.0621047,88.5 29.8114261,88.5 L29.8114261,88.5 L22.5936255,88.5 C15.9962713,88.5 10.0240256,85.8581496 5.70060647,81.5894374 C1.3703337,77.3139581 -1.30641245,71.4070203 -1.30641245,64.8834031 L-1.30641245,64.8834031 L-1.30641245,51.2413299 C-1.30641245,50.296961 -1.12070506,48.7868972 -0.89217006,47.8696852 L-0.89217006,47.8696852 L7.92390903,12.578868 C9.17394177,7.57488329 12.4898613,3.27800832 17.0205641,0.790417005 Z M26.750825,56.5844212 C21.7982133,56.5844212 17.4399735,57.5740927 14.138032,58.663749 L14.138032,64.8834031 C14.138032,67.1363554 15.0837164,69.1768969 16.6033909,70.6557599 C18.1381169,72.14927 20.2577312,73.0716343 22.5936255,73.0716343 L29.8114261,73.0716343 C32.0178191,73.0716343 34.0494527,72.2332603 35.5700558,70.8588613 C37.0764359,69.4973177 38.0823861,67.6073126 38.2440027,65.4841232 L38.7662028,58.6157726 C34.8594315,57.2653635 30.8414676,56.5844212 26.750825,56.5844212 Z M85.6403378,56.5844212 C81.5479574,56.5844212 77.5280979,57.2653533 73.6209734,58.6157864 L74.1431825,65.4842568 C74.3040139,67.6076561 75.3094726,69.4974602 76.8156952,70.8588613 C78.3363542,72.2333108 80.3684876,73.0716343 82.575749,73.0716343 L89.7935496,73.0716343 C92.1296404,73.0716343 94.2494581,72.1495906 95.7840238,70.656244 C97.3030639,69.178006 98.2480453,67.1382881 98.2472449,64.8858326 L98.2472449,58.6656119 C94.9451032,57.5756699 90.5859337,56.5844212 85.6403378,56.5844212 Z"></path>
            <g id="Group-4" mask="url(#mask-2)">
                <g transform="translate(-23.806412, -11.000000)">
                    <path d="M10.7093504,11.589656 C17.1128746,11.0765079 23.5859681,10.5664142 29.9483833,11.4583145 C36.3139607,12.3471604 42.6479159,14.7723961 47.0181235,19.3265856 C52.074536,24.5894082 53.9497409,32.5157139 51.7614749,39.3760155 C50.4112009,43.6125419 47.6568949,48.2156027 49.8135386,52.1283571 C51.3345732,54.8804193 54.7814085,56.0563837 57.9847518,56.4351359 C62.3170127,56.948284 66.709356,56.4473537 71.0732392,56.5848041 C75.4371224,56.7222545 80.0160375,57.6111003 83.2731388,60.4211971 C88.623639,65.0334213 88.6584236,72.9627814 88.28528,79.8780632 C88.029139,84.6216288 87.7413757,89.4995903 85.6732745,93.8063691 C83.0992159,99.1638798 78.0522901,103.030817 72.7618722,105.990582 C60.7169221,112.725651 45.8101501,115.691525 32.6552558,111.293113 C19.5035237,106.897755 9.08712421,94.0507254 10.4279115,80.6691665 C10.9813025,75.1803143 13.3340047,70.0305065 14.7348745,64.6852136 C16.1357443,59.3399208 16.4614544,53.2798859 13.2960579,48.6890429 C11.0508717,45.4360504 7.37003103,43.3895668 4.67264525,40.4725642 C0.843179623,36.3337803 -0.8043444,30.398978 0.37516896,24.965106 C1.55152009,19.5342884 5.52328625,14.7357427 10.7536216,12.4265761" id="Fill-20" fill="#FF6700"></path>
                    <path d="M124.486393,37.7043171 C111.500944,28.0707762 92.6922684,26.5154083 78.2141668,33.8722071 C70.7477687,37.664748 64.0715984,44.4919304 63.9116714,52.6705479 C63.7956459,58.6180799 66.9879152,65.1530601 63.6576696,70.1448475 C60.9577247,74.1869777 55.1721285,75.0148839 50.2582916,74.3513415 C45.3475905,73.6847552 40.5121491,71.9376296 35.5700897,72.3607141 C25.3692527,73.2342769 18.0878683,83.7383368 18.432809,93.6732111 C18.7746138,103.605042 25.0337195,112.541559 32.634958,119.19829 C39.6592049,125.349755 49.5339161,130.23501 58.361262,126.938604 C64.5827378,124.619249 68.580914,118.881737 72.8644502,113.926475 C77.1511223,108.974257 83.0746947,104.204665 89.6787411,105.063009 C99.578539,106.350525 104.956478,119.435704 114.947215,119.487448 C122.959246,119.527017 127.910713,111.263174 131.140612,104.14379 C134.357968,97.0517989 137.603547,89.8898016 139.130693,82.2834134 C140.660975,74.6770252 140.3568,66.4831888 136.712972,59.5859997 C132.924896,52.414871 125.737587,46.9208611 123.777696,39.0861899" id="Fill-23" fill="#18335B"></path>
                    <path d="M104.906423,0.433879357 C95.7710847,2.268901 86.3348535,1.04758876 77.0351097,0.427772796 C67.7322638,-0.195096445 57.9765285,-0.121817711 49.6477052,3.99705781 C41.3126779,8.11898662 34.9381036,17.3765334 37.0660637,26.3134857 C38.1517576,30.8964599 41.287862,35.6717907 39.2064317,39.9097442 C38.2448171,41.8699503 36.3277918,43.1981274 35.0187551,44.956817 C31.5662485,49.5794838 33.1885854,56.6753079 37.6585424,60.3545111 C42.1316013,64.0306609 48.6178469,64.6291039 54.2262315,63.0810906 C59.837718,61.5300241 64.7140347,58.1072965 69.1529718,54.3914541 C71.5973341,52.3457561 74.0013707,50.1596072 76.9451522,48.9108154 C79.8951376,47.6620236 83.5678851,47.5368391 86.0897969,49.4848321 C88.6799524,51.4847309 89.3623886,54.9807372 90.6714252,57.9515792 C93.0692578,63.3925253 98.1658152,67.5999459 104.022358,68.9800288 C109.882004,70.3570583 116.358943,68.8762172 120.996407,65.0932026 C126.24186,60.8125032 128.841321,54.1777244 130.49778,47.6742368 C133.100343,37.4823861 133.847921,26.3959243 129.709876,16.7109182 C125.574934,7.02285889 115.608263,-0.753846795 104.965361,0.0583258441" id="Fill-26" fill="#FFBF1F"></path>
                </g>
            </g>
        </g>
    </g>
</svg>