<?xml version="1.0" encoding="UTF-8"?>
<svg width="94px" height="95px" viewBox="0 0 94 95" version="1.1" xmlns="http://www.w3.org/2000/svg" xmlns:xlink="http://www.w3.org/1999/xlink">
    <title>Internazionale</title>
    <defs>
        <path d="M63.7721774,29.6033819 C61.0241935,12.6796286 54.5427049,0.796930321 47,0.796930321 C39.4572951,0.796930321 32.9758065,12.6796286 30.2278226,29.6033819 L63.7721774,29.6033819 Z M90.3423757,29.6033819 C84.9221034,16.7351627 73.9492306,6.78556597 60.3988273,2.76797209 C65.0229098,9.17358024 68.2069289,18.8198402 69.8746338,29.6033819 L90.3423757,29.6033819 Z M24.1253662,29.6033819 C25.7741935,18.8198402 28.9580275,9.17358024 33.5822951,2.76797209 C20.0507694,6.78556597 9.05883395,16.7351627 3.65762428,29.6033819 L24.1253662,29.6033819 Z M64.5491195,59.9259626 C64.9472144,56.0408819 65.1746708,52.0042254 65.1746708,47.7969303 C65.1746708,43.5896352 64.9472144,39.5529787 64.5491195,35.6678981 L29.4318178,35.6678981 C29.033908,39.5529787 28.8064516,43.5896352 28.8064516,47.7969303 C28.8064516,52.0042254 29.033908,56.0408819 29.4318178,59.9259626 L64.5491195,59.9259626 Z M92.3511727,59.9259626 C93.3935114,56.0408819 93.9811224,52.0042254 93.9811224,47.7969303 C93.9811224,43.5896352 93.3935114,39.5529787 92.3702353,35.6678981 L70.6326983,35.6678981 C71.0306081,39.6477368 71.2580645,43.7223335 71.2580645,47.7969303 C71.2580645,51.8715271 71.0306081,55.9461239 70.6326983,59.9259626 L92.3511727,59.9259626 Z M23.3484241,59.9259626 C22.9693919,55.9461239 22.7419355,51.8715271 22.7419355,47.7969303 C22.7419355,43.7223335 22.9693919,39.6477368 23.3673017,35.6678981 L1.62976468,35.6678981 C0.606488628,39.5529787 0,43.5896352 0,47.7969303 C0,52.0042254 0.606488628,56.0408819 1.62976468,59.9259626 L23.3484241,59.9259626 Z M47,94.7969303 C54.5427049,94.7969303 61.0241935,82.914232 63.7721774,65.9904787 L30.2278226,65.9904787 C32.9758065,82.914232 39.4572951,94.7969303 47,94.7969303 Z M60.4177049,92.8258885 C73.9492306,88.8082947 84.941166,78.8586979 90.3612533,65.9904787 L69.8935114,65.9904787 C68.2258065,76.7740205 65.0419725,86.4202804 60.4177049,92.8258885 Z M33.6011727,92.8258885 C28.9770902,86.4202804 25.7930711,76.7740205 24.1253662,65.9904787 L3.65762428,65.9904787 C9.07789661,78.8586979 20.0507694,88.8082947 33.6011727,92.8258885 Z" id="path-1"></path>
    </defs>
    <g id="Internazionale" stroke="none" stroke-width="1" fill="none" fill-rule="evenodd">
        <g id="Fill-20-+-Fill-23-+-Fill-26-Mask">
            <mask id="mask-2" fill="white">
                <use xlink:href="#path-1"></use>
            </mask>
            <use id="Mask" fill="#000000" fill-rule="nonzero" xlink:href="#path-1"></use>
            <path d="M-24.0994112,-3.37211277 C-17.5815383,-3.89327882 -10.9928539,-4.4113427 -4.51682416,-3.50550646 C1.96242433,-2.60277241 8.4094858,-0.139642364 12.8577329,4.48570637 C18.0044385,9.8307606 19.9131292,17.8809148 17.6857869,24.8484086 C16.3114009,29.1511307 13.5079108,33.8261143 15.7030661,37.8000055 C17.2512621,40.5950687 20.759648,41.7894076 24.0201938,42.1740777 C28.4298164,42.6952438 32.9005945,42.1864865 37.3424042,42.3260845 C41.7842139,42.4656826 46.4448953,43.3684166 49.7601591,46.2224212 C55.206204,50.9067113 55.2416098,58.9599677 54.8618028,65.9833007 C54.6010879,70.8009846 54.308186,75.7551643 52.2031544,80.1292365 C49.5831304,85.5704583 44.446081,89.4978168 39.0611914,92.5038281 C26.8011529,99.3441326 11.6281885,102.356348 -1.76161466,97.8892107 C-15.1481991,93.4251752 -25.7506057,80.3774108 -24.3858758,66.7867651 C-23.8226028,61.2121496 -21.427888,55.981876 -20.0020027,50.5530629 C-18.5761175,45.1242499 -18.2445911,38.9695269 -21.4665125,34.3069521 C-23.7517914,31.0031315 -27.4983613,28.9246717 -30.2439147,25.9620908 C-34.1417636,21.7586384 -35.8187077,15.7311049 -34.6181316,10.2123286 C-33.4207742,4.69665453 -29.3780836,-0.176868511 -24.0543494,-2.52211575" id="Fill-20" fill="#FF6700" mask="url(#mask-2)"></path>
            <path d="M91.3050649,22.5547192 C78.1678378,12.7985291 59.1393209,11.2233591 44.4919947,18.6738209 C36.9383271,22.5146464 30.1841236,29.4287489 30.0223273,37.7114923 C29.9049456,43.7347453 33.1345272,50.3529254 29.7653566,55.4082657 C27.033854,59.5018582 21.1806339,60.3403049 16.2093625,59.6683146 C11.2412636,58.9932417 6.3493041,57.2238726 1.3494804,57.6523435 C-8.97058719,58.5370281 -16.3370787,69.1748202 -15.9881063,79.2361803 C-15.6423063,89.2944578 -9.31004223,98.3447498 -1.61995805,105.086231 C5.48639037,111.316013 15.4765203,116.263465 24.407043,112.925091 C30.7012373,110.576207 34.7461455,104.765648 39.079749,99.7472985 C43.416525,94.7320311 49.409334,89.9017151 56.0905705,90.7709871 C66.1060803,92.0748949 71.5468783,105.326668 81.65439,105.379071 C89.7600686,105.419144 94.7694098,97.0500895 98.037061,89.8400646 C101.292022,82.6577825 104.575536,75.4046023 106.120532,67.7013735 C107.668701,59.9981447 107.360971,51.6999887 103.674553,44.7149881 C99.8422004,37.4525603 92.5708832,31.8886035 90.5880851,23.9541854" id="Fill-23" fill="#18335B" mask="url(#mask-2)"></path>
            <path d="M82.8494321,-18.5566652 C73.5739214,-16.6816534 63.9929016,-17.9295814 54.5504632,-18.5629049 C45.1048753,-19.1993481 35.1994488,-19.1244725 26.7428287,-14.9158353 C18.2799094,-10.7040782 11.8075242,-1.24478393 13.9681356,7.88692926 C15.0704883,12.5697791 18.2547128,17.4491776 16.1413452,21.7794878 C15.1649756,23.7824122 13.2185357,25.139534 11.8894133,26.9365503 C8.38393168,31.6599578 10.0311616,38.9104195 14.5697052,42.6698026 C19.1113983,46.4260659 25.6971684,47.0375507 31.3916075,45.4558019 C37.0891963,43.8709333 42.0403347,40.3736151 46.5473825,36.5767941 C49.0292509,34.4865147 51.4701748,32.2527236 54.4591254,30.9767172 C57.4543752,29.7007108 61.1834769,29.5727982 63.7440848,31.5632434 C66.3739834,33.6067255 67.0668908,37.1789194 68.3960132,40.2145043 C70.8306379,45.7740236 76.0053965,50.0731355 81.951802,51.4832942 C87.9013571,52.890333 94.4776784,51.3772203 99.1862992,47.5117633 C104.512238,43.1377756 107.151585,36.3584067 108.83346,29.7131901 C111.475957,19.2992309 112.235006,7.9711644 108.033467,-1.9249047 C103.835078,-11.8240936 93.7154802,-19.7702752 82.9092741,-18.9404031" id="Fill-26" fill="#FFBF1F" mask="url(#mask-2)"></path>
        </g>
    </g>
</svg>