<?xml version="1.0" encoding="UTF-8"?>
<svg width="94px" height="95px" viewBox="0 0 94 95" version="1.1" xmlns="http://www.w3.org/2000/svg" xmlns:xlink="http://www.w3.org/1999/xlink">
    <title>Internazionale Copy 2</title>
    <defs>
        <path d="M40.5777778,24.4388889 C39.4445386,16.8536277 36.771642,11.5277778 33.6611111,11.5277778 C30.5505802,11.5277778 27.8776836,16.8536277 26.7444444,24.4388889 L40.5777778,24.4388889 Z M53.4888889,24.4388889 C50.9848291,19.1321582 45.9155767,15.0290396 39.6555556,13.3722222 C41.7917912,16.0138338 43.2627457,19.9918593 44.0331927,24.4388889 L53.4888889,24.4388889 Z M23.2949945,24.4388889 C24.057201,19.9918593 25.5289979,16.0138338 27.6666667,13.3722222 C21.4114231,15.0290396 16.3301606,19.1321582 13.8333333,24.4388889 L23.2949945,24.4388889 Z M42.1208314,39.1944444 C42.3126337,37.4220486 42.4222222,35.580503 42.4222222,33.6611111 C42.4222222,31.7417192 42.3126337,29.9001736 42.1208314,28.1277778 L25.2013017,28.1277778 C25.0095886,29.9001736 24.9,31.7417192 24.9,33.6611111 C24.9,35.580503 25.0095886,37.4220486 25.2013017,39.1944444 L42.1208314,39.1944444 Z M54.6251513,39.1944444 C55.0780276,37.4220486 55.3333333,35.580503 55.3333333,33.6611111 C55.3333333,31.7417192 55.0780276,29.9001736 54.6334336,28.1277778 L45.1888889,28.1277778 C45.3617731,29.9434028 45.4605986,31.8022569 45.4605986,33.6611111 C45.4605986,35.5199653 45.3617731,37.3788194 45.1888889,39.1944444 L54.6251513,39.1944444 Z M22.125138,39.1944444 C21.9605888,37.3788194 21.8618432,35.5199653 21.8618432,33.6611111 C21.8618432,31.8022569 21.9605888,29.9434028 22.1333333,28.1277778 L12.6964185,28.1277778 C12.2521837,29.9001736 11.9888889,31.7417192 11.9888889,33.6611111 C11.9888889,35.580503 12.2521837,37.4220486 12.6964185,39.1944444 L22.125138,39.1944444 Z M33.6611111,55.7944444 C36.771642,55.7944444 39.4445386,50.4685945 40.5777778,42.8833333 L26.7444444,42.8833333 C27.8776836,50.4685945 30.5505802,55.7944444 33.6611111,55.7944444 Z M39.6555556,53.95 C45.9068556,52.2931827 50.9849147,48.190064 53.4888889,42.8833333 L44.0331927,42.8833333 C43.2627457,47.3303629 41.7918767,51.3083884 39.6555556,53.95 Z M33.7217521,0 C52.348092,0 67.4420795,15.0907436 67.4420795,33.7155999 C67.4420795,41.5454548 64.7834353,48.7414364 60.3093017,54.4638684 L60.3093017,54.4638684 L62.95164,54.4638684 C63.9891982,54.4638684 64.9779973,54.869142 65.7074859,55.5986345 L65.7074859,55.5986345 L81.8713267,71.7593955 C83.3789049,73.2831294 83.3789049,75.7456416 81.8551792,77.2695338 L81.8551792,77.2695338 L77.2673796,81.8571996 C75.7598014,83.3809335 73.2957192,83.3809335 71.7719935,81.8571996 L71.7719935,81.8571996 L55.6081527,65.6964386 C54.878664,64.9669461 54.4733926,63.9781418 54.4733926,62.940578 L54.4733926,62.940578 L54.4733926,60.2982255 C48.7509911,64.7723831 41.5517235,67.4310414 33.7217521,67.4310414 C15.0939875,67.4310414 0,52.3402979 0,33.7155999 C0,15.0907436 15.0955705,0 33.7217521,0 Z M33.6611111,9.22222222 C20.1434501,9.22222222 9.22222222,20.1618762 9.22222222,33.661194 C9.22222222,47.1790769 20.1621784,58.1 33.6611111,58.1 C47.1789378,58.1 58.1,47.160346 58.1,33.661194 C58.1,20.1431453 47.1602096,9.22222222 33.6611111,9.22222222 Z M23.2890295,42.8833333 C24.0594766,47.3303629 25.530431,51.3083884 27.6666667,53.95 C21.4066456,52.2931827 16.3373931,48.190064 13.8333333,42.8833333 L13.8333333,42.8833333 Z" id="path-1"></path>
    </defs>
    <g id="Internazionale-Copy-2" stroke="none" stroke-width="1" fill="none" fill-rule="evenodd">
        <circle id="Oval" fill="#FFFFFF" cx="41" cy="41" r="27"></circle>
        <g id="Fill-20-+-Fill-23-+-Fill-26-Mask" transform="translate(7.000000, 6.000000)">
            <mask id="mask-2" fill="white">
                <use xlink:href="#path-1"></use>
            </mask>
            <path stroke="#FFFFFF" stroke-width="3" d="M33.7217521,-1.5 C43.4493265,-1.5 52.2544502,2.44070888 58.6276562,8.81302137 C65.0007468,15.1852185 68.9420795,23.9889853 68.9420795,33.7155999 C68.9420795,40.7491118 66.88772,47.2927018 63.3353594,52.7951377 L63.22,52.97 L63.4852349,52.9899116 C64.5437702,53.0936276 65.5436551,53.50438 66.3638866,54.1728303 L66.5651317,54.345283 L82.9376247,70.7044032 C83.9433096,71.7208654 84.4644383,73.0391101 84.4982442,74.3683447 C84.5302339,75.6261684 84.1255373,76.8935346 83.2829894,77.9243427 L83.0957412,78.1415197 L78.3336775,82.9121919 C77.325582,83.9310904 76.0096928,84.4598591 74.6796516,84.4978051 C73.4213734,84.5337036 72.1505191,84.1295371 71.1173291,83.285137 L70.8996602,83.0974557 L54.5474897,66.757096 C53.6663959,65.8759975 53.125056,64.7223772 53.0008548,63.4881623 L52.9806532,63.222524 L52.98,63.209 L52.8682964,63.2837546 C47.5021021,66.7650989 41.1303754,68.8209553 34.2783628,68.9267474 L33.7217521,68.9310414 C23.9935507,68.9310414 15.1881595,64.9904052 8.81480038,58.6182388 C2.44141089,52.246042 -1.5,43.4422333 -1.5,33.7155999 C-1.5,23.9891001 2.44163603,15.1854176 8.81498518,8.81323119 C15.1885872,2.44079195 23.9941631,-1.5 33.7217521,-1.5 Z M20.4107524,52.395286 L20.7417845,52.6246148 C23.746834,54.6742386 27.2648982,56.0277072 31.0640857,56.4549234 C30.8825141,56.3329703 30.702802,56.1965536 30.525308,56.046299 L30.5047166,56.0283745 C29.4314416,55.8925663 28.3548767,55.6837932 27.2828813,55.400072 C24.7883462,54.7398523 22.4730682,53.7146884 20.4107524,52.395286 Z M46.9589981,52.3614116 L46.8347524,52.4416056 C44.7907265,53.7386235 42.5016148,54.7474817 40.0398412,55.3999395 C38.9678695,55.6840502 37.8908691,55.8932382 36.8169542,56.0293585 C36.810275,56.0349656 36.8035958,56.0406429 36.7969143,56.046299 C36.6195836,56.1964152 36.440039,56.3327191 36.2585746,56.4553566 C40.2203965,56.0097648 43.874009,54.5579665 46.9589981,52.3614116 Z M26.6731896,18.0028709 L26.6048819,18.1616155 C25.7013328,20.3033486 25.0529745,22.8000514 24.6524292,25.4418938 L24.5802292,25.9388889 L12.05216,25.938472 C11.9707872,26.1664878 11.892918,26.3961715 11.8186168,26.6274582 L23.804353,26.6277778 C23.5278385,28.9088191 23.3618432,31.2849527 23.3618432,33.6611111 C23.3618432,35.7401808 23.4888883,37.819225 23.6935831,39.8347313 L23.7859195,40.6944444 L11.8180567,40.694829 C11.9379503,41.0681346 12.0671364,41.4372448 12.2053428,41.8018891 L24.5646738,41.3338973 C24.9716048,44.2388632 25.6688667,46.9879641 26.6686238,49.3082464 C25.9853229,47.1817405 25.4445027,44.6843875 25.1003118,41.9340143 L25.0344231,41.3833333 L42.2877991,41.3833333 C41.9484912,44.3544942 41.3811168,47.0462592 40.6503335,49.3153131 C41.588969,47.1396917 42.2611995,44.5861622 42.677282,41.8803447 L42.750596,41.3833333 L55.2700683,41.3838638 C55.3514408,41.1558492 55.4293097,40.9261668 55.5036107,40.6948814 L43.5177222,40.6944444 C43.7944649,38.4134059 43.9605986,36.037271 43.9605986,33.6611111 C43.9605986,31.5819712 43.8334025,29.5028505 43.6162075,27.4874392 L43.5177222,26.6277778 L55.5041766,26.6274682 C55.4297948,26.3958656 55.3518364,26.1658778 55.2703663,25.9375694 L42.7505932,25.9388889 C42.3425941,23.0514626 41.6473398,20.3197453 40.652863,18.0122693 C41.3367281,20.1396909 41.877665,22.6373993 42.2219104,25.3882079 L42.2877991,25.9388889 L25.0344231,25.9388889 C25.3739323,22.9659653 25.9417787,20.272769 26.6731896,18.0028709 Z M43.4507933,26.6277778 C43.7469781,28.8592123 43.9222222,31.1978781 43.9222222,33.6611111 C43.9222222,35.8506516 43.7837578,37.9417686 43.5449678,39.9466376 L43.4507933,40.6944444 L23.8712559,40.6944444 C23.5752445,38.4630115 23.4,36.1243457 23.4,33.6611111 C23.4,31.4715692 23.5384648,29.3804521 23.777133,27.3755841 L23.8712559,26.6277778 L43.4507933,26.6277778 Z M36.2578403,10.8672623 L36.3672205,10.9420892 C36.5117683,11.0445772 36.6550498,11.1558302 36.7969143,11.2759232 L36.8175548,11.2938525 C37.8907983,11.429658 38.9673441,11.6384287 40.0393409,11.9221502 C42.5365985,12.5830904 44.8541039,13.6097293 46.9180149,14.9311519 C43.839514,12.7510046 40.2000256,11.3104976 36.2578403,10.8672623 Z M31.0651529,10.8658486 L30.9190713,10.8839368 C27.0304579,11.3458627 23.4429922,12.7781063 20.4042912,14.931699 C22.4692048,13.6098786 24.7872281,12.5831703 27.2826074,11.9222227 C28.3544768,11.6383183 29.4313191,11.429249 30.505066,11.2932136 L30.525308,11.2759232 L30.525308,11.2759232 C30.7031289,11.1253919 30.8831761,10.9887495 31.0651529,10.8658486 Z"></path>
            <path d="M89.432666,2.55471924 C76.4022456,-7.20147089 57.5284321,-8.77664092 43.0001899,-1.32617914 C35.5079342,2.51464642 28.8086429,9.42874894 28.648162,17.7114923 C28.5317347,23.7347453 31.7350595,30.3529254 28.3932806,35.4082657 C25.6839852,39.5018582 19.8783524,40.3403049 14.9474978,39.6683146 C10.0197899,38.9932417 5.16760244,37.2238726 0.208427709,37.6523435 C-10.0277369,38.5370281 -17.3343382,49.1748202 -16.9882029,59.2361803 C-16.6452143,69.2944578 -10.3644321,78.3447498 -2.73686896,85.086231 C4.31170426,91.316013 14.2206137,96.2634649 23.0785305,92.9250908 C29.3215525,90.5762071 33.3335752,84.7656484 37.6319462,79.7472985 C41.9334638,74.7320311 47.8775508,69.9017151 54.5044683,70.7709871 C64.4385512,72.0748949 69.8351151,85.3266679 79.8604518,85.3790708 C87.9002307,85.4191436 92.8688454,77.0500895 96.1099305,69.8400646 C99.3384287,62.6577825 102.595247,55.4046023 104.127682,47.7013735 C105.663265,39.9981447 105.358036,31.6999887 101.701589,24.7149881 C97.9003939,17.4525603 90.6881931,11.8886035 88.7215153,3.95418538" id="Fill-23" fill="#18335B" mask="url(#mask-2)"></path>
            <path d="M75.07918,-17.5941301 C66.5383633,-15.87757 57.7162361,-17.0200393 49.0217136,-17.5998425 C40.3242911,-18.1825018 31.2034528,-18.1139537 23.416664,-14.2609759 C15.624075,-10.405142 9.664354,-1.74522473 11.6538278,6.61479439 C12.6688654,10.9019104 15.6008742,15.3689654 13.654902,19.3333339 C12.7558687,21.1669971 10.9636022,22.4094325 9.7397568,24.0545883 C6.51193709,28.3788346 8.02869334,35.0165812 12.2077483,38.45827 C16.3897034,41.8971026 22.4538283,42.4569126 27.6972228,41.0088327 C32.9435174,39.5578967 37.5024864,36.3561265 41.6525403,32.8801636 C43.9378251,30.9665276 46.1854084,28.9215075 48.9376105,27.7533327 C51.6956128,26.5851578 55.1293402,26.4680547 57.4871276,28.2902932 C59.9087174,30.1610867 60.5467411,33.4314051 61.7705865,36.2104617 C64.0123696,41.3001624 68.7772463,45.2359692 74.2526494,46.5269595 C79.7309525,47.8150936 85.7863771,46.4298496 90.1220379,42.8910509 C95.0261198,38.886696 97.4564099,32.6802315 99.0050674,26.5965825 C101.438258,17.0626762 102.137184,6.69191107 98.26844,-2.3678705 C94.4025967,-11.4305082 85.0845511,-18.7051815 75.1342821,-17.9454394" id="Fill-26" fill="#FFBF1F" mask="url(#mask-2)"></path>
            <path d="M-23.9472348,-4.42041179 C-17.9363076,-4.90148815 -11.8600764,-5.37970095 -5.88773783,-4.54354443 C0.0875691078,-3.71025145 6.03319246,-1.43659295 10.1354648,2.83295972 C14.881871,7.76685594 16.642108,15.1977675 14.5880035,21.6293003 C13.3205141,25.6010438 10.7350733,29.9164132 12.7594943,33.5846205 C14.187275,36.1646788 17.4227865,37.2671454 20.4297343,37.6222256 C24.4963863,38.103302 28.6194371,37.6336798 32.7157727,37.7625395 C36.8121083,37.8913993 41.1102924,38.7246923 44.1677023,41.359158 C49.1901659,45.6831181 49.2228179,53.1168933 48.8725515,59.5999699 C48.6321144,64.0470627 48.3619937,68.6201516 46.4206869,72.6577568 C44.0044425,77.680423 39.2669413,81.305677 34.3008765,84.0804567 C22.9943966,90.3945839 9.00155159,93.1750907 -3.34682241,89.0515791 C-15.6922281,84.930931 -25.4700031,72.8868408 -24.2114188,60.3416293 C-23.6919559,55.1958304 -21.4834967,50.3678855 -20.1685136,45.3566735 C-18.8535305,40.3454614 -18.5477895,34.6641787 -21.519117,30.3602634 C-23.626652,27.310583 -27.0818221,25.3920046 -29.6138324,22.6573146 C-33.2085153,18.7772047 -34.7550304,13.2133276 -33.6478325,8.11907256 C-32.5436029,3.02768111 -28.8153438,-1.47095555 -23.9056778,-3.63579916" id="Fill-20" fill="#FF6700" mask="url(#mask-2)"></path>
        </g>
    </g>
</svg>