<?xml version="1.0" encoding="UTF-8"?>
<svg width="28px" height="27px" viewBox="0 0 28 27" version="1.1" xmlns="http://www.w3.org/2000/svg" xmlns:xlink="http://www.w3.org/1999/xlink">
    <title>l</title>
    <g id="Page-1" stroke="none" stroke-width="1" fill="none" fill-rule="evenodd">
        <g id="HOME" transform="translate(-145.000000, -6544.000000)" fill="#FFFFFF" fill-rule="nonzero">
            <path d="M171,6571 C172.099976,6571 173,6570.12612 173,6569.05336 L173,6545.94664 C173,6544.87388 172.099976,6544 171,6544 L146.993774,6544 C145.893738,6544 145,6544.87388 145,6545.94664 L145,6569.05336 C145,6570.12612 145.893738,6571 146.993774,6571 L171,6571 Z M151.387512,6552.49777 C150.056274,6552.49777 148.981262,6551.45515 148.981262,6550.17746 C148.981262,6548.89977 150.056274,6547.85714 151.387512,6547.85714 C152.712524,6547.85714 153.793762,6548.89977 153.793762,6550.17746 C153.793762,6551.46115 152.71875,6552.49777 151.387512,6552.49777 Z M160.21875,6567.14286 L156.068726,6567.14286 L156.068726,6554.2576 L160.049988,6554.2576 L160.049988,6556.01743 L160.106262,6556.01743 C160.662476,6555.00489 162.018738,6553.93819 164.037476,6553.93819 C168.237488,6553.93819 169.018738,6556.60805 169.018738,6560.07945 L169.018738,6567.14286 L164.868774,6567.14286 L164.868774,6560.875 C164.868774,6559.38037 164.837524,6557.4578 162.712524,6557.4578 C160.549988,6557.4578 160.21875,6559.08503 160.21875,6560.76653 L160.21875,6567.14286 Z M153.46875,6567.14286 L149.3125,6567.14286 L149.3125,6554.2576 L153.46875,6554.2576 L153.46875,6567.14286 Z" id="l"></path>
        </g>
    </g>
</svg>