<?xml version="1.0" encoding="utf-8"?>
<!-- Generator: Adobe Illustrator 24.3.0, SVG Export Plug-In . SVG Version: 6.00 Build 0)  -->
<svg version="1.1" id="Layer_1" xmlns="http://www.w3.org/2000/svg" xmlns:xlink="http://www.w3.org/1999/xlink" x="0px" y="0px"
	 viewBox="0 0 76.8 75" style="enable-background:new 0 0 76.8 75;" xml:space="preserve">
<style type="text/css">
	.st0{fill:url(#SVGID_1_);}
	.st1{fill:#FF00FF;}
	.st2{fill:#939393;}
</style>
<g id="Form_8">
	
		<linearGradient id="SVGID_1_" gradientUnits="userSpaceOnUse" x1="71.1092" y1="34.7633" x2="-3.504524e-02" y2="34.7633" gradientTransform="matrix(1 0 0 -1 0 76)">
		<stop  offset="0" style="stop-color:#7BB9E7"/>
		<stop  offset="8.000000e-02" style="stop-color:#72B4E4"/>
		<stop  offset="0.22" style="stop-color:#58A7DB"/>
		<stop  offset="0.4" style="stop-color:#2F91CE"/>
		<stop  offset="0.57" style="stop-color:#0078BE"/>
		<stop  offset="1" style="stop-color:#154F9E"/>
	</linearGradient>
	<path class="st0" d="M66.6,51.9c3-9.3,0.2-19.3-2.7-28.6c1.3-0.4,2.4,1,3,2.2c5.5,11.1,6.1,25.4-1.3,35.3c-3,3.8-6.7,6.9-11,9.1
		c-11.4,6-24.8,6.8-36.7,2.1c-5.2-2.1-10.1-5.2-13.4-9.8C1,57.1-0.3,50.7,0,44.5c0.5-8.7,3.8-17.1,9.5-23.7C15.2,14.1,23,9.6,31.6,8
		c5-0.9,10.5-0.8,15,1.7s7.7,7.7,6.7,12.7c-0.2,1.3-2.3,1.2-3.1,0.2s-0.9-2.4-1.1-3.7c-0.8-3.6-3.8-6.4-7.3-7.6
		c-3.6-1-7.3-1.1-10.9-0.1C12.8,15.7,1.4,33.7,5.4,51.9c0.7,3.7,2.3,7.3,4.6,10.3c4.6,5.9,12.3,8.4,19.7,9.2s15.3-0.1,22-3.3
		S64.3,59,66.6,51.9L66.6,51.9z"/>
	<path class="st1" d="M59.4,3.8C60,3,60.8,2.4,61.6,1.9c3-1.9,6.8-2.4,10.1-1.1c3.3,1.4,5.6,5,4.9,8.5c-0.6,2.4-2.2,4.3-4.5,5.3
		c-2.3,0.9-4.8,1-7.1,0.2c-1-0.3-2.1,0.3-3.2,0.2c-1.2-0.3-2.2-1.2-2.6-2.4C58,9.8,57.5,6.2,59.4,3.8 M73,10.8c2-2.3,1-6.4-1.6-8
		s-6.2-1.2-8.7,0.6c-0.7,0.5-1.2,1.1-1.7,1.8c-0.3,0.7-0.6,1.4-0.7,2.2c-0.2,1.4-0.2,3,0.8,3.9c0.6,0.4,1.2,0.7,1.9,0.8
		c1.7,0.5,3.4,0.7,5.2,0.7C70.1,12.8,71.8,12.1,73,10.8L73,10.8z"/>
</g>
<path class="st2" d="M26.1,52.3c0.4,0,0.8,0.4,0.8,0.8c0,0.4-0.4,0.8-0.8,0.8s-0.8-0.4-0.8-0.8c0-0.2,0.1-0.4,0.2-0.5
	C25.7,52.4,25.9,52.3,26.1,52.3z M25.5,55.5c0-0.2,0.1-0.3,0.2-0.5c0.2-0.1,0.3-0.2,0.5-0.1c0.1,0,0.3,0,0.4,0l0.2,0.1v5.6h-1.3
	L25.5,55.5z"/>
<path class="st2" d="M28.2,57.1c0-0.3,0.1-0.7,0.2-1c0.1-0.3,0.3-0.6,0.6-0.8c0.3-0.2,0.6-0.4,0.9-0.5c0.4-0.1,0.7-0.2,1.1-0.2
	c0.4,0,0.8,0.1,1.1,0.2c0.3,0.1,0.6,0.3,0.9,0.5c0.2,0.2,0.4,0.5,0.6,0.8c0.1,0.3,0.2,0.7,0.2,1v3.5h-1.3v-3.1
	c0-0.4-0.1-0.9-0.4-1.2c-0.6-0.5-1.6-0.5-2.2,0c-0.3,0.3-0.4,0.8-0.4,1.2v3.2h-1.3V57.1z"/>
<path class="st2" d="M35.2,53.8c0-0.2,0.1-0.3,0.2-0.5c0.1-0.1,0.3-0.2,0.5-0.1c0.1,0,0.3,0,0.4,0l0.2,0.1v1.5h1.7
	c0.2,0,0.4,0,0.5,0.2c0.1,0.1,0.2,0.3,0.2,0.5c0,0.1,0,0.2-0.1,0.4c0,0.1-0.1,0.2-0.1,0.2h-2.2v2.6c0,0.2,0,0.3,0.1,0.5
	c0,0.1,0.1,0.2,0.2,0.3c0.1,0.1,0.2,0.1,0.3,0.2c0.1,0,0.3,0,0.4,0c0.2,0,0.4,0,0.6-0.1c0.1,0,0.3-0.1,0.4-0.2l0.5,0.9l-0.3,0.2
	c-0.1,0.1-0.3,0.1-0.4,0.2c-0.2,0.1-0.4,0.1-0.5,0.2c-0.2,0-0.4,0.1-0.7,0.1c-0.6,0-1.1-0.1-1.5-0.5c-0.4-0.4-0.5-0.9-0.5-1.4
	L35.2,53.8z"/>
<path class="st2" d="M39.9,59.9c0-0.1,0-0.2,0.1-0.3c0-0.1,0.1-0.2,0.2-0.3c0.1-0.1,0.2-0.1,0.3-0.2c0.1,0,0.2-0.1,0.3-0.1
	c0.5,0,0.9,0.4,0.9,0.9c0,0,0,0,0,0c0,0.1,0,0.2-0.1,0.3c0,0.1-0.1,0.2-0.2,0.3c-0.1,0.1-0.2,0.2-0.3,0.2c-0.1,0-0.2,0.1-0.3,0.1
	c-0.2,0-0.5-0.1-0.6-0.3C40,60.4,39.9,60.1,39.9,59.9z"/>
<path class="st2" d="M25.2,33.4c0-0.3,0.1-0.7,0.4-0.9c0.3-0.2,0.6-0.3,1-0.3c0.3,0,0.5,0,0.8,0.1l0.5,0.2v10.4c0,1-0.1,2-0.5,2.9
	c-0.3,0.8-0.7,1.5-1.3,2.1c-0.6,0.6-1.2,1-2,1.2c-0.8,0.3-1.6,0.4-2.5,0.4c-0.9,0-1.7-0.1-2.5-0.5c-0.7-0.3-1.4-0.7-2-1.3
	c-0.6-0.6-1-1.2-1.3-2c-0.3-0.8-0.5-1.6-0.5-2.5c0-0.8,0.2-1.7,0.5-2.4c0.3-0.7,0.7-1.4,1.2-2c0.5-0.5,1.2-1,1.9-1.3
	c0.7-0.3,1.5-0.5,2.4-0.5c0.8,0,1.6,0.2,2.4,0.5c0.6,0.3,1.2,0.7,1.6,1.3V33.4z M25.2,43.4c0-0.5-0.1-1-0.3-1.5
	c-0.2-0.4-0.4-0.8-0.7-1.2c-0.3-0.3-0.7-0.6-1.1-0.8c-0.9-0.4-2-0.4-2.9,0c-0.4,0.2-0.8,0.5-1.1,0.8c-0.3,0.3-0.6,0.7-0.7,1.2
	c-0.2,0.5-0.3,1-0.2,1.5c0,0.5,0.1,1,0.2,1.5c0.1,0.4,0.4,0.9,0.7,1.2c0.7,0.7,1.6,1.1,2.6,1.1c0.5,0,1-0.1,1.5-0.3
	c0.4-0.2,0.8-0.4,1.1-0.8c0.3-0.3,0.6-0.7,0.8-1.1C25.1,44.5,25.2,44,25.2,43.4L25.2,43.4z"/>
<path class="st2" d="M40.7,49.2L40,49.3l-1.2,0.1l-1.5,0.1c-0.6,0-1.1,0-1.7,0c-1,0-2-0.1-3-0.3c-0.7-0.2-1.3-0.4-1.8-0.8
	c-0.4-0.3-0.7-0.7-0.9-1.2c-0.2-0.4-0.2-0.9-0.2-1.4c0-0.6,0.1-1.1,0.3-1.7c0.2-0.5,0.5-0.9,1-1.2c0.5-0.4,1.1-0.6,1.7-0.7
	c0.9-0.2,1.8-0.2,2.6-0.2c0.6,0,1.1,0,1.7,0.1l1.2,0.1c0-0.5-0.1-0.9-0.3-1.3c-0.2-0.3-0.4-0.6-0.7-0.8c-0.3-0.2-0.7-0.4-1.1-0.4
	c-0.5-0.1-1-0.1-1.4-0.1c-0.7,0-1.4,0.1-2.1,0.3c-0.4,0.1-0.7,0.3-1,0.5c-0.1-0.1-0.3-0.3-0.4-0.4c-0.2-0.2-0.3-0.5-0.2-0.8
	c0-0.2,0.1-0.4,0.2-0.6c0.1-0.2,0.4-0.4,0.6-0.6c0.4-0.2,0.8-0.3,1.2-0.4c0.6-0.1,1.3-0.1,1.9-0.1c0.8,0,1.7,0.1,2.5,0.3
	c0.7,0.2,1.3,0.4,1.9,0.9c0.5,0.4,1,0.9,1.3,1.5c0.3,0.7,0.5,1.5,0.5,2.3V49.2z M38.1,44.1l-0.9-0.1c-0.6-0.1-1.3-0.1-1.9-0.1
	c-0.8-0.1-1.6,0.1-2.3,0.5c-0.5,0.3-0.8,0.9-0.7,1.5c0,0.3,0,0.5,0.2,0.8c0.1,0.2,0.3,0.4,0.5,0.6c0.3,0.2,0.6,0.3,1,0.4
	c0.5,0.1,1.1,0.1,1.6,0.1c0.6,0,1.1,0,1.7-0.1l0.8-0.1L38.1,44.1z"/>
<path class="st2" d="M43.5,33.4c0-0.4,0.1-0.7,0.4-0.9c0.3-0.2,0.6-0.3,1-0.3c0.3,0,0.5,0,0.8,0.1l0.5,0.2v16.8h-2.6V33.4z"/>
<path class="st2" d="M49.1,33.4c0-0.4,0.1-0.7,0.4-0.9c0.3-0.2,0.6-0.3,1-0.3c0.3,0,0.5,0,0.8,0.1l0.5,0.2v16.8h-2.6V33.4z"/>
</svg>
