<?xml version="1.0" encoding="UTF-8"?>
<svg width="117px" height="20px" viewBox="0 0 117 20" version="1.1" xmlns="http://www.w3.org/2000/svg" xmlns:xlink="http://www.w3.org/1999/xlink">
    <title>logoblu</title>
    <g id="Page-1" stroke="none" stroke-width="1" fill="none" fill-rule="evenodd">
        <g id="logoblu">
            <path d="M0,19 L4.50027862,19 L4.50027862,11.5522709 C4.50027862,8.00567879 9,8.71476884 9,8.71476884 L9,4.10397078 C1.03869729,3.04033572 0,10.4880649 0,10.4880649 L0,19 Z" id="Fill-1" fill="#18335B" fill-rule="nonzero"></path>
            <path d="M23.4520155,11.5027539 C23.4520155,9.62916077 24.9667902,8.11074573 26.835318,8.11074573 C28.082341,8.11074573 29.1504807,8.82455023 29.1504807,8.82455023 L31.6439534,5.61185527 C29.8625739,3.8267693 26.4792714,4.00493307 26.4792714,4.00493307 C22.3489018,4.00493307 19,7.3618832 19,11.5027539 C19,15.6430499 22.3489018,19 26.4792714,19 C30.574667,19 32,17.0361756 32,17.0361756 L29.5065273,13.8229059 C29.5065273,13.8229059 28.4383876,14.8941873 26.835318,14.8941873 C24.9667902,14.8941873 23.4520155,13.3757723 23.4520155,11.5027539 Z" id="Fill-4" fill="#18335B" fill-rule="nonzero"></path>
            <path d="M54.4520155,11.5027539 C54.4520155,9.62916077 55.9667902,8.11074573 57.835318,8.11074573 C59.0817677,8.11074573 60.1504807,8.82455023 60.1504807,8.82455023 L62.6433801,5.61185527 C60.8625739,3.8267693 57.4792714,4.00493307 57.4792714,4.00493307 C53.3483285,4.00493307 50,7.3618832 50,11.5027539 C50,15.6430499 53.3483285,19 57.4792714,19 C61.574667,19 63,17.0361756 63,17.0361756 L60.5065273,13.8229059 C60.5065273,13.8229059 59.4378142,14.8941873 57.835318,14.8941873 C55.9667902,14.8941873 54.4520155,13.3757723 54.4520155,11.5027539 Z" id="Fill-6" fill="#18335B" fill-rule="nonzero"></path>
            <path d="M84.4520155,11.5027539 C84.4520155,9.62916077 85.9667902,8.11074573 87.835318,8.11074573 C89.082341,8.11074573 90.1504807,8.82455023 90.1504807,8.82455023 L92.6439534,5.61185527 C90.8625739,3.8267693 87.4792714,4.00493307 87.4792714,4.00493307 C83.3489018,4.00493307 80,7.3618832 80,11.5027539 C80,15.6430499 83.3489018,19 87.4792714,19 C91.5752404,19 93,17.0361756 93,17.0361756 L90.5065273,13.8229059 C90.5065273,13.8229059 89.4383876,14.8941873 87.835318,14.8941873 C85.9667902,14.8941873 84.4520155,13.3757723 84.4520155,11.5027539 Z" id="Fill-8" fill="#18335B" fill-rule="nonzero"></path>
            <polygon id="Fill-10" fill="#18335B" fill-rule="nonzero" points="39 1 35 1 35 19 39 19 39 11.6159468 39 6.35923097"></polygon>
            <polygon id="Fill-12" fill="#18335B" fill-rule="nonzero" points="66 19 70 19 70 1 66 1"></polygon>
            <polygon id="Fill-14" fill="#18335B" fill-rule="nonzero" points="12 19 16 19 16 7 12 7"></polygon>
            <path d="M39,6.58839664 L39,11.749813 C39,11.2866761 39.2835713,8.77200565 41.3617189,8.77200565 C43.4404559,8.77200565 43.3732477,10.7572105 43.3732477,10.7572105 L43.3732477,19 L48,19 L48,10.1637437 C48,7.45183277 46.6587842,5 43.3738373,5 C40.0888903,5 39,6.58839664 39,6.58839664 Z" id="Fill-15" fill="#18335B" fill-rule="nonzero"></path>
            <path d="M11,2.5 C11,3.88084112 12.1192896,5 13.5002921,5 C14.8807104,5 16,3.88084112 16,2.5 C16,1.11915888 14.8807104,0 13.5002921,0 C12.1192896,0 11,1.11915888 11,2.5 Z" id="Fill-16" fill="#18335B" fill-rule="nonzero"></path>
            <polygon id="Fill-17" fill="#18335B" fill-rule="nonzero" points="73 19 77 19 77 7 73 7"></polygon>
            <path d="M73,2.5 C73,3.88084112 74.1192896,5 75.5002921,5 C76.8807104,5 78,3.88084112 78,2.5 C78,1.11915888 76.8807104,0 75.5002921,0 C74.1192896,0 73,1.11915888 73,2.5 Z" id="Fill-18" fill="#18335B" fill-rule="nonzero"></path>
            <polygon id="path-2" fill="#18335B" fill-rule="nonzero" points="100.438749 1 93 10.5173213 100.504739 20 106 20 98.6453439 10.6506072 105.963793 1"></polygon>
            <path d="M110.328983,8.32045533 C110.328983,7.6219386 111.989559,7.12751524 113.501305,8.61136024 L115.99217,5.55685869 C115.99217,5.55685869 114.479252,4 111.692484,4 C108.905716,4 106.208012,5.35276532 106.208012,8.43658733 C106.208012,11.5204093 108.728173,12.5966425 110.743834,12.974359 C112.760667,13.3526503 112.846215,13.8562723 112.806371,14.2362884 C112.76594,14.6122801 112.492889,14.9687248 111.159271,14.9687248 C109.825068,14.9687248 108.461567,13.6728757 108.461567,13.6728757 L106,16.6399908 C106,16.6399908 107.986363,19 111.277047,19 C114.977894,19 117,16.5244337 117,14.1966195 C117,12.2183512 116.140414,10.0946303 111.870612,9.2219156 C111.870612,9.2219156 110.328983,9.01839715 110.328983,8.32045533 Z" id="Fill-30" fill="#18335B" fill-rule="nonzero"></path>
            <g id="Clip-24" transform="translate(93.000000, 1.000000)"></g>
        </g>
    </g>
</svg>