<?xml version="1.0" encoding="UTF-8"?>
<svg width="68px" height="68px" viewBox="0 0 68 68" version="1.1" xmlns="http://www.w3.org/2000/svg" xmlns:xlink="http://www.w3.org/1999/xlink">
    <title>mail</title>
    <g id="Page-1" stroke="none" stroke-width="1" fill="none" fill-rule="evenodd">
        <g id="HOME" transform="translate(-180.000000, -6439.000000)">
            <g id="mail" transform="translate(180.000000, 6439.000000)">
                <circle id="Oval-Copy" fill="#FFFFFF" cx="34" cy="34" r="34"></circle>
                <path d="M34,38.9996858 C35.8125153,39.0309658 38.4218445,36.7184564 39.7344055,35.7653311 C50.101532,28.242027 50.8906403,27.5858331 53.2812347,25.7108626 C53.7343445,25.3593056 54,24.8124392 54,24.2342928 L54,22.7499411 C54,20.6796611 52.3203125,19 50.25,19 L17.75,19 C15.6796875,19 14,20.6796611 14,22.7499411 L14,24.2342928 C14,24.8124392 14.2656555,25.3514475 14.7187653,25.7108626 C17.1093597,27.577975 17.898468,28.242027 28.2655945,35.7653311 C29.5781555,36.7184564 32.1874847,39.0309658 34,38.9996858 Z M50.25,49 C52.3203125,49 54,47.3364355 54,45.2859954 L54,29.4627885 C54,29.0836203 53.5468903,28.8592779 53.2421722,29.0991105 C51.492218,30.4454673 49.1796722,32.1632096 41.2109222,37.8966739 C39.625,39.0418102 36.7890778,41.6029711 34,41.5796982 C31.2265625,41.5951883 28.445343,39.0882806 26.7968597,37.8966739 C18.8281097,32.1632096 16.507782,30.4531746 14.7578278,29.1068933 C14.4453278,28.8669852 14,29.0836203 14,29.4704958 L14,45.2859954 C14,47.3364355 15.6796875,49 17.75,49 L50.25,49 Z" id="e" fill="#18335B" fill-rule="nonzero"></path>
            </g>
        </g>
    </g>
</svg>