<?xml version="1.0" encoding="UTF-8"?>
<svg width="106px" height="94px" viewBox="0 0 106 94" version="1.1" xmlns="http://www.w3.org/2000/svg" xmlns:xlink="http://www.w3.org/1999/xlink">
    <title>premio</title>
    <defs>
        <path d="M80.2361111,94 C81.4506226,94 82.4444444,93.008522 82.4444444,91.796875 L82.4444444,89.59375 C82.4444444,83.1129265 77.1628113,79.3125 70.6666667,79.3125 L61.8333333,79.3125 L61.8333333,66.09375 C61.8333333,66.09375 68.5871887,62.1464844 74.3655531,52.5813217 C81.7820163,51.7366829 88.8302443,49.0930405 94.6086087,44.9254265 C101.841044,39.7297592 106,32.9918327 106,26.4375 L106,16.15625 C106,13.714489 104.030867,11.75 101.583333,11.75 L82.4444444,11.75 L82.4444444,4.40625 C82.4444444,1.96448898 80.4753113,0 78.0277778,0 L27.9722222,0 C25.5246887,0 23.5555556,1.96448898 23.5555556,4.40625 L23.5555556,11.75 L4.41666667,11.75 C1.96913317,11.75 0,13.714489 0,16.15625 L0,26.4375 C0,32.9918327 4.140625,39.7297592 11.3913913,44.9254265 C17.1882663,49.0930405 24.2364943,51.7366829 31.6344469,52.5813217 C37.4128113,62.1464844 44.1666667,66.09375 44.1666667,66.09375 L44.1666667,79.3125 L35.3333333,79.3125 C28.8371887,79.3125 23.5555556,83.1129265 23.5555556,89.59375 L23.5555556,91.796875 C23.5555556,93.008522 24.5493774,94 25.7638889,94 L80.2361111,94 Z M26,40 C23.2546165,39.0347687 20.6908736,37.6983086 18.4181463,36.0277787 C13.9818892,32.7610373 12,29.1228857 12,26.9698309 L12,24 L23.6727628,24 C23.854581,30.0509579 24.7272727,35.3596393 26,40 Z M80,40 C81.271083,35.3596393 82.1426472,30.0509579 82.3242305,24 L94,24 L94,26.9698309 C94,29.9581507 90.7859405,33.6704392 87.5901457,36.0277787 C85.3203547,37.6983086 82.7418366,39.0347687 80,40 Z" id="path-1"></path>
    </defs>
    <g id="premio" stroke="none" stroke-width="1" fill="none" fill-rule="evenodd">
        <g id="Fill-20-+-Fill-23-+-Fill-26-Mask">
            <mask id="mask-2" fill="white">
                <use xlink:href="#path-1"></use>
            </mask>
            <use id="Mask" fill="#000000" fill-rule="nonzero" xlink:href="#path-1"></use>
            <path d="M-11.0994112,0.627887229 C-4.58153832,0.106721175 2.00714606,-0.4113427 8.48317584,0.494493537 C14.9624243,1.39722759 21.4094858,3.86035764 25.8577329,8.48570637 C31.0044385,13.8307606 32.9131292,21.8809148 30.6857869,28.8484086 C29.3114009,33.1511307 26.5079108,37.8261143 28.7030661,41.8000055 C30.2512621,44.5950687 33.759648,45.7894076 37.0201938,46.1740777 C41.4298164,46.6952438 45.9005945,46.1864865 50.3424042,46.3260845 C54.7842139,46.4656826 59.4448953,47.3684166 62.7601591,50.2224212 C68.206204,54.9067113 68.2416098,62.9599677 67.8618028,69.9833007 C67.6010879,74.8009846 67.308186,79.7551643 65.2031544,84.1292365 C62.5831304,89.5704583 57.446081,93.4978168 52.0611914,96.5038281 C39.8011529,103.344133 24.6281885,106.356348 11.2383853,101.889211 C-2.1481991,97.4251752 -12.7506057,84.3774108 -11.3858758,70.7867651 C-10.8226028,65.2121496 -8.42788802,59.981876 -7.00200274,54.5530629 C-5.57611745,49.1242499 -5.24459107,42.9695269 -8.46651245,38.3069521 C-10.7517914,35.0031315 -14.4983613,32.9246717 -17.2439147,29.9620908 C-21.1417636,25.7586384 -22.8187077,19.7311049 -21.6181316,14.2123286 C-20.4207742,8.69665453 -16.3780836,3.82313149 -11.0543494,1.47788425" id="Fill-20" fill="#FF6700" mask="url(#mask-2)"></path>
            <path d="M104.305065,26.5547192 C91.1678378,16.7985291 72.1393209,15.2233591 57.4919947,22.6738209 C49.9383271,26.5146464 43.1841236,33.4287489 43.0223273,41.7114923 C42.9049456,47.7347453 46.1345272,54.3529254 42.7653566,59.4082657 C40.033854,63.5018582 34.1806339,64.3403049 29.2093625,63.6683146 C24.2412636,62.9932417 19.3493041,61.2238726 14.3494804,61.6523435 C4.02941281,62.5370281 -3.33707872,73.1748202 -2.98810625,83.2361803 C-2.64230626,93.2944578 3.68995777,102.34475 11.380042,109.086231 C18.4863904,115.316013 28.4765203,120.263465 37.407043,116.925091 C43.7012373,114.576207 47.7461455,108.765648 52.079749,103.747298 C56.416525,98.7320311 62.409334,93.9017151 69.0905705,94.7709871 C79.1060803,96.0748949 84.5468783,109.326668 94.65439,109.379071 C102.760069,109.419144 107.76941,101.05009 111.037061,93.8400646 C114.292022,86.6577825 117.575536,79.4046023 119.120532,71.7013735 C120.668701,63.9981447 120.360971,55.6999887 116.674553,48.7149881 C112.8422,41.4525603 105.570883,35.8886035 103.588085,27.9541854" id="Fill-23" fill="#18335B" mask="url(#mask-2)"></path>
            <path d="M84.8494321,-11.5566652 C75.5739214,-9.68165338 65.9929016,-10.9295814 56.5504632,-11.5629049 C47.1048753,-12.1993481 37.1994488,-12.1244725 28.7428287,-7.91583525 C20.2799094,-3.70407823 13.8075242,5.75521607 15.9681356,14.8869293 C17.0704883,19.5697791 20.2547128,24.4491776 18.1413452,28.7794878 C17.1649756,30.7824122 15.2185357,32.139534 13.8894133,33.9365503 C10.3839317,38.6599578 12.0311616,45.9104195 16.5697052,49.6698026 C21.1113983,53.4260659 27.6971684,54.0375507 33.3916075,52.4558019 C39.0891963,50.8709333 44.0403347,47.3736151 48.5473825,43.5767941 C51.0292509,41.4865147 53.4701748,39.2527236 56.4591254,37.9767172 C59.4543752,36.7007108 63.1834769,36.5727982 65.7440848,38.5632434 C68.3739834,40.6067255 69.0668908,44.1789194 70.3960132,47.2145043 C72.8306379,52.7740236 78.0053965,57.0731355 83.951802,58.4832942 C89.9013571,59.890333 96.4776784,58.3772203 101.186299,54.5117633 C106.512238,50.1377756 109.151585,43.3584067 110.83346,36.7131901 C113.475957,26.2992309 114.235006,14.9711644 110.033467,5.0750953 C105.835078,-4.82409361 95.7154802,-12.7702752 84.9092741,-11.9404031" id="Fill-26" fill="#FFBF1F" mask="url(#mask-2)"></path>
        </g>
    </g>
</svg>