<?xml version="1.0" encoding="UTF-8"?>
<svg width="23px" height="23px" viewBox="0 0 23 23" version="1.1" xmlns="http://www.w3.org/2000/svg" xmlns:xlink="http://www.w3.org/1999/xlink">
    <!-- Generator: Sketch 64 (93537) - https://sketch.com -->
    <title>puntato2</title>
    <desc>Created with Sketch.</desc>
    <g id="puntato2" stroke="none" stroke-width="1" fill="none" fill-rule="evenodd">
        <g id="Group-4-Copy-3" transform="translate(11.500000, 11.500000) rotate(100.000000) translate(-11.500000, -11.500000) translate(2.000000, 2.000000)">
            <path d="M1.74087145,1.98440277 C2.53750036,1.91925701 3.34278401,1.85449903 4.13429876,1.96772856 C4.92620691,2.08057031 5.71418108,2.38846157 6.25785573,2.96663016 C6.88689752,3.63476194 7.12018194,4.64103122 6.84795122,5.51196794 C6.6799707,6.04980821 6.33732192,6.63418116 6.60561867,7.13091755 C6.79484263,7.48030045 7.22364535,7.62959281 7.62215651,7.67767658 C8.16111039,7.74282234 8.70753881,7.67922767 9.25042666,7.69667743 C9.79331451,7.71412718 10.3629534,7.82696894 10.7681523,8.18371951 C11.43378,8.76925578 11.4381073,9.77591283 11.3916865,10.6538295 C11.3598213,11.2560399 11.3240222,11.8753124 11.0667406,12.4220714 C10.7465154,13.1022241 10.1186538,13.593144 9.46050066,13.9688954 C7.96205151,14.8239334 6.10757808,15.2004604 4.47104658,14.6420682 C2.83490849,14.0840638 1.53905879,12.4530932 1.70585911,10.7542625 C1.77470359,10.0574356 2.06739095,9.40365136 2.24166582,8.72504973 C2.41594069,8.0464481 2.45646058,7.27710773 2.06267019,6.69428587 C1.78335832,6.28130831 1.32544422,6.02150082 0.989876585,5.65117822 C0.513472825,5.12574667 0.308512991,4.37230497 0.45525007,3.68245794 C0.601593752,2.99299868 1.09570038,2.3838083 1.746379,2.09065239" id="Fill-20" fill="#FFFFFF"></path>
            <path d="M16.1283845,6.26266867 C14.5262836,4.99436395 12.2057328,4.78959184 10.4194735,5.75815188 C9.49829453,6.2574592 8.67461118,7.15629253 8.65487992,8.23304917 C8.64056509,9.01607205 9.0344165,9.87643547 8.62354204,10.5336297 C8.29043196,11.0657967 7.57662464,11.1747948 6.97037203,11.0874361 C6.3645063,10.9996766 5.76792588,10.7696586 5.15819128,10.8253598 C3.89964645,10.9403688 3.00129383,12.3232818 3.04385145,13.6312586 C3.08602218,14.9388347 3.8582495,16.1153726 4.79606464,16.9917652 C5.6626925,17.8016369 6.88100103,18.4448056 7.97008916,18.010817 C8.73767383,17.7054621 9.23095531,16.9500895 9.75944355,16.297704 C10.2883187,15.6457192 11.019149,15.0177781 11.833934,15.1307835 C13.0553376,15.3002915 13.7188496,17.023022 14.9514729,17.0298344 C15.9399703,17.0350438 16.5508656,15.9470668 16.9493597,15.0097636 C17.3463062,14.0760669 17.7467347,13.1331535 17.9351488,12.1317337 C18.1239499,11.130314 18.0864218,10.0515537 17.6368586,9.14350361 C17.1694986,8.199388 16.2827526,7.47607362 16.040948,6.44459926" id="Fill-23" fill="#18335B"></path>
            <path d="M14.0386814,0.458205782 C12.9366405,0.695883338 11.7983015,0.537695281 10.6764277,0.457414842 C9.55417961,0.376738932 8.37729725,0.386230216 7.37255031,0.919719439 C6.36705496,1.45360413 5.59805869,2.65266961 5.85476499,3.81021071 C5.98573759,4.4038114 6.3640613,5.0223267 6.11296811,5.57123926 C5.99696381,5.82513109 5.76570362,5.99716061 5.60778809,6.22495141 C5.19129522,6.8236932 5.38700571,7.74276582 5.92623861,8.21930734 C6.46584572,8.69545339 7.24831344,8.77296554 7.92488047,8.57246218 C8.60182171,8.37156334 9.19007578,7.92824131 9.72556661,7.44695415 C10.0204421,7.18198915 10.3104528,6.89883253 10.6655757,6.73708524 C11.0214469,6.57533796 11.4645085,6.55912368 11.7687392,6.81143363 C12.0812024,7.07046657 12.163528,7.52327989 12.3214435,7.90807234 C12.6107059,8.61280013 13.2255287,9.15775799 13.9320323,9.33651049 C14.6389101,9.51486753 15.4202552,9.32306451 15.9796953,8.833077 C16.6124801,8.27862786 16.9260659,7.41927124 17.1258927,6.57691984 C17.4398527,5.2568405 17.5300367,3.82088841 17.030844,2.56645711 C16.5320255,1.31163035 15.329697,0.304367896 14.0457913,0.409562954" id="Fill-26" fill="#FFBF1F"></path>
        </g>
    </g>
</svg>