<?xml version="1.0" encoding="UTF-8"?>
<svg width="28px" height="27px" viewBox="0 0 28 27" version="1.1" xmlns="http://www.w3.org/2000/svg" xmlns:xlink="http://www.w3.org/1999/xlink">
    <title>s</title>
    <g id="Page-1" stroke="none" stroke-width="1" fill="none" fill-rule="evenodd">
        <g id="HOME" transform="translate(-145.000000, -6605.000000)" fill="#FFFFFF" fill-rule="nonzero">
            <path d="M165.998365,6632 C169.861697,6632 172.999948,6628.97387 172.999948,6625.2485 C173.006122,6623.70526 172.462241,6622.28265 171.549566,6621.14331 C171.730819,6620.29937 171.843392,6619.40122 171.843392,6618.503 C171.843392,6611.66108 166.098362,6606.12727 159.009288,6606.12727 C158.077871,6606.12727 157.152681,6606.22976 156.271202,6606.41061 C155.083442,6605.52446 153.608144,6605 152.001531,6605 C148.138198,6605 145,6608.02613 145,6611.7515 C145,6613.30074 145.543881,6614.72336 146.456556,6615.86269 C146.275303,6616.70663 146.16273,6617.60479 146.16273,6618.503 C146.16273,6625.34493 151.90776,6630.87873 158.996834,6630.87873 C159.928251,6630.87873 160.853441,6630.77624 161.73492,6630.5954 C162.92268,6631.47554 164.397978,6632 165.998365,6632 Z M159.38437,6626.65905 C155.283498,6626.65905 151.851473,6624.89882 151.851473,6622.74076 C151.851473,6621.77626 152.414096,6620.89618 153.695626,6620.89618 C155.646065,6620.89618 155.827379,6623.60277 159.203117,6623.60277 C160.80973,6623.60277 161.847433,6622.9156 161.847433,6622.01739 C161.847433,6620.89012 160.847214,6620.71534 159.221859,6620.32951 C155.314755,6619.40122 151.857761,6619.00332 151.857761,6615.07298 C151.857761,6611.50437 155.521038,6610.18419 158.677978,6610.18419 C162.122517,6610.18419 165.60448,6611.50437 165.60448,6613.52379 C165.60448,6614.54251 164.89186,6615.44073 163.710328,6615.44073 C161.941203,6615.44073 161.884917,6613.4213 159.021803,6613.4213 C157.41519,6613.4213 156.396229,6613.84327 156.396229,6614.77763 C156.396229,6615.97119 157.696501,6616.09175 160.71596,6616.76691 C163.303989,6617.32752 166.3859,6618.38244 166.3859,6621.44472 C166.3859,6625.00737 162.816395,6626.65905 159.38437,6626.65905 Z" id="s"></path>
        </g>
    </g>
</svg>