<?xml version="1.0" encoding="UTF-8"?>
<svg width="143px" height="7px" viewBox="0 0 143 7" version="1.1" xmlns="http://www.w3.org/2000/svg" xmlns:xlink="http://www.w3.org/1999/xlink">
    <!-- Generator: Sketch 64 (93537) - https://sketch.com -->
    <title>sottolinea4</title>
    <desc>Created with Sketch.</desc>
    <defs>
        <polygon id="path-1" points="0.257364942 0.182466667 64.6778528 0.182466667 64.6778528 6.75686667 0.257364942 6.75686667"></polygon>
        <polygon id="path-3" points="0.129206035 0.182466667 56.0144073 0.182466667 56.0144073 6.75686667 0.129206035 6.75686667"></polygon>
        <polygon id="path-5" points="0.157889202 0.182466667 88.2950012 0.182466667 88.2950012 6.75686667 0.157889202 6.75686667"></polygon>
    </defs>
    <g id="sottolinea4" stroke="none" stroke-width="1" fill="none" fill-rule="evenodd">
        <g id="Group-13-Copy-11">
            <g id="Group-10">
                <g id="Group-3">
                    <mask id="mask-2" fill="white">
                        <use xlink:href="#path-1"></use>
                    </mask>
                    <g id="Clip-2"></g>
                    <path d="M32.8971376,-2.93724667 C43.3842715,-1.93298 48.5461934,-6.55204667 56.2154737,-3.82484667 C60.7481188,-2.21298 64.1006871,1.23335333 64.6090803,4.97275333 C65.4538028,11.18502 58.3543323,17.5279533 52.2443521,17.71602 C44.2250945,17.9633533 40.9870731,7.51375333 33.6053786,8.25668667 C31.4601833,8.47275333 28.368392,11.1775533 22.2730348,16.57782 C15.8247756,22.2916867 15.124821,23.6062867 12.1412399,24.5022867 C7.17624122,25.9937533 0.329261399,24.9927533 -3.27043576,22.45922 C-13.9301212,14.95662 -1.53517213,-9.80378 11.1512622,-11.05118 C18.4510679,-11.7689133 20.2404366,-4.14964667 32.8971376,-2.93724667" id="Fill-1" fill="#FF6700" mask="url(#mask-2)"></path>
                </g>
                <g id="Group-6" transform="translate(85.788314, 0.000000)">
                    <mask id="mask-4" fill="white">
                        <use xlink:href="#path-3"></use>
                    </mask>
                    <g id="Clip-5"></g>
                    <path d="M25.202462,13.3653333 C13.8101638,16.0972 8.59364939,22.7369333 3.83191052,20.1852 C1.06426253,18.7021333 0.474467869,15.1974667 0.270720623,13.9855333 C-0.64565455,8.54373333 3.01009747,2.75473333 7.71773121,0.345333333 C15.2607662,-3.51493333 22.4884317,2.84713333 27.4685408,-0.8946 C30.9302942,-3.49486667 26.685235,-9.47846667 30.3829063,-12.6742 C32.3077816,-14.3383333 35.4717131,-14.6986 37.8299169,-13.9146 C42.0403683,-12.5150667 41.2658364,-8.2726 46.2488701,-3.99466667 C47.1174768,-3.24846667 52.3232676,1.2208 57.9053572,0.345333333 C63.0000133,-0.453133333 63.820364,-4.98446667 68.2667333,-4.92426667 C71.473559,-4.88133333 74.6969574,-2.47426667 75.7137439,0.345333333 C77.3008277,4.7474 73.4388913,9.9582 69.5618444,12.4352667 C64.7411261,15.5157333 60.9084357,13.7242 45.2774149,13.0554667 C34.6513624,12.6009333 29.3378487,12.3736667 25.202462,13.3653333" id="Fill-4" fill="#FFBF1F" mask="url(#mask-4)"></path>
                </g>
                <g id="Group-9" transform="translate(32.658051, 0.000000)">
                    <mask id="mask-6" fill="white">
                        <use xlink:href="#path-5"></use>
                    </mask>
                    <g id="Clip-8"></g>
                    <path d="M73.5754702,-17.90502 C78.3757163,-19.33582 85.1159482,-16.29082 87.4039615,-11.5191533 C89.9756612,-6.15622 86.3403814,0.170846667 84.5578367,3.27371333 C81.234027,9.05851333 77.3150608,10.88878 77.9911312,14.1876467 C78.6827995,17.5621133 83.2783235,18.0600467 83.0969982,19.7531133 C82.7699302,22.8037133 67.1525576,27.6813133 53.7871282,22.2880467 C42.3665589,17.6797133 40.9617753,8.95071333 32.2742462,8.13544667 C25.1465046,7.46671333 23.6793294,16.5345133 14.6067278,16.9680467 C13.6045643,17.0156467 6.66253494,17.24198 2.64900666,12.2883133 C-1.20854287,7.52644667 0.507223407,1.51671333 0.726081095,0.79618 C1.08044532,-0.37282 1.98365979,-2.73275333 4.90046247,-5.55655333 C10.1652328,-10.6520867 21.0574241,-16.3547533 31.0371397,-13.3456867 C40.5879137,-10.4658867 40.3588199,-2.30388667 48.5247951,-1.68602 C56.3329939,-1.09522 63.8789535,-8.00095333 64.9054887,-8.93988667 C69.8782863,-13.49082 69.6896495,-16.7467533 73.5754702,-17.90502" id="Fill-7" fill="#FFFFFF" mask="url(#mask-6)"></path>
                </g>
            </g>
        </g>
    </g>
</svg>