<?xml version="1.0" encoding="UTF-8"?>
<svg width="124px" height="7px" viewBox="0 0 124 7" version="1.1" xmlns="http://www.w3.org/2000/svg" xmlns:xlink="http://www.w3.org/1999/xlink">
    <!-- Generator: Sketch 64 (93537) - https://sketch.com -->
    <title>sottolinea</title>
    <desc>Created with Sketch.</desc>
    <defs>
        <polygon id="path-1" points="0.2233231 0.182466667 56.1228677 0.182466667 56.1228677 6.75686667 0.2233231 6.75686667"></polygon>
        <polygon id="path-3" points="0.112115862 0.182466667 48.6053423 0.182466667 48.6053423 6.75686667 0.112115862 6.75686667"></polygon>
        <polygon id="path-5" points="0.137005086 0.182466667 76.6161593 0.182466667 76.6161593 6.75686667 0.137005086 6.75686667"></polygon>
    </defs>
    <g id="sottolinea" stroke="none" stroke-width="1" fill="none" fill-rule="evenodd">
        <g id="Group-13">
            <g id="Group-10">
                <g id="Group-3">
                    <mask id="mask-2" fill="white">
                        <use xlink:href="#path-1"></use>
                    </mask>
                    <g id="Clip-2"></g>
                    <path d="M28.5458101,-2.93724667 C37.6458034,-1.93298 42.1249543,-6.55204667 48.7798135,-3.82484667 C52.7129224,-2.21298 55.6220441,1.23335333 56.0631919,4.97275333 C56.7961823,11.18502 50.6357638,17.5279533 45.3339549,17.71602 C38.3754102,17.9633533 35.5656841,7.51375333 29.1603715,8.25668667 C27.2989227,8.47275333 24.6160848,11.1775533 19.3269648,16.57782 C13.7316214,22.2916867 13.1242503,23.6062867 10.5353096,24.5022867 C6.22703475,25.9937533 0.285709762,24.9927533 -2.83785292,22.45922 C-12.0875743,14.95662 -1.33211383,-9.80378 9.67627695,-11.05118 C16.0105322,-11.7689133 17.5632199,-4.14964667 28.5458101,-2.93724667" id="Fill-1" fill="#FFBF1F" mask="url(#mask-2)"></path>
                </g>
                <g id="Group-6" transform="translate(74.441033, 0.000000)">
                    <mask id="mask-4" fill="white">
                        <use xlink:href="#path-3"></use>
                    </mask>
                    <g id="Clip-5"></g>
                    <path d="M24.8689146,13.3653333 C14.9834837,16.0972 10.4569613,22.7369333 6.32506103,20.1852 C3.92349178,18.7021333 3.41170967,15.1974667 3.23491222,13.9855333 C2.43974663,8.54373333 5.61194976,2.75473333 9.69690147,0.345333333 C16.2422139,-3.51493333 22.513871,2.84713333 26.8352576,-0.8946 C29.8391225,-3.49486667 26.1555602,-9.47846667 29.3641379,-12.6742 C31.0344086,-14.3383333 33.7798447,-14.6986 35.8261272,-13.9146 C39.4796593,-12.5150667 38.8075752,-8.2726 43.1314995,-3.99466667 C43.885215,-3.24846667 48.4024322,1.2208 53.2461749,0.345333333 C57.6669572,-0.453133333 58.3787996,-4.98446667 62.2370445,-4.92426667 C65.0197011,-4.88133333 67.8167384,-2.47426667 68.6990338,0.345333333 C70.0761929,4.7474 66.7250775,9.9582 63.3608504,12.4352667 C59.1777718,15.5157333 55.8520341,13.7242 42.2885394,13.0554667 C33.0680023,12.6009333 28.4573108,12.3736667 24.8689146,13.3653333" id="Fill-4" fill="#18335B" mask="url(#mask-4)"></path>
                </g>
                <g id="Group-9" transform="translate(28.338348, 0.000000)">
                    <mask id="mask-6" fill="white">
                        <use xlink:href="#path-5"></use>
                    </mask>
                    <g id="Clip-8"></g>
                    <path d="M63.843591,-17.90502 C68.0089052,-19.33582 73.8576019,-16.29082 75.8429781,-11.5191533 C78.0745172,-6.15622 74.9200784,0.170846667 73.3733122,3.27371333 C70.4891451,9.05851333 67.0885434,10.88878 67.6751895,14.1876467 C68.2753703,17.5621133 72.2630411,18.0600467 72.1056998,19.7531133 C71.8218934,22.8037133 58.2702416,27.6813133 46.672667,22.2880467 C36.7627044,17.6797133 35.5437325,8.95071333 28.0053089,8.13544667 C21.8203588,7.46671333 20.5472479,16.5345133 12.6746856,16.9680467 C11.805079,17.0156467 5.78127676,17.24198 2.29862068,12.2883133 C-1.04868806,7.52644667 0.44013261,1.51671333 0.630041838,0.79618 C0.937534061,-0.37282 1.72127971,-2.73275333 4.25227485,-5.55655333 C8.82067032,-10.6520867 18.2721438,-16.3547533 26.9318354,-13.3456867 C35.2193218,-10.4658867 35.0205304,-2.30388667 42.1063863,-1.68602 C48.8817892,-1.09522 55.4296394,-8.00095333 56.3203941,-8.93988667 C60.6354363,-13.49082 60.4717506,-16.7467533 63.843591,-17.90502" id="Fill-7" fill="#FF6700" mask="url(#mask-6)"></path>
                </g>
            </g>
        </g>
    </g>
</svg>