<?xml version="1.0" encoding="UTF-8"?>
<svg width="124px" height="7px" viewBox="0 0 124 7" version="1.1" xmlns="http://www.w3.org/2000/svg" xmlns:xlink="http://www.w3.org/1999/xlink">
    <title>sottolinea</title>
    <defs>
        <polygon id="path-1" points="0 0 56 0 56 7 0 7"></polygon>
        <polygon id="path-3" points="0.558966527 0 26.5589665 0 26.5589665 7 0.558966527 7"></polygon>
        <polygon id="path-5" points="0.66165203 0 76.661652 0 76.661652 7 0.66165203 7"></polygon>
    </defs>
    <g id="sottolinea" stroke="none" stroke-width="1" fill="none" fill-rule="evenodd">
        <g id="Group-10">
            <g id="Group-3">
                <mask id="mask-2" fill="white">
                    <use xlink:href="#path-1"></use>
                </mask>
                <g id="Clip-2"></g>
                <path d="M28.6292377,-2.90562415 C37.6611569,-1.90962004 42.1068006,-6.49068359 48.7118769,-3.78592148 C52.6155634,-2.18731635 55.5029229,1.23066247 55.9407706,4.93929677 C56.6682777,11.1004524 50.5539434,17.3911996 45.2917957,17.5777189 C38.3853056,17.8230173 35.5965983,7.45939083 29.2392019,8.19621172 C27.391678,8.41050071 24.7289095,11.0930471 19.4793558,16.4488834 C13.9258694,22.1157396 13.3230418,23.4195238 10.7534682,24.308152 C6.47742224,25.7873477 0.580542458,24.7945833 -2.51965382,22.2818945 C-11.7001809,14.8410217 -1.0251787,-9.71566347 9.90086173,-10.9528006 C16.1877324,-11.6646288 17.7288049,-4.1080492 28.6292377,-2.90562415" id="Fill-1" fill="#FFBF1F" mask="url(#mask-2)"></path>
            </g>
            <g id="Group-6" transform="translate(96.441033, 0.000000)">
                <mask id="mask-4" fill="white">
                    <use xlink:href="#path-3"></use>
                </mask>
                <g id="Clip-5"></g>
                <path d="M4.26527835,20.4282412 C2.98986722,18.948108 2.71807303,15.4503734 2.62418048,14.2408373 C2.20188867,8.80980096 3.88656346,3.03225139 6.05597533,0.627617097 C9.53202097,-3.2250141 14.2057581,1.73940938 16.5007344,-1.99492294 C18.0960091,-4.59004638 14.796742,-9.17675178 16.5007344,-12.3661641 C17.3877718,-14.0270058 18.8458017,-14.3865599 19.9325292,-13.6041106 C21.8728253,-12.2073455 21.5158989,-7.97327028 23.8122229,-3.70379854 C24.2125017,-2.9590745 26.6114786,1.50135212 29.1838647,0.627617097 C31.5316274,-0.169270231 31.9096685,-4.69164075 33.9586822,-4.63155983 C35.436479,-4.58871141 36.9219129,-2.18640584 37.3904771,0.627617097 C38.1218506,5.02097664 36.3421601,10.2214699 34.5555064,12.693637 C32.3339819,15.7680106 30.5677688,13.9800209 23.3645487,13.3126102 C18.4677607,12.858976 16.019142,12.6321588 14.1134379,13.621864 C8.86354202,16.3483271 6.45962341,22.9749273 4.26527835,20.4282412 Z" id="Fill-4" fill="#18335B" mask="url(#mask-4)"></path>
            </g>
            <g id="Group-9" transform="translate(28.338348, 0.000000)">
                <mask id="mask-6" fill="white">
                    <use xlink:href="#path-5"></use>
                </mask>
                <g id="Clip-8"></g>
                <path d="M63.9691059,-17.6445431 C68.1083238,-19.0764284 73.9203774,-16.0291187 75.8933149,-11.2538326 C78.1108731,-5.88683139 74.9761974,0.445034504 73.4391219,3.55025477 C70.5730245,9.33944267 67.1937281,11.1710976 67.7766988,14.4724666 C68.3731194,17.8494928 72.3358068,18.3478039 72.1794513,20.0421548 C71.8974229,23.0950687 58.4306744,27.9763685 46.9057605,22.5790109 C37.0578854,17.967182 35.8465505,9.2315609 28.3553565,8.41567583 C22.209156,7.74643525 20.9440214,16.8211134 13.120782,17.2549756 C12.2566236,17.3026117 6.27056143,17.5291167 2.80972476,12.5716925 C-0.516612556,7.80621389 0.962880412,1.79192204 1.15159983,1.07084217 C1.45716556,-0.0990445463 2.23600092,-2.46076794 4.75113897,-5.28670986 C9.2909127,-10.3861083 18.6831712,-16.0931005 27.2886084,-13.0817514 C35.5241724,-10.199767 35.3266265,-2.03157597 42.3680883,-1.41324064 C49.1010422,-0.821992503 55.6078691,-7.73296399 56.493043,-8.67260953 C60.7810508,-13.2269948 60.6183906,-16.4853979 63.9691059,-17.6445431" id="Fill-7" fill="#FF6700" mask="url(#mask-6)"></path>
            </g>
        </g>
    </g>
</svg>