<svg xmlns="http://www.w3.org/2000/svg" xmlns:xlink="http://www.w3.org/1999/xlink" viewBox="0 0 2278.3 2830.24"><defs><style>.cls-1{isolation:isolate;}.cls-13,.cls-14,.cls-2,.cls-9{opacity:0.49;mix-blend-mode:multiply;}.cls-2{fill:url(#linear-gradient);}.cls-3{fill:#ff9d4d;}.cls-4{fill:#fcb87a;}.cls-16,.cls-5{fill:#18335b;}.cls-6{fill:#bf4d00;}.cls-7{fill:#122644;}.cls-15,.cls-8{fill:#ff6700;}.cls-9{fill:url(#linear-gradient-2);}.cls-10,.cls-17{fill:#ffbf1f;}.cls-11{fill:#bf8f17;}.cls-12{fill:none;}.cls-13{fill:url(#linear-gradient-3);}.cls-14{fill:url(#radial-gradient);}.cls-15,.cls-16,.cls-17{fill-rule:evenodd;}</style><linearGradient id="linear-gradient" x1="1454.61" y1="2222.2" x2="2165.04" y2="2222.2" gradientUnits="userSpaceOnUse"><stop offset="0.44" stop-color="#b3b3b3"/><stop offset="1" stop-color="#fff" stop-opacity="0"/></linearGradient><linearGradient id="linear-gradient-2" x1="1044.83" y1="2788.58" x2="966.75" y2="2345.79" gradientUnits="userSpaceOnUse"><stop offset="0.24" stop-color="#fff" stop-opacity="0"/><stop offset="0.56" stop-color="#b3b3b3"/></linearGradient><linearGradient id="linear-gradient-3" x1="14.56" y1="1883.48" x2="591.48" y2="2048.91" gradientUnits="userSpaceOnUse"><stop offset="0" stop-color="#fff" stop-opacity="0"/><stop offset="0.56" stop-color="#b3b3b3"/></linearGradient><radialGradient id="radial-gradient" cx="1024.06" cy="2023.19" r="473.06" gradientTransform="translate(0 1416.24) scale(1 0.3)" gradientUnits="userSpaceOnUse"><stop offset="0" stop-color="#b3b3b3"/><stop offset="0.33" stop-color="#b4b4b4" stop-opacity="0.99"/><stop offset="0.48" stop-color="#b7b7b7" stop-opacity="0.95"/><stop offset="0.6" stop-color="#bcbcbc" stop-opacity="0.88"/><stop offset="0.69" stop-color="#c4c4c4" stop-opacity="0.78"/><stop offset="0.77" stop-color="#cecece" stop-opacity="0.64"/><stop offset="0.85" stop-color="#dadada" stop-opacity="0.48"/><stop offset="0.92" stop-color="#e9e9e9" stop-opacity="0.29"/><stop offset="0.98" stop-color="#f9f9f9" stop-opacity="0.07"/><stop offset="1" stop-color="#fff" stop-opacity="0"/></radialGradient></defs><g class="cls-1"><g id="Layer_1" data-name="Layer 1"><path class="cls-2" d="M1454.61,2131.11l89.43,45.33s69.13,44.41,128.23,62.72c62.82,19.47,191.91,50,257.59,53.48,25,1.35,59.07,25.89,84.1,26.45,17.18.39,50.88,9.8,68.07,9.73,20.28-.09,68.71,4.55,80.22-12.16,8.11-11.78-3.13-44.8-12.16-55.9-10.49-12.91-44.84-22.33-60.77-27.13-30.68-9.24-78.91-54.64-110.84-57.29-32.71-2.71-98.61,3.11-131.28,0-43-4.08-127.93-21.54-169.72-32.52a573.17,573.17,0,0,1-82.81-28.77l-53.35,16.14,116.26,45.15-135.95-46.91Z"/><path class="cls-3" d="M1602.49,1686.87c-.5,2.31-1,4.41-1.63,6.32l36.24,15.06-3-36.55-14.79-16.5-.94-13-37.54-21.37C1584.21,1629.89,1608.24,1660.12,1602.49,1686.87Z"/><path class="cls-3" d="M1580.38,1619.65s.12.44.41,1.21c0,.16.1.34.16.55l4.34,1.16Z"/><path class="cls-4" d="M1597.05,1625.7l-11.76-3.13,14,8.36A46.16,46.16,0,0,0,1597.05,1625.7Z"/><path class="cls-4" d="M1583.1,1657.89l2.5,23.35,5.14,1.49,1.64,6.94,8.48,3.52c.59-1.91,1.13-4,1.63-6.32,5.75-26.75-16.23-55.94-21.54-65.46l4.34,1.16-4.34-1.16C1582.44,1626.7,1586.09,1647.22,1583.1,1657.89Z"/><path class="cls-3" d="M1609.6,1642.75c-2-.29-3.9-.67-5.74-1.1A28.41,28.41,0,0,0,1609.6,1642.75Z"/><path class="cls-3" d="M1657.48,1582.61c3-35.24-13.43-65.44-36.81-67.46-12.29-1.06-24,5.89-32.86,17.84-22.35,83,25.2,110.2,25.2,110.2,6.27.94,15.82,2.69,20.7.32,10.47-5.08,12.65-19.62,13-35,.15-6.49,12.71-.82,14.33-8C1662,1596.37,1657.1,1587,1657.48,1582.61Z"/><path class="cls-4" d="M1609.6,1642.75c1.12.17,2.25.32,3.41.44h0c-1.28-.19-2.42-.35-3.36-.43Z"/><path class="cls-4" d="M1606.77,1529.58c-8,10.77-31.46,4.26-33.93,45.72-2,34.48,10.78,60.28,31,66.35,1.84.43,3.75.81,5.74,1.1h.05c.94.08,10.57,1.74,13,1.74C1622.67,1644.49,1613,1622.57,1606.77,1529.58Z"/><path class="cls-5" d="M1577.18,1612.15s9.66-15.72,5-35.22c0,0,.12,5.13-2.77,4.88s-10.07-28.49,3.88-28.49c9.88,0,4.53,38.49,4.53,38.49l6.93,1.54s10.78-45.67,5.13-53.63c10,3.34,49.53,4.11,57-1.28,0,0-5.13-34.65-43.37-34.65s-59.79,32.08-59.79,58.51S1560.29,1603.85,1577.18,1612.15Z"/><path class="cls-4" d="M1653.52,1584.65l-8-40.11s-17.43,3.67-33.81.7,28.91,7.33,28.91,7.33l4.12,40.38s-6.55-1.31-8.54.54a6,6,0,0,0,.11,8.62s6.84-14.9,9.86-3.12c0,0,5.62,2.09,8.6,2S1653.52,1584.65,1653.52,1584.65Z"/><path class="cls-4" d="M1648.1,1544.39a9.45,9.45,0,0,0,9.47-2s-8.36,6.2-6.6,12.89Z"/><ellipse class="cls-5" cx="1632.99" cy="1563.7" rx="5.95" ry="1.28" transform="translate(-34.88 3090.14) rotate(-86.22)"/><path class="cls-5" d="M1654,1560.58c-.19,2.82-.76,5.16-1.37,5.73-.1.09-1.09-7-1-7.46.31-2.51.93-4.33,1.52-4.29S1654.23,1557.3,1654,1560.58Z"/><path class="cls-6" d="M1628.61,1618.54s8.61,3.77,13.75.42,5.93,1.86,3.92,3c0,0,2.3,2-.44,3.47S1634.12,1622.61,1628.61,1618.54Z"/><path class="cls-5" d="M1581.33,2115.93l8.5-2.9q-4.93-2.88-10.42-5.78s-21.09-16.89-29.7-10.45c0,0-16.28,18.16-8.39,34.39,6.91,14.22,65,32.07,85.7,32.34C1628.74,2143.73,1581.33,2115.93,1581.33,2115.93Z"/><path class="cls-7" d="M1589.83,2113l-8.5,2.9s47.41,27.8,45.69,47.6c2.92,0,5.1-.28,6.28-1C1642,2157.13,1628.49,2135.61,1589.83,2113Z"/><path class="cls-5" d="M1480.55,2113.66l11.57-2.65,10.13,1.13c-1.15-.81-2.32-1.61-3.51-2.42,0,0-20.84-20.82-30.94-14.87,0,0-19.8,17.73-13.19,36.26,5.83,16.34,67.44,42.87,89.43,45.33C1540.63,2149.65,1480.55,2113.66,1480.55,2113.66Z"/><path class="cls-7" d="M1550.52,2176.05c10.68-5.09-3.47-32.69-48.27-63.91l-10.13-1.13-11.57,2.65s60.08,36,63.49,62.78C1547,2176.77,1549.22,2176.67,1550.52,2176.05Z"/><path class="cls-8" d="M1670.86,1661.56c-16.08-3.62-51.59-6.36-51.59-6.36a20.34,20.34,0,0,1,3.75,11C1641.09,1662,1658.88,1659.45,1670.86,1661.56Z"/><path class="cls-8" d="M1706.47,1683.93l-.93-.77q2.55,2.14,5.16,4.41C1709.15,1686.2,1707.73,1685,1706.47,1683.93Z"/><path class="cls-8" d="M1677.74,1663.6c1,.45,2,1,3,1.55C1679.71,1664.54,1678.68,1664,1677.74,1663.6Z"/><path class="cls-8" d="M1860.15,1773.26c8.83.52,14.38-3.13,17.83-7.36-2.49-5.24-6.67-10.63-9.89-12.63l-90.55-5.3c8.6.61,24.27,2.26,18.46,5.89-7.87,4.91-33.93,3-33.93,3l-90.47-61.62-1,42.72s48,44.09,76.14,58.25C1778.85,1788.21,1845.21,1772.37,1860.15,1773.26Z"/><path class="cls-8" d="M1511.23,1781.5c-15.55,3.67,12.43-86,43.83-94.06,0,0,17.43-6.81,39.56-13.55-4.86-7-10.84-19.56-10.84-19.56s-15.92-1.41-21,0c-9.09,2.54-26.53,12.08-32.32,19.55-18.33,23.65-68,87.3-71.11,133,.91,1.17,12.76,16,32.12,11.78,11.26-2.43,28.31-9.85,41.16-15.93l13.78-21.21S1526.79,1777.84,1511.23,1781.5Z"/><polygon class="cls-8" points="1517.32 1903.07 1523.17 1903.07 1499.14 1893.46 1517.32 1903.07"/><path class="cls-8" d="M1519.53,1822.93l2.1-3.23c-13.64,6.1-29.06,11.33-40.48,10.44-3.48,16.9-4.35,22.68-4.35,22.68v28.83l22.34,11.81-3.93-19.94Z"/><path class="cls-6" d="M1680.79,1665.15c7.75,4.33,18.56,12.91,24.75,18C1696.34,1675.43,1687.7,1668.94,1680.79,1665.15Z"/><path class="cls-6" d="M1670.86,1661.56a39.67,39.67,0,0,1,6.88,2A27.69,27.69,0,0,0,1670.86,1661.56Z"/><path class="cls-6" d="M1550.36,1794s-7.54,4-17.7,8.76l-11,17a281.33,281.33,0,0,0,31.56-16.78Z"/><path class="cls-6" d="M1772.32,1747.66l5.22.31C1774.48,1747.75,1772.32,1747.66,1772.32,1747.66Z"/><path class="cls-6" d="M1772.32,1747.66s-32.45-34.74-61.62-60.09C1730.75,1705.33,1772.32,1747.66,1772.32,1747.66Z"/><path class="cls-6" d="M1762.07,1756.81s26.06,2,33.93-3c5.81-3.63-9.86-5.28-18.46-5.89l-5.22-.31s-41.57-42.33-61.62-60.09q-2.61-2.27-5.16-4.41c-6.19-5.1-17-13.68-24.75-18-1.06-.58-2.08-1.1-3-1.55a39.67,39.67,0,0,0-6.88-2c-12-2.11-29.77.44-47.84,4.63,0,9.58-.65,22-3.94,22.07-6,.18-17.14-6.69-21.55-10.79a22.72,22.72,0,0,1-2.91-3.58c-22.13,6.74-39.56,13.55-39.56,13.55-31.4,8.11-59.38,97.73-43.83,94.06s35.21,0,35.21,0l-13.78,21.21c10.16-4.8,17.7-8.76,17.7-8.76l2.83,9a281.33,281.33,0,0,1-31.56,16.78l-2.1,3.23-24.32,50.59,3.93,19.94,24,9.61h60.6l37.38-21.42,49.4-143.74,1-42.72Z"/><path class="cls-6" d="M1864.5,1790c5-2.33,14.82-10.11,15.56-15.56.31-2.27-.58-5.38-2.08-8.54-3.45,4.23-9,7.88-17.83,7.36-14.94-.89-81.3,15-113.45,22.9a50.94,50.94,0,0,0,8.86,3.6C1781.91,1807.05,1839.73,1801.58,1864.5,1790Z"/><path class="cls-8" d="M1459.63,1814.7v0Z"/><path class="cls-8" d="M1459.49,1814a2.74,2.74,0,0,1,0-.28A2.74,2.74,0,0,0,1459.49,1814Z"/><path class="cls-4" d="M1459.62,1814.66c0-.22-.09-.44-.13-.66C1459.53,1814.22,1459.57,1814.44,1459.62,1814.66Z"/><path class="cls-4" d="M1459.38,1806.86l-.06-.08a21.36,21.36,0,0,0,.12,6.94,15,15,0,0,1-.22-2.61C1459.23,1809.71,1459.28,1808.3,1459.38,1806.86Z"/><path class="cls-9" d="M826.37,2370.54s64.89,193.9,78.22,284.86,67.95,137.93,133.72,133.26,99.37-38.27,77.67-73.53-13-31.58,13-76.71-13.12-267.88-13.12-267.88L1056,2397s-13.75,143.58-30.86,144.84-116.34-137.81-116.34-137.81Z"/><path class="cls-10" d="M1103.08,2392c8.35-8,13.76-16.42,12.79-21.5-8.85-46.37-64.37,15.38-64.37,15.38s-.15.44-.39,1.19l1.48-1.19S1076.5,2411.79,1103.08,2392Z"/><path class="cls-11" d="M1056,2411.9c14.24,3.77,34.16-7.52,47.06-19.86-26.58,19.75-50.49-6.12-50.49-6.12l-1.48,1.19C1049.66,2391.81,1045.16,2409,1056,2411.9Z"/><path class="cls-10" d="M918.25,2385.92h0s-93.53-59.78-91.88-15.38c.55,14.93,9.29,26.09,20.92,34.21C847.29,2404.75,903.22,2424.3,918.25,2385.92Z"/><path class="cls-11" d="M908.82,2422.88c15.59-7.11,9.43-37,9.43-37-15,38.38-71,18.83-71,18.83C870.21,2420.76,904.33,2424.93,908.82,2422.88Z"/><polygon class="cls-12" points="912.2 1716.83 912.2 1716.83 912.2 1716.83 912.2 1716.83"/><polygon class="cls-5" points="854.99 1949.72 840.1 1915.04 852.93 1870.07 840.1 1915.04 854.99 1949.72"/><rect class="cls-5" x="877.12" y="1837.99" height="164.37" transform="translate(-97.6 47.65) rotate(-2.95)"/><path class="cls-5" d="M811.35,1909.66c-3.69-29.76,10-34,35.91-114.45,21.94-68.24,53.38-77.1,62.42-78.22-17.76,1.54-39.2,13-50.2,23.49-34.85,33.22-88.39,129.39-82.81,177.21,5.41,46.44,103.15,129,103.15,129l1.25-36.22-.57,16S815.53,1943.35,811.35,1909.66Z"/><path class="cls-5" d="M1053,1737.19c-4.76-4.29-9.65-8.87-14.69-12.66,11.9,9.52,26.08,29.42,36.82,70.68,21.27,81.78,57.28,81.32,53.59,111.08-4.17,33.69-67,116.23-67,116.23l-2.29-13.18,2.73,47.64s88-96,89.38-144.65C1152.87,1864,1088.92,1769.51,1053,1737.19Z"/><path class="cls-5" d="M909.06,1717.7l3.14-.87h0A23.9,23.9,0,0,0,909.06,1717.7Z"/><polygon class="cls-5" points="1049.49 1840.09 1049.49 1840.09 1092.41 1910.57 1092.37 1910.7 1092.41 1910.57 1049.49 1840.09"/><path class="cls-5" d="M912.2,1716.83h2.17C913.65,1716.8,912.93,1716.81,912.2,1716.83Z"/><polygon class="cls-3" points="912.2 1716.83 912.2 1716.83 912.2 1716.83 912.2 1716.83"/><path class="cls-3" d="M1008.33,1718.76c10.6-5.65,20.55-1.34,30,5.77-13-10.41-23.24-8.45-23.24-8.45l-100.7.74a29.15,29.15,0,0,1,10.43,1.94C943.29,1726.23,990.44,1728.29,1008.33,1718.76Z"/><polygon class="cls-3" points="881.07 2010.51 881.07 2010.48 854.99 1949.72 881.07 2010.48 881.07 2010.51"/><polygon class="cls-3" points="1092.37 1910.7 1059.01 2007.12 1059.39 2009.34 1059.24 2006.64 1092.37 1910.7"/><polygon class="cls-3" points="1053.66 1899.75 1049.49 1840.09 1049.49 1840.09 1053.66 1899.75"/><polygon class="cls-3" points="852.93 1870.07 872.9 1838.09 872.9 1838.09 852.93 1870.07"/><path class="cls-3" d="M912.2,1716.83a16.82,16.82,0,0,0-2.52.16c.85-.08,1.69-.13,2.52-.16Z"/><path class="cls-7" d="M1128.72,1906.29c3.69-29.76-32.32-29.3-53.59-111.08-10.74-41.26-24.92-61.16-36.82-70.68-9.43-7.11-19.38-11.42-30-5.77-17.89,9.53-65,7.47-83.53,0a29.15,29.15,0,0,0-10.43-1.94H912.2l-3.14.87a23.9,23.9,0,0,1,3.14-.87c-.83,0-1.67.08-2.52.16-9,1.12-40.48,10-62.42,78.22-25.86,80.45-39.6,84.69-35.91,114.45,4.18,33.69,69.15,116.86,69.15,116.86l.57-16v0L855,1949.72,840.1,1915l12.83-45,20-32h0l8.45,164.16,43.11,24.27H1029l28.85-27.12-4.17-99.65-4.17-59.66h0l42.92,70.48,0,.13-33.13,95.94.15,2.7,2.29,13.18S1124.55,1940,1128.72,1906.29Z"/><path class="cls-11" d="M951.16,1619h0Z"/><path class="cls-4" d="M982.47,1625.06a18.3,18.3,0,0,1-5.42-5.26l-.38-.52c-1.65-2.3-3.16-4.79-4.86-6.84a17.23,17.23,0,0,0-1.63-1.76,9,9,0,0,0-6.3-2.72,8,8,0,0,0-4.83,1.67,11.09,11.09,0,0,0-1,.82c-2.5,2.24-4.55,5.63-6.83,8.59h0a17.74,17.74,0,0,1-5.48,5.11c-20.91,11-40.39,26-40.39,55.64,0,39.68,26.21,71.85,58.55,71.85s58.55-32.17,58.55-71.85C1022.43,1650.92,1002.51,1636.47,982.47,1625.06Z"/><path class="cls-13" d="M376.91,2028.15S234,2009,188.16,1995.1c-33.14-10-94-44.58-126.78-55.81-14.18-4.86-58.43.41-58.19-14.58.43-26,75.94-19.23,101.84-22,25.31-2.7,76.45-2,101.83,0,20.1,1.57,59.91,8.44,79.66,12.47,66.41,13.58,196.5,52.63,262.83,66.57,11.45,2.4,36,1.4,46.27,7,3.73,2,12,8.62,11.22,12.8-1,5.13-13.44,8.68-18.6,9.51-25.48,4.08-76.74-10.55-102-16-45.66-9.82-136.16-37.41-182.86-38.35-3.05-.06-11.43-1-12.06,2-5.61,26.4,90,59.61,90,59.61Z"/><path class="cls-12" d="M341.18,1443.75a11.93,11.93,0,0,0,.81.93C341.48,1444.08,341.18,1443.75,341.18,1443.75Z"/><path class="cls-4" d="M424.59,1501.75l-16.24-31.47-17.79-6.2-7.16-14.26s-5.84,5.82-17.6,5c0,0-3.11,12.33,16.27,31.7L371,1492.24l6.88,9.51Z"/><path class="cls-4" d="M383.4,1449.82l-42.22-6.07s.3.33.81.93C345.24,1448.11,358.38,1459.44,383.4,1449.82Z"/><path class="cls-3" d="M367,1457.59c11.76.85,16.39-7.77,16.39-7.77-25,9.62-38.16-1.71-41.41-5.14,2.76,3.25,11.75,14.56,13.09,25.6l11,22.56,16-6.36C363.8,1466.66,367,1457.59,367,1457.59Z"/><polygon class="cls-7" points="391.4 1286.89 389.24 1288.86 417.06 1364.18 420.86 1362.57 391.4 1286.89"/><polygon class="cls-4" points="465 1361.7 444.42 1363.8 456.45 1362.57 461.56 1370.04 451.13 1383.43 454.48 1384.9 468.47 1366.5 465 1361.7"/><polygon class="cls-3" points="456.45 1362.57 444.42 1363.8 451.13 1383.43 461.56 1370.04 456.45 1362.57"/><polygon class="cls-5" points="469.43 1361.7 423.84 1374.54 391.4 1286.89 440.45 1283.41 469.43 1361.7"/><path class="cls-4" d="M404.39,1343.47l-.24-7.81c-.82,2.14-3.44,5-3.63,6.82a15.19,15.19,0,0,0,1,6A4.83,4.83,0,0,0,404.39,1343.47Z"/><path class="cls-4" d="M438.29,1367.35s2.32-10.93,1.87-14.58c-.63-5.16-6.07-9.26-7.24-14.32-.62-2.69-1.07-2.81-.59-5.53.38-2.08,1.33-6.27,2.36-8.12.59-1.07,2.87-2.55,3.12-3.75a6.23,6.23,0,0,0-.38-2.83h0s-1.56-1.59-3.67,1.62-7.4,13.5-7.4,13.5,1.8-19.41,3.39-23.39c.48-1.21,3-3.07,2.85-4.37-.17-2.17-.81-3.3-1.69-3.79,0,0-2.22,1.28-4.34,6.77s-8.44,21.34-8.44,21.34-2-13.5-2.75-18.08a33.44,33.44,0,0,1-.62-7c.08-1.42,1.45-4.25,1-5.62a3.45,3.45,0,0,0-3-2.7,52,52,0,0,0-.74,15.18c1,7.18,1.94,13.65-.67,19.14a70.29,70.29,0,0,1-5.39-10c-.86-2.25-3.37-7.34-3.74-9.71-.26-1.65.33-5,0-6.67s-1.21-3.34-3-2.82c-3,3,.16,12.23,1.56,18.72s32.9,58.77,32.9,58.77l-7.36,1.71c.77,1.56,1.27,2.65,1.27,2.65h23.46Z"/><path class="cls-3" d="M400.86,1320.3c-1.4-6.49-4.55-15.72-1.56-18.72a5.3,5.3,0,0,0-2.05,1.33c-1.56,1.47-.15,6.43,0,8.57a48.19,48.19,0,0,0,1.05,8.47c.73,3.31,6.17,13.17,6.09,14.7a3.42,3.42,0,0,1-.24,1l.24,7.81a4.83,4.83,0,0,1-2.85,5,49.41,49.41,0,0,0,6.42,12.36c2.45,3.25,10.2,7,12.83,10.06,1.55,1.81,4.09,6.78,5.61,9.89l11.19-2.68S402.26,1326.78,400.86,1320.3Z"/><path class="cls-3" d="M412.09,1311.63a52,52,0,0,1,.74-15.18,4.42,4.42,0,0,0-3.07.8c-1.07.87-1,4-1,5.41a89.43,89.43,0,0,0-.31,9.25c.48,4.73,3,18.86,3,18.86C414,1325.28,413,1318.81,412.09,1311.63Z"/><path class="cls-3" d="M430.91,1301.79c-1.07-.61-2.47-.28-3.8.25s-2.61,3.47-3.19,4.79c-1.38,3.09-2.84,9.77-3.33,13.12-.36,2.42-2.46,10-2.46,10s6.33-15.84,8.44-21.34S430.91,1301.79,430.91,1301.79Z"/><path class="cls-3" d="M437.43,1318.22h0c-.3-.86-.75-1.6-1.29-1.75-1-.3-3.17,1.2-3.81,2.08-2.32,3.24-6,14.79-6,14.79s5.28-10.3,7.4-13.5S437.43,1318.22,437.43,1318.22Z"/><polygon class="cls-12" points="480.86 1487.46 489.04 1487.48 454.48 1391.42 480.86 1487.46"/><path class="cls-10" d="M354.48,1467.05c-9.81,1.94-17.93,7.9-24.17,11.7,9.95,7,41.55,8.88,41.55,8.88C360.26,1480.66,354.48,1467.05,354.48,1467.05Z"/><path class="cls-10" d="M431.34,1466.09c-8.6-.31-24.61-2.78-40.78-2,0,0,11.55,11.25,15,19l28.1-3.8Z"/><path class="cls-10" d="M475,1367.49c-12.43-6.49-23.89,15.94-23.89,15.94a48.43,48.43,0,0,0-13.54-5.33c8.53,21.85,45.23,116.62,45.82,132,.68,17.4-120.18,36.08-120.18,36.08l6.28,148.19-33.42-4.52,33.42,13.57,116.12-41.6-11.51-122.21s66.56-10.14,73.62-28.58C562.14,1473.48,475,1367.49,475,1367.49Zm5.84,120-26.38-96L489,1487.48Z"/><path class="cls-11" d="M405.56,1483.06l-33.7,4.57,34-3.83C405.78,1483.55,405.67,1483.31,405.56,1483.06Z"/><path class="cls-11" d="M363.62,1557.66s121.1,1.72,119.79-47.55c-.4-15.39-37.29-110.16-45.82-132-5.53-1.07-11.23-.44-13.81,5.33l8.35,82.69-.79,0,2.32,13.17-28.1,3.8c.11.25.22.49.31.74l-34,3.83s-31.6-1.85-41.55-8.88c-6.17,3.75-9.91,8.55-9.9,14.68l-10.58,185.76,26.26,10.67,33.42,4.52s13.89-15.19,8.4-44.78c-2.14-11.57-9.2-50.52-9.71-62.28C367.85,1579.27,363.62,1557.66,363.62,1557.66Z"/><path class="cls-10" d="M667.06,1924.71c-9.43-6.58-50.6,5.38-78.82,30.67l18.59-3S616.71,1969.77,667.06,1924.71Z"/><path class="cls-11" d="M597.41,1980.88c8.68,6.51,55.34-25,69.45-46.67,3-4.59,2.75-7.72.2-9.5-50.35,45.06-60.23,27.63-60.23,27.63l-18.59,3-.6.54S588.73,1974.37,597.41,1980.88Z"/><path class="cls-5" d="M606.83,1952.34l-2.17,2A10.58,10.58,0,0,0,606.83,1952.34Z"/><path class="cls-5" d="M609.35,1938.56,485.63,1661.83s-86,32.19-116.12,32.55c-5.86.07-15.91-2.11-26.1-4.84-.54,12.6-.71,28.07,1.15,35.23,8.54,33,66.19,119.37,66.19,119.37l-70.49,131.78c5.13.47,11.68-.87,19.49-6.4,0,0,87.86-82.36,94.41-120,4.13-23.67-30.38-91.16-30.38-91.16l183.06,193.92C611.33,1947,609.35,1938.56,609.35,1938.56Z"/><path class="cls-7" d="M344.56,1724.77c-1.86-7.16-1.69-22.63-1.15-35.23-16.6-4.45-33.58-10.35-33.58-10.35s-3.23,38.63,0,51c8.7,33.2,67.32,119.68,67.32,119.68l-49.87,119.69a20,20,0,0,0,13,6.4l70.49-131.78S353.1,1757.81,344.56,1724.77Z"/><polygon class="cls-10" points="606.84 1952.34 606.83 1952.34 606.84 1952.34 606.84 1952.34"/><path class="cls-7" d="M423.78,1758.41l163.86,197.51c8.45,1.69,13.74.64,17-1.61l2.17-2h0Z"/><path class="cls-10" d="M376.91,2028.15c16.6-3.37-17.16-58.63-17.16-58.63s-20.44-16.79-32.47,0h0S332.64,1992.14,376.91,2028.15Z"/><path class="cls-11" d="M367.34,2026.46c4.23,1.66,7.35,2.14,9.57,1.69-44.27-36-49.62-58.6-49.63-58.63S331.55,2012.36,367.34,2026.46Z"/><path class="cls-11" d="M451.13,1383.43l37.91,104-8.18,0s3,8.55,2.55,22.65-11.65,18-11.65,18l2.36,11.47s38.66-6.39,52.42-13.38c0,0,26.65-9-63.58-154.16l-1.4-2A58,58,0,0,0,451.13,1383.43Z"/><path class="cls-3" d="M404.39,1334.65s2.65,14.89,4.63,17.63-4.63-8.81-4.63-8.81Z"/><path class="cls-4" d="M396.22,1382.15c1.29,4.07,9.09,10.62,9.79,14.62,1.22,7-12.08,6.6-9.81,12.44,5.39,13.88,8.84,27.65,1.39,36.06-4.19,4.73-16.64,6.63-21.74,8.25-21.59,6.86-47.48-14-57.82-46.53s-1.22-64.5,20.37-71.36S385.88,1349.6,396.22,1382.15Z"/><path class="cls-3" d="M395.17,1388.58l-17.75-22.4s-9.68,7.83-20.82,11.2,20.33-4.64,20.33-4.64l15.43,23.8s-5.39.49-5.15,3.06-.24,4.29,2.82,5.33c0,0-.49-11.45,5.14-5.08,0,0,4.16-.49,6-1.47S395.17,1388.58,395.17,1388.58Z"/><path class="cls-3" d="M380,1364.22a6.59,6.59,0,0,0,5.26-4.25s-3.23,6.52,0,10.13Z"/><ellipse class="cls-5" cx="374.21" cy="1383.88" rx="1.14" ry="5.32" transform="translate(-517.54 261.41) rotate(-23.33)"/><path class="cls-5" d="M389.65,1372.85c1,2.32,1.49,4.41,1.24,5.11,0,.11-3.7-5.09-3.85-5.51-.78-2.12-1-3.82-.54-4S388.49,1370.15,389.65,1372.85Z"/><path class="cls-6" d="M377.91,1418.14s10.86,1.92,15.79-3.33,7.29.49,5.3,2.3c0,0,3.18,1.65.46,4.09S385.33,1421.26,377.91,1418.14Z"/><path class="cls-8" d="M905.33,1657.4s50.5-57.44,119.75,0c0,0,4.93,94.25-61.2,94.25C893.56,1751.65,905.33,1657.4,905.33,1657.4Z"/><ellipse class="cls-5" cx="985.08" cy="1633.82" rx="1.73" ry="4.86" transform="translate(-846.17 2168.88) rotate(-75.2)"/><ellipse class="cls-5" cx="942.19" cy="1633.82" rx="4.86" ry="1.73" transform="translate(-358.66 268.21) rotate(-13.64)"/><path class="cls-8" d="M391.4,1345.57s-20-30.48-55.32-27.41c-1,.36-56.1,20.26-26.25,130.39,31.41,6.53,38.64-14.09,38.64-14.09l-7.68-59.56C382.73,1365.74,391.4,1345.57,391.4,1345.57Z"/><path class="cls-6" d="M336.08,1318.16a65.72,65.72,0,0,0-15.44,3.33c-44.94,15.37-42.22,120.52-10.81,127.06C280,1338.42,335.05,1318.52,336.08,1318.16Z"/><path class="cls-3" d="M963.19,1631.85l-2.38-18.55c-1-.43-7.65,7-8,8.09l9.68,10.49C962.74,1631.87,963,1631.85,963.19,1631.85Z"/><path class="cls-3" d="M965,1631.92l9.71-10.81c-.32-1.09-7-8.24-8-7.81l-2.38,18.57Z"/><path class="cls-10" d="M1024.06,1680.52a154.22,154.22,0,0,0,1-23.12c-69.25-57.44-119.75,0-119.75,0a144.25,144.25,0,0,0-.51,23.28C912.3,1687.77,965.74,1734.43,1024.06,1680.52Z"/><path class="cls-11" d="M963.88,1751.65c44.78,0,57-43.23,60.18-71.13-58.32,53.91-111.76,7.25-119.24.16C906.32,1708.58,916.35,1751.65,963.88,1751.65Z"/><path class="cls-8" d="M887,2186.28c-2.84-39.2,2.84-64.08,5.33-92.7s-11-91.33-11-91.33l-12.59,358.17C874.44,2265.47,889.83,2225.48,887,2186.28Z"/><path class="cls-8" d="M918.25,2385.92,969,2135.87s-28.17,60.68-30,105.47S914.72,2349,918.25,2385.92Z"/><path class="cls-8" d="M1059,2089.53c20.47,44.8,18.1,119.46,19.34,150.57s8.09,94.57,12.19,115.34c11.61-101.81-32.71-356-32.71-356S1038.53,2044.73,1059,2089.53Z"/><path class="cls-8" d="M1021.11,2241.34c-.62-16.17-41.34-105.65-41.34-105.65l72.82,250.23C1054.2,2343.84,1021.73,2257.52,1021.11,2241.34Z"/><path class="cls-7" d="M1057.83,1999.4l-176.48,2.85S1002.6,2037.64,1057.83,1999.4Z"/><path class="cls-6" d="M1089.07,2365.85c.56-3.26,1.06-6.73,1.47-10.41-4.1-20.77-10.94-84.23-12.19-115.34s1.13-105.77-19.34-150.57-1.18-90.13-1.18-90.13c-55.23,38.24-176.48,2.85-176.48,2.85s13.46,62.7,11,91.33-8.17,53.5-5.33,92.7-12.55,79.19-18.23,174.14c0,31.78,49.49,50.89,49.49,25.5-3.53-36.94,18.86-99.78,20.73-144.58s30-105.47,30-105.47l10.75-.18s40.72,89.48,41.34,105.65,33.09,102.5,31.48,144.58C1073.62,2399.41,1087.27,2376.1,1089.07,2365.85Z"/><path class="cls-10" d="M1499.14,1923.86h0c-15.93-11.27-12.08-32-3.93-50.34-9.69-10.09-18.41-20.7-18.41-20.7s-36.68,28.83-27.81,69.66c12.12,55.88,117.87,89.36,117.87,89.36-37,19.29-97.28,86.15-97.28,86.15s.07,11.6,11,15.67c24.58-21.49,117.79-101.64,153.17-112.52C1591,1991.75,1499.14,1923.86,1499.14,1923.86Z"/><path class="cls-10" d="M1696.67,2019.12c2.08-3.52,2.46-12.11,2.25-16.19-.19-3.81-2.35-11.23-3.6-14.84-.88-2.56-2.71-7.84-4.49-9.89-18.29-21-69.67-42.27-94.1-59.3q-6.21,2.77-13,5.16c17.4,7.77,92.7,42.7,99.85,67.69,8.1,28.27-79.69,61.15-79.69,61.15l-48.88,47s2.5,10.83,21.07,15.17a41.27,41.27,0,0,0,5.2.88c18.53-16.61,64.76-57.87,83.42-73C1672.49,2036.69,1691.61,2027.7,1696.67,2019.12Z"/><path class="cls-10" d="M1613.51,1916.22l24.15,12.28C1627.51,1923.05,1618.83,1918.77,1613.51,1916.22Z"/><path class="cls-11" d="M1499.14,1923.86c5.22,3.7,12.57,6.38,22.59,7.61,22.54,2.79,43.65-.94,62-7.41-2.28-1-3.57-1.58-3.57-1.58Z"/><path class="cls-11" d="M1613.51,1916.22l-5.52-2.81-.08.18S1610,1914.52,1613.51,1916.22Z"/><path class="cls-11" d="M1521.73,1931.47c-10-1.23-17.37-3.91-22.59-7.61h0s91.86,67.89,134.58,77.28c-35.38,10.88-128.59,91-153.17,112.52,1.33.49,2.73,1,4.19,1.39,11.21,3.29,17.7,0,17.7,0l101.5-62.15s87.79-32.88,79.69-61.15c-7.15-25-82.45-59.92-99.85-67.69C1565.38,1930.53,1544.27,1934.26,1521.73,1931.47Z"/><path class="cls-11" d="M1717.84,1997.18c-1.28-22.58-48.06-51.45-80.18-68.68l-24.15-12.28c-3.54-1.7-5.6-2.63-5.6-2.63l.08-.18,13.17-31.76s-58.63,31.94-106.24,8.76c-5.07-2.47-12.65-9.54-19.71-16.89-8.15,18.31-12,39.07,3.93,50.34l81.07-1.38s1.29.56,3.57,1.58c4.49-1.58-4.14,1.85,0,0,29.73,3.39,88.76,33.19,107,54.14,1.78,2,3.61,7.33,4.49,9.89,1.25,3.61,3.41,11,3.6,14.84.21,4.08-.17,12.67-2.25,16.19-5.06,8.58-24.18,17.57-31.92,23.83-18.66,15.11-64.89,56.37-83.42,73a36,36,0,0,0,13.34-.88S1720.25,2039.73,1717.84,1997.18Z"/><path class="cls-4" d="M1597.37,1725.15a2.26,2.26,0,0,0-1.31-.36c-1.46,0-3.48,2.75-4.29,4-4.68,7-10.56,25.14-10.56,25.14l-.2,6.67S1599.37,1727.3,1597.37,1725.15Z"/><path class="cls-4" d="M1578.9,1724.71l.58.08A4,4,0,0,0,1578.9,1724.71Z"/><path class="cls-4" d="M1562.48,1770.69c1.17-16.55,7.27-12.1,7.27-12.1s2.83-3.27,5.23-1.74a5.65,5.65,0,0,1,2.61,3.92s5.23-35.94,1.31-36.06a4.18,4.18,0,0,0-1.17.08c-1.24.29-1.76,3.41-2.14,4.62-2.08,6.58-5.4,24.33-5.4,24.33a22.69,22.69,0,0,0-3.43-.75,4.61,4.61,0,0,0-3.11,1.15s-3.72-1-5.82.29c-1.48.93-1.49,3.52-1.95,5.2-1.17,4.34-.62,14-2.8,17.94-.82,1.49-6.64,3.93-6.64,3.93l6.75,21.42-2.83-9S1561.31,1787.24,1562.48,1770.69Z"/><polygon class="cls-3" points="1578.89 1724.71 1578.9 1724.71 1578.9 1724.71 1578.89 1724.71"/><path class="cls-3" d="M1585.92,1789.22c3.14-5.9,3.43-26.33,3.43-26.33s6.08-25.12,9-33.15c0,0,.67-3.45-1-4.59,2,2.15-16.36,35.41-16.36,35.41l.2-6.67s0-14.58.65-25.8a2.84,2.84,0,0,0-2.38-3.3l-.58-.08h0c3.92.12-1.31,36.06-1.31,36.06a5.65,5.65,0,0,0-2.61-3.92c-2.4-1.53-5.23,1.74-5.23,1.74s-6.1-4.45-7.27,12.1-12.12,23.26-12.12,23.26l2.83,9s19.82-4.37,25.79-7.1A20.2,20.2,0,0,0,1585.92,1789.22Z"/><polygon class="cls-5" points="1890.6 1748.61 1852.01 1747.9 1869.41 1657.91 1908.01 1658.62 1890.6 1748.61"/><polygon class="cls-7" points="1893.91 1748.61 1855.32 1747.9 1872.72 1657.91 1911.31 1658.62 1893.91 1748.61"/><path class="cls-4" d="M1897.07,1737.1l.26-8.24c.87,2.26,3.64,5.24,3.83,7.2a16.2,16.2,0,0,1-1.07,6.32A5.12,5.12,0,0,1,1897.07,1737.1Z"/><path class="cls-4" d="M1859.35,1753.47a23.3,23.3,0,0,1,0-6.55c.66-5.44,4.36-7.23,5.59-12.58.66-2.84,3-6.31,2.46-9.18-.4-2.2-1.41-6.62-2.49-8.57-.62-1.13-2-2.56-2.24-3.83-.14-.67-1-2-.66-3.12h0s2-1.76,4.23,1.62,7.47,14.34,7.47,14.34-.46-17.24-2.14-21.45c-.51-1.28-3.13-3.24-3-4.61.19-2.29.87-3.48,1.79-4,0,0,2.35,1.35,4.58,7.15s8.36,16.79,8.36,16.79,1.42-11,2.23-15.78a35.2,35.2,0,0,0,.65-7.44c-.08-1.51-1.53-4.49-1.09-5.94a3.62,3.62,0,0,1,3.13-2.85,55.16,55.16,0,0,1,.78,16c-1,7.59-1.53,10.94,1.22,16.74a18.57,18.57,0,0,0,5.18-7.07c.91-2.38,3.55-7.75,3.94-10.26.28-1.74-.34-5.31,0-7s1.28-3.53,3.16-3c3.16,3.18-.17,12.92-1.65,19.76s-32.43,55-32.43,55l7.77,1.81c-.81,1.64-1.34,2.79-1.34,2.79s-11.82,3.79-14.86,1.61c-2.28-1.64-2.19-11.64-2.19-11.64Z"/><path class="cls-3" d="M1900.8,1712.64c1.48-6.84,4.81-16.58,1.65-19.76a5.63,5.63,0,0,1,2.16,1.41c1.65,1.55.16,6.79,0,9a49.56,49.56,0,0,1-1.11,8.93c-.77,3.5-6.51,13.91-6.43,15.53a3.72,3.72,0,0,0,.26,1.06l-.26,8.24a5.12,5.12,0,0,0,3,5.28,52.34,52.34,0,0,1-6.78,13c-2.59,3.44-10.76,7.34-13.55,10.62-1.63,1.92-3.14,2.31-4.75,5.6,0,0-12.93,4.81-14.86,1.61C1849.75,1756,1899.32,1719.49,1900.8,1712.64Z"/><path class="cls-3" d="M1889,1703.49c1.14-7.3-.67-15.48-.78-16a4.7,4.7,0,0,1,3.24.84c1.12.93,1,4.26,1.1,5.72.09,2.43.56,7.34.32,9.76-.5,5-3.93,24.21-3.93,24.21C1889.9,1718.89,1886,1722.26,1889,1703.49Z"/><path class="cls-3" d="M1870.31,1695.54c1.13-.64,2.61-.3,4,.26s2.75,3.67,3.37,5.06a130.17,130.17,0,0,1,5.56,18.62,19.37,19.37,0,0,1-.68,6.33s-1.17-6.67-7.68-23.12C1872.6,1696.91,1870.31,1695.54,1870.31,1695.54Z"/><path class="cls-3" d="M1862,1709.64h0c.32-.91.79-1.68,1.36-1.85a3.51,3.51,0,0,1,3.33,1.35c2.46,3.42,9.49,23,9.49,23s-5.33-9.34-10.3-20.77C1864.82,1708.93,1862,1709.64,1862,1709.64Z"/><path class="cls-6" d="M1553.19,1802.92l-2.83-9s-38.7,20.34-58.86,24.69c-19.36,4.17-31.21-10.61-32.12-11.78-.1,1.44-.15,2.85-.16,4.25a15,15,0,0,0,.22,2.61,2.74,2.74,0,0,0,0,.28c0,.22.08.44.13.66v0c1.9,8,10.23,13.82,21.52,15.44C1507,1832.15,1553.19,1802.92,1553.19,1802.92Z"/><ellipse class="cls-14" cx="1024.06" cy="2023.19" rx="656.84" ry="126.98"/><path class="cls-15" d="M1589.83,336c12.18,49.77-3.26,104.44-19.72,154.5s-45.58,97.68-89.6,126.29c-50.88,33.12-119.33,36.67-173.15,9-33.23-17.1-67.52-46.07-103.06-34.39-25,8.25-39.67,34.36-47.37,59.67-10.43,34.22-12.52,70.42-19.88,105.45s-21.25,70.7-49.2,92.88c-45.9,36.45-111.75,25.12-168.62,12-39-9-79.07-18.47-111.87-41.47-40.8-28.62-65.71-75-82.74-122.07-38.75-107.1-42.14-231.79,13.09-331.55s176.65-165,285.79-134.64c44.77,12.5,84.16,39,126.53,58.16s92.19,30.63,134.8,11.79c30.19-13.36,52.42-40.09,80.47-57.59,39.8-24.86,91.4-29.48,134.81-12s77.57,56.54,89.29,102.14Z"/><path class="cls-16" d="M1214.29,1238.25c101.48-90.67,141.75-240.81,99.14-369.37-22-66.3-71.18-130.79-141.34-144.5-51-10-111.83,6-150-28.58-30.93-28-29.78-76.19-17-115s34.71-75.36,38.13-116.08c7.07-84-72.92-159-158.92-171.3s-171.83,24.89-240,76.42c-63,47.62-119.15,120.28-103.4,196.86,11.07,54,54.73,95.09,91.26,137.34s69.07,97.54,52.24,149.79c-25.24,78.32-145.54,102.07-160.27,183-11.8,64.9,52.25,117.59,108.9,154.58,56.44,36.85,113.44,74,176.72,98s134.23,33.92,198.8,14.85C1075.62,1284.35,1160.74,1273,1214.29,1238.25Z"/><path class="cls-17" d="M1557.45,1161.19c-2-77.61,21.75-153.22,40.36-228.58s32.13-155.5,9.92-229.85-90-140.27-167.4-135.92c-39.69,2.18-83.94,20.9-116.17-2.38-14.92-10.76-23.19-28.43-35.92-41.75-33.46-35.09-94.82-32.19-131.88-.93s-51.4,83.62-46.63,131.88,26.19,93.31,50.68,135.17c13.48,23,28.18,46,34.31,71.94s1.85,56.34-18,74.16c-20.38,18.31-50.44,18.78-77,25.16-48.72,11.69-91.08,47.32-111,93.33s-17,101.33,7.78,144.91c28,49.3,79.44,80.35,131.13,103.48,81,36.29,172.12,58.68,258.65,38.94s162.56-90,171.19-178.48Z"/></g></g></svg>