<?xml version="1.0" encoding="UTF-8"?>
<svg width="31px" height="26px" viewBox="0 0 31 26" version="1.1" xmlns="http://www.w3.org/2000/svg" xmlns:xlink="http://www.w3.org/1999/xlink">
    <title>t</title>
    <g id="Page-1" stroke="none" stroke-width="1" fill="none" fill-rule="evenodd">
        <g id="HOME" transform="translate(-75.000000, -6609.000000)" fill="#FFFFFF" fill-rule="nonzero">
            <path d="M84.756362,6635 C96.4404752,6635 102.833221,6625.00621 102.833221,6616.33283 C102.833221,6616.04848 102.833221,6615.764 102.813531,6615.47965 C104.052736,6614.54526 105.134661,6613.38746 106,6612.08751 C104.859184,6612.59528 103.619978,6612.96096 102.341394,6613.10311 C103.659239,6612.29066 104.662406,6611.01098 105.134543,6609.4875 C103.914909,6610.23907 102.538054,6610.7875 101.102189,6611.07186 C99.9415643,6609.79218 98.2893497,6609 96.4599875,6609 C92.9390905,6609 90.1065621,6611.94531 90.1065621,6615.56092 C90.1065621,6616.06875 90.1655718,6616.57652 90.2639018,6617.06401 C84.9924011,6616.7796 80.2911903,6614.17964 77.1636721,6610.19841 C76.6128354,6611.1734 76.2982151,6612.2906 76.2982151,6613.50934 C76.2982151,6615.78434 77.4193417,6617.79526 79.1306253,6618.97339 C78.088198,6618.93285 77.1046032,6618.62816 76.2588358,6618.14067 L76.2588358,6618.22188 C76.2588358,6621.41093 78.4422567,6624.05149 81.3534254,6624.66092 C80.8223966,6624.80307 80.2519293,6624.88434 79.6815212,6624.88434 C79.2683936,6624.88434 78.8750148,6624.84374 78.4815768,6624.7828 C79.2880832,6627.38282 81.6288438,6629.27186 84.421993,6629.33286 C82.2385721,6631.10003 79.5043736,6632.13596 76.5342542,6632.13596 C76.0031662,6632.13596 75.5114575,6632.11563 75,6632.05475 C77.8128388,6633.92341 81.1567065,6635 84.756362,6635 Z" id="t"></path>
        </g>
    </g>
</svg>