<?xml version="1.0" encoding="UTF-8"?>
<svg width="68px" height="68px" viewBox="0 0 68 68" version="1.1" xmlns="http://www.w3.org/2000/svg" xmlns:xlink="http://www.w3.org/1999/xlink">
    <title>telef</title>
    <g id="Page-1" stroke="none" stroke-width="1" fill="none" fill-rule="evenodd">
        <g id="HOME" transform="translate(-72.000000, -6439.000000)">
            <g id="telef" transform="translate(72.000000, 6439.000000)">
                <circle id="Oval" fill="#FFFFFF" cx="34" cy="34" r="34"></circle>
                <path d="M17.7507523,54 C37.758119,54 54,37.7894115 54,17.7507803 C54,16.8757839 53.3984347,16.1179725 52.5469357,15.9226642 L44.4221043,14.0477045 C43.5392491,13.8446144 42.6330484,14.3055725 42.2737114,15.1336492 L38.5237892,23.8834608 C38.1956557,24.6490541 38.4143859,25.5474722 39.0627947,26.0709137 L43.7971173,29.9457998 C40.9846756,35.9378736 36.0706846,40.922126 29.9536393,43.789267 L26.0786739,39.0550245 C25.5474502,38.4066162 24.6568895,38.1878099 23.8912193,38.5159431 L15.1414009,42.2658623 C14.3055418,42.6330572 13.8445833,43.5392572 14.0476736,44.4221117 L15.9226347,52.5469368 C16.1179431,53.3906534 16.8679734,54 17.7507523,54 Z" id="p" fill="#18335B" fill-rule="nonzero"></path>
            </g>
        </g>
    </g>
</svg>