<?xml version="1.0" encoding="UTF-8"?>
<svg width="29px" height="25px" viewBox="0 0 29 25" version="1.1" xmlns="http://www.w3.org/2000/svg" xmlns:xlink="http://www.w3.org/1999/xlink">
    <title>Virgolette Copy</title>
    <defs>
        <path d="M25.3724276,24.5727729 C26.7698852,24.5727729 27.9036716,23.4389866 27.9036716,22.041529 L27.9036716,15.2915451 C27.9036716,13.8940875 26.7698852,12.7603011 25.3724276,12.7603011 L21.1536877,12.7603011 L21.1536877,9.38530916 C21.1536877,7.52380046 22.6671709,6.01031721 24.5286796,6.01031721 L24.9505536,6.01031721 C25.6519088,6.01031721 26.2161756,5.44605044 26.2161756,4.74469522 L26.2161756,2.21345126 C26.2161756,1.51209604 25.6519088,0.947829276 24.9505536,0.947829276 L24.5286796,0.947829276 C19.8669514,0.947829276 16.0911997,4.72358092 16.0911997,9.38530916 L16.0911997,22.041529 C16.0911997,23.4389866 17.2249861,24.5727729 18.6224437,24.5727729 L25.3724276,24.5727729 Z M10.1849638,24.5727729 C11.5824214,24.5727729 12.7162078,23.4389866 12.7162078,22.041529 L12.7162078,15.2915451 C12.7162078,13.8940875 11.5824214,12.7603011 10.1849638,12.7603011 L5.96622388,12.7603011 L5.96622388,9.38530916 C5.96622388,7.52380046 7.47970713,6.01031721 9.34121583,6.01031721 L9.76308983,6.01031721 C10.464445,6.01031721 11.0287118,5.44605044 11.0287118,4.74469522 L11.0287118,2.21345126 C11.0287118,1.51209604 10.464445,0.947829276 9.76308983,0.947829276 L9.34121583,0.947829276 C4.6794876,0.947829276 0.90373595,4.72358092 0.90373595,9.38530916 L0.90373595,22.041529 C0.90373595,23.4389866 2.03752231,24.5727729 3.43497992,24.5727729 L10.1849638,24.5727729 Z" id="path-1"></path>
    </defs>
    <g id="Page-1" stroke="none" stroke-width="1" fill="none" fill-rule="evenodd">
        <g id="HOME" transform="translate(-139.000000, -4742.000000)">
            <g id="Group-Copy" transform="translate(0.000000, 4215.000000)">
                <g id="Virgolette-Copy" transform="translate(153.096264, 539.500000) rotate(180.000000) translate(-153.096264, -539.500000) translate(139.096264, 527.000000)">
                    <mask id="mask-2" fill="white">
                        <use xlink:href="#path-1"></use>
                    </mask>
                    <use id="q" fill="#000000" fill-rule="nonzero" xlink:href="#path-1"></use>
                    <g id="Group-4" mask="url(#mask-2)">
                        <g transform="translate(12.500000, 15.000000) rotate(100.000000) translate(-12.500000, -15.000000) translate(-7.000000, -5.000000)">
                            <path d="M3.27484316,4.54488357 C4.9405218,4.40456964 6.62429669,4.2650909 8.27928208,4.50896989 C9.93509003,4.75201367 11.5826724,5.41516407 12.7194467,6.66045026 C14.0347159,8.09950333 14.5224924,10.2668525 13.9532827,12.1427163 C13.6020507,13.3011414 12.8856032,14.5597909 13.4465874,15.6296846 C13.8422374,16.3822017 14.738825,16.7037544 15.5720756,16.8073195 C16.6989791,16.9476334 17.8415113,16.8106603 18.9766404,16.8482444 C20.1117696,16.8858285 21.3028326,17.1288723 22.1500667,17.8972581 C23.5418337,19.1584131 23.5508819,21.3265976 23.4538201,23.2174949 C23.3871929,24.5145636 23.3123402,25.8483812 22.7743877,27.0260161 C22.104826,28.4909604 20.7920245,29.5483261 19.4158861,30.3576369 C16.2827651,32.1992573 12.4052298,33.0102385 8.98339118,31.8075476 C5.56237515,30.6056919 2.85287124,27.0928322 3.20163556,23.4338122 C3.34558309,21.9329542 3.95756576,20.5248036 4.32195867,19.0632001 C4.68635158,17.6015966 4.77107498,15.9445558 3.94769507,14.6892472 C3.36367936,13.799757 2.4062226,13.2401717 1.70458118,12.4425538 C0.708464227,11.3108551 0.279911847,9.68805755 0.586725739,8.20223317 C0.892717073,6.717244 1.92584911,5.40514164 3.28635896,4.77372892" id="Fill-20" fill="#FF6700"></path>
                            <path d="M34.2451813,13.5791907 C30.8273661,10.8474575 25.8768576,10.4064099 22.0661712,12.4925392 C20.1009893,13.5679703 18.3437982,15.503919 18.3017048,17.8230872 C18.2711665,19.509598 19.1113829,21.3626884 18.2348507,22.7781837 C17.5242158,23.9243896 16.0014269,24.1591547 14.708088,23.9709974 C13.4155744,23.781977 12.1428695,23.2865536 10.8421024,23.4065255 C8.15720676,23.6542372 6.24072116,26.632819 6.33151074,29.4499998 C6.42147497,32.2663175 8.06889325,34.8003993 10.0695656,36.688014 C11.9183717,38.432353 14.5174299,39.8176395 16.8408179,38.8828947 C18.4783318,38.2252073 19.5306657,36.5982509 20.6581072,35.1931129 C21.7863742,33.788838 23.3454789,32.4363496 25.0836868,32.6797457 C27.6893479,33.0448399 29.1048401,36.7553363 31.7344366,36.7700091 C33.843231,36.7812295 35.1464743,34.4378944 35.9965949,32.4190874 C36.8434141,30.4080484 37.6976616,28.377158 38.0996118,26.2202539 C38.5023875,24.0633498 38.4223275,21.7398661 37.4632594,19.784066 C36.4662247,17.7505862 34.5744999,16.1926783 34.05865,13.9710412" id="Fill-23" fill="#18335B"></path>
                            <path d="M29.2319456,0.91502716 C26.7523537,1.41679089 24.191091,1.08283832 21.6668748,0.913357397 C19.1418166,0.743041589 16.4938313,0.763078743 14.2331507,1.88933377 C11.9707861,3.01642368 10.2405445,5.54778412 10.8181337,7.99148202 C11.1128221,9.24463902 11.9640504,10.5503935 11.3990907,11.709209 C11.1380811,12.2452028 10.6177456,12.6083762 10.2624357,13.0892679 C9.32532673,14.3532784 9.76567532,16.2935428 10.9789493,17.2995749 C12.1930653,18.3047721 13.9536177,18.4684089 15.4758935,18.045124 C16.9990113,17.6210042 18.322583,16.6851022 19.5274373,15.6690515 C20.1909071,15.1096809 20.8434313,14.5119059 21.6424577,14.1704394 C22.4431681,13.8289729 23.4400566,13.7947427 24.1245756,14.3273971 C24.8276178,14.8742444 25.0128505,15.8301836 25.3681604,16.6425232 C26.0190007,18.1302819 27.402352,19.2807485 28.9919851,19.6581149 C30.5824602,20.0346464 32.3404867,19.6297289 33.599227,18.5953108 C35.0229927,17.4248071 35.7285608,15.6106098 36.178171,13.8323124 C36.8845811,11.0454782 37.087495,8.01402382 35.9643115,5.36577997 C34.8419698,2.71670125 32.1367308,0.59025829 29.247943,0.812336746" id="Fill-26" fill="#FFBF1F"></path>
                        </g>
                    </g>
                </g>
            </g>
        </g>
    </g>
</svg>