<?xml version="1.0" encoding="UTF-8"?>
<svg width="28px" height="27px" viewBox="0 0 28 27" version="1.1" xmlns="http://www.w3.org/2000/svg" xmlns:xlink="http://www.w3.org/1999/xlink">
    <title>w</title>
    <g id="Page-1" stroke="none" stroke-width="1" fill="none" fill-rule="evenodd">
        <g id="HOME" transform="translate(-219.000000, -6605.000000)" fill="#FFFFFF" fill-rule="nonzero">
            <path d="M219,6632 L226.356262,6630.1377 C228.381226,6631.20445 230.662476,6631.76493 232.987488,6631.76493 L232.993774,6631.76493 C240.637512,6631.76493 247,6625.76228 247,6618.38547 C247,6614.8116 245.424988,6611.45466 242.806274,6608.92341 C240.1875,6606.39216 236.700012,6605 232.993774,6605 C225.34375,6605 219.118774,6611.00266 219.118774,6618.37946 C219.118774,6620.73591 219.756226,6623.03816 220.96875,6625.0692 L219,6632 Z M232.993774,6629.51095 C230.918762,6629.51095 228.887512,6628.97454 227.118774,6627.96205 L226.700012,6627.72098 L222.337524,6628.82387 L223.5,6624.71965 L223.224976,6624.29778 C222.068726,6622.52588 221.462524,6620.48284 221.462524,6618.37946 C221.462524,6612.25021 226.637512,6607.26004 233,6607.26004 C236.081238,6607.26004 238.974976,6608.4172 241.150024,6610.52051 C243.325012,6612.62388 244.662476,6615.41427 244.656272,6618.38547 C244.656272,6624.52078 239.349976,6629.51095 232.993774,6629.51095 Z M237.4375,6624.76185 C238.106262,6624.66539 239.487488,6623.95424 239.775024,6623.17076 C240.0625,6622.38728 240.0625,6621.71833 239.974976,6621.57966 C239.893738,6621.42899 239.662476,6621.34465 239.318726,6621.18192 C238.974976,6621.01318 237.268738,6620.20557 236.950012,6620.0971 C236.631226,6619.98257 236.400024,6619.92836 236.168762,6620.26584 C235.9375,6620.60337 235.275024,6621.35066 235.068726,6621.57966 C234.868774,6621.80267 234.662476,6621.8328 234.318726,6621.66406 C232.28125,6620.68171 230.943726,6619.91029 229.599976,6617.68638 C229.243774,6617.09577 229.956238,6617.13797 230.618774,6615.86028 C230.731262,6615.63728 230.674988,6615.44441 230.587524,6615.27567 C230.5,6615.10693 229.806274,6613.46163 229.518738,6612.79262 C229.237488,6612.14174 228.950012,6612.23214 228.737488,6612.22008 C228.537476,6612.20801 228.306274,6612.20801 228.075012,6612.20801 C227.84375,6612.20801 227.46875,6612.29241 227.150024,6612.62388 C226.831238,6612.96136 225.9375,6613.76897 225.9375,6615.41427 C225.9375,6617.05957 227.181274,6618.65067 227.349976,6618.87367 C227.525024,6619.09668 229.793762,6622.47168 233.275024,6623.92411 C235.474976,6624.84019 236.337524,6624.91853 237.4375,6624.76185 Z" id="w"></path>
        </g>
    </g>
</svg>